<?xml version="1.0" standalone="no"?>
<!DOCTYPE svg PUBLIC "-//W3C//DTD SVG 1.1//EN" "http://www.w3.org/Graphics/SVG/1.1/DTD/svg11.dtd" >
<svg xmlns="http://www.w3.org/2000/svg">
<metadata>
<json>
<![CDATA[
{
	"fontFamily": "eu-open-site",
	"description": "Font generated by IcoMoon.",
	"majorVersion": 1,
	"minorVersion": 2,
	"version": "Version 1.2",
	"fontId": "eu-open-site",
	"psName": "eu-open-site",
	"subFamily": "Regular",
	"fullName": "eu-open-site"
}
]]>
</json>
</metadata>
<defs>
<font id="eu-open-site" horiz-adv-x="1024">
<font-face units-per-em="1024" ascent="819" descent="-205" />
<missing-glyph horiz-adv-x="1024" />
<glyph unicode="&#x20;" horiz-adv-x="238.5" d="" />
<glyph unicode="&#x21;" glyph-name="exclam" data-tags="exclam" horiz-adv-x="293" d="M146 227.5q-9.5 0-14.75 8.25t-6.75 28.75q-2 42.5-7.5 94.75t-32.5 241.75q-4.5 33.5-6.25 50.5t-1.75 28.5q0 40 18.75 60.5t50.75 20.5q32.5 0 51.25-20.5t18.75-60.5q0-11.5-1.75-28.5t-6.75-50.5q-26.5-189.5-32-241.75t-8-94.75q-1-20.5-6.25-28.75t-15.25-8.25zM76.5 76q0 29 20.25 49.25t49.25 20.25 49.5-20.25 20.5-49.25-20.5-49-49.5-20-49.25 20-20.25 49z" />
<glyph unicode="&#x22;" glyph-name="quotedbl" data-tags="quotedbl" horiz-adv-x="377" d="M68.5 481.5l-22.5 168q-4.5 33-5 38t-0.5 9q0 32 13.75 49.75t36.75 17.75q22.5 0 36.25-17.75t13.75-49.75q0-4-0.25-9t-4.75-38l-22.5-168q-2-13-7.25-18.75t-15.25-5.75q-10.5 0-15.75 5.75t-6.75 18.75zM263 481.5l-22.5 168q-4.5 33-4.75 38t-0.25 9q0 32 13.75 49.75t36.25 17.75 36.25-17.75 13.75-49.75q0-4-0.25-9t-4.75-38l-22.5-168q-2-13-7.25-18.75t-15.25-5.75q-10.5 0-15.75 5.75t-6.75 18.75z" />
<glyph unicode="&#x23;" glyph-name="numbersign" data-tags="numbersign" horiz-adv-x="657" d="M327.5 280.5h-41l55.5 125h-117l-55.5-125h-40.5l55 125h-138l24.5 56.5h138l41 92h-138l24.5 56.5h138l58.5 132h41l-58.5-132h117l58 132h41l-58-132h138l-24.5-56.5h-138l-41-92h138l-24.5-56.5h-138.5zM249.5 462h117l41 92h-117z" />
<glyph unicode="&#x24;" glyph-name="dollar" data-tags="dollar" horiz-adv-x="492" d="M239.5 789.5h36.5l-9-57h11.5q10-0.5 20.25-1.25t20.25-2.25l9.5 60.5h36l-9.5-64.5q12.5-2.5 29.5-7.5t25-8.5q9.5-5 12.75-11.25t4.75-51.25l1-41q0-10.5-4-17t-11.5-6.5q-6.5 0-10.25 3.5t-7.25 13.5q-16.5 47-24.5 59.75t-21.5 21.25l-31-208q61-27 94-70.5t33-101.5q0-74.5-53.75-126.25t-127.25-63.25l-13.5-90.5h-36.5l13 86.5q-5.5-0.5-10.25-0.75t-9.25-0.25q-8.5 0-16.5 0.5t-16 1.5l-13.5-87.5h-36l13.5 95q-19 4.5-43 14t-36 17.5q-8 6-10.75 12.25t-3.25 25.75q-0.5 8-0.5 17.25t0.5 20.75q1 59 4.75 66.75t16.75 7.75q8 0 10.75-5t8.75-35q7.5-42 21-66t38-38.5l37 257.5q-55.5 21.5-86.5 62.25t-31 87.25q0 59 44.25 109t120.25 60.5zM263 702.5l-29-194.5q35.5-15.5 39.75-17.25t9.75-4.25l30.5 210q-10 2.5-20.25 4.25t-20.75 1.75h-10zM217 394.5l-37-255q8.5-2.5 16.5-3.75t16-1.25q6 0 10.25 0.25t8.25 0.75l36 237.5q-12 6.5-24.5 12t-25.5 9.5zM200.5 524.5l25.5 173q-35-6-59.5-29t-24.5-57q0-28 15.5-50.75t43-36.25zM300 355.5l-31-214q37.5 9 64.75 41.25t27.25 73.25q0 30.5-16 57t-45 42.5z" />
<glyph unicode="&#x25;" glyph-name="percent" data-tags="percent" horiz-adv-x="836" d="M222 399.5q-38.5 0-69.5 10.5t-55.5 31.5q-28.5 24.5-45 59.5t-16.5 72.5 16.5 72.75 45 59.25q24.5 21 55.25 31.5t68.75 10.5q36.5 0 68.25-10.25t57.75-31.75q30-25 45.25-58.5t15.25-69.5q0-41-15.75-76.5t-44.75-59.5q-25-21-56.5-31.5t-68.5-10.5zM225 429q25.5 0 47 13.5t35 36q10 16.5 15.25 38.75t5.25 50.25q0 33-6.25 56.5t-19.25 44q-16 24.5-37.5 37.25t-47.5 12.75q-24 0-45.25-12.75t-35.75-37.25q-10-17-15.25-38.5t-5.25-53q0-29.5 6.5-53.75t19-44.25q16-25 37.5-37.25t46.5-12.25zM686 744.5h55l-587.5-723.5h-55.5zM614 20q-38.5 0-69.25 10.25t-55.75 31.25q-28.5 24.5-44.75 59.5t-16.25 72.5q0 38 16.25 73t44.75 59.5q25 20.5 55.75 31.25t68.25 10.75q37 0 68.75-10.25t57.25-31.75q30.5-25.5 45.5-59t15-69q0-41.5-15.75-76.75t-44.75-59.75q-25-21-56.25-31.25t-68.75-10.25zM617 49.5q26 0 47.5 13.25t34.5 35.75q10.5 17 15.5 39.25t5 49.75q0 33-6.25 56.5t-19.25 44q-16 24.5-37.5 37.25t-47.5 12.75q-23.5 0-45-12.75t-36-37.25q-10-17-15.25-38.5t-5.25-52.5q0-30 6.5-54.25t19.5-44.25q15.5-25 37.25-37t46.25-12z" />
<glyph unicode="&#x26;" glyph-name="ampersand" data-tags="ampersand" horiz-adv-x="905" d="M411.5 450.5l171-186q30 36.5 55.5 76.25t25.5 54.75q0 13.5-11.75 19.5t-37.75 6q-22 0-30.5 3.75t-8.5 14.75q0 9 6 13.25t19 4.25q22 0 66-1.5t66-1.5q16 0 48 1.5t48 1.5q17 0 24-3.5t7-14q0-10-5.25-14t-17.25-5.5q-39-4.5-53.75-9.25t-28.25-12.25q-22.5-12.5-44.75-35t-53.75-63.5l-49-64.5 77-87q39.5-44.5 39.5-44.75t7.5-6.25q17-14.5 40-23.75t43-11.25q24.5-2 29.5-6.25t5-12.25q0-9-6.75-13.5t-25.75-4.5q-21.5 0-63.25 3t-62.75 3q-26 0-78-3t-77.5-3q-18.5 0-25.75 4.5t-7.25 14.5 5.75 14 34.25 4.5q20 0.5 26.75 5.25t6.75 14.25q0 6.5-4.75 14.5t-26.75 32.5l-17.5 19.5q-26-30.5-55.5-55.5t-60-43.5q-38.5-23.5-72-33.5t-73.5-10q-55 0-95.5 16t-72.5 51q-27 29-39 61.75t-12 68.25q0 43 18.75 79.5t57.75 66q20.5 15 62 36t90.5 42.5q-17 18.5-32 36.75t-24 33.25q-16 25-25 50.75t-9 49.25q0 35.5 17.5 68.5t53.5 56.5q28.5 19 65.5 29t80.5 10q41.5 0 73-7.25t56-21.25q37-21.5 56.5-54.5t19.5-69.5q0-35.5-19-62.25t-65-49.25q-18.5-9.5-50.75-23t-60.75-24.5zM391 478.5q20 8 41.25 19.5t32.25 21.5q20.5 17.5 30.25 40.5t9.75 48.5q0 23.5-7.25 45.75t-19.25 38.25q-16 21-38 31t-51 10q-20 0-37.25-6t-31.25-18.5q-15.5-14-22.75-31t-7.25-36q0-19.5 8.75-41.5t28.25-49.5q12.5-17.5 29.25-36.5t34.25-36zM503.5 172l-207 229.5q-27-11-52.75-27t-40.25-31.5q-19-20-29-44.25t-10-50.75q0-30.5 11.75-61.5t34.25-55.5q22.5-24 51.5-37t65.5-13q45 0 86.5 21.5t89.5 69.5z" />
<glyph unicode="&#x27;" glyph-name="quotesingle" data-tags="quotesingle" horiz-adv-x="193" d="M73.5 481.5l-22.5 168q-4.5 33-4.75 38t-0.25 9q0 32 13.75 49.75t36.25 17.75 36.25-17.75 13.75-49.75q0-4-0.25-9t-4.75-38l-22.5-168q-1.5-13-7-18.75t-15.5-5.75-15.5 5.75-7 18.75z" />
<glyph unicode="&#x28;" glyph-name="parenleft" data-tags="parenleft" horiz-adv-x="474" d="M87 272.5q0 92.5 26.75 171.5t77.25 145q41.5 53.5 100.75 99.25t120.75 66.75q27.5 9.5 41.75 8.25t14.25-12.75q0-5.5-5.75-10t-31.75-14.5q-47-17.5-96.25-65.75t-77.75-103.25q-28.5-53.5-42.5-125.5t-14-158 14-158.75 42.5-126.25q28-54.5 77.75-103.25t96.25-66.75q34-13.5 35.75-16.5t1.75-7q0-11.5-14.5-12.5t-41.5 8q-61.5 21-121 67t-100.5 99q-52 68.5-78 148t-26 168z" />
<glyph unicode="&#x29;" glyph-name="parenright" data-tags="parenright" horiz-adv-x="474" d="M387 272.5q0-90-26.5-169t-78-147q-41.5-54-99.75-99t-121.75-67q-27-9-41.5-8t-14.5 12.5q0 4 2 7t36 16.5q46.5 18 96 66.75t78 103.25q28 53.5 42 126.25t14 158.75-14 158-42 125.5q-29 55-78.25 103.25t-95.75 65.75q-26.5 10-32.25 14.5t-5.75 10q0 11.5 14.25 12.75t41.75-8.25q65-22 121.75-65.75t99.75-100.25q52-68.5 78.25-146.75t26.25-169.75z" />
<glyph unicode="&#x2a;" glyph-name="asterisk" data-tags="asterisk" horiz-adv-x="342" d="M191 618.5q4-5.5 8.5-7.75t14.5-3.25q38.5-4.5 39.5-4.75t2.5-0.25q24.5-4.5 34.75-14.25t10.25-28.75q0-14-9.5-23t-23.5-9q-13 0-23.75 6.75t-24.25 27.25l-13.5 19.5q-9 13-13.75 16.5t-10.75 3.5q-3.5-4-3-11.5t6-19l8.5-17.5q6-13.5 9.5-24.25t3.5-18.75q0-14-9.75-24.25t-25.75-10.25q-16.5 0-26.25 10.25t-9.75 24.25q0 8 3.5 18.75t9.5 24.25l8.5 17.5q5.5 11.5 6 19t-3 11.5q-6 0-10.75-3.5t-13.75-16.5l-13.5-19.5q-13.5-20.5-24.25-27.25t-23.75-6.75q-14 0-23.5 9t-9.5 23q0 19 10.25 28.75t35.25 14.25q1 0 2 0.25t40 4.75q9.5 1 14 3.25t8.5 7.75q-4 5.5-8.5 8t-14 3.5q-39 4.5-40 4.75t-2 0.25q-25 4.5-35.25 14t-10.25 29q0 13.5 9.5 22.75t23.5 9.25q13 0 23.75-7t24.25-27l13.5-19.5q9-13 13.75-16.5t10.75-4q3.5 4 3 11.75t-6 19.25l-8.5 17q-6 14-9.5 24.5t-3.5 18.5q0 14 9.75 24.5t26.25 10.5q16 0 25.75-10.5t9.75-24.5q0-8-3.5-18.5t-9.5-24.5l-8.5-17q-5.5-11.5-6-19.25t3-11.75q6 0.5 10.75 4t13.75 16.5l13.5 19.5q13.5 20 24.25 27t23.75 7q14 0 23.5-9.25t9.5-22.75q0-19.5-10.25-29t-34.75-14q-1.5 0-2.5-0.25t-39.5-4.75q-10-1-14.5-3.5t-8.5-8z" />
<glyph unicode="&#x2b;" glyph-name="plus" data-tags="plus" horiz-adv-x="610" d="M23.5 361.5v70h246.5v245.5h69.5v-245.5h247v-70h-247v-245.5h-69.5v245.5h-246.5z" />
<glyph unicode="&#x2c;" glyph-name="comma" data-tags="comma" d="M110.5 138.5q18.5 0 34.5-6.25t28-19.25q12-13.5 18.25-33.25t6.25-43.75q0-27-6.75-53t-18.75-48q-10.5-18-26.75-38t-34.75-37.5q-13.5-13-25.25-20.5t-18.75-7.5q-5.5 0-9 3.25t-3.5 8.25q0 4 3.5 9t14 15.5q18.5 19 29.25 31.75t19.75 26.75q12.5 19.5 18.5 36.25t6 30.25q0 15-6.25 21.75t-20.25 6.75q-2.5 0-7.75-0.5t-7.75-0.5q-12 0-22.25 4t-18.75 12q-8 8-12 17.5t-4 23.5q0 14.5 4.75 26.25t13.75 19.75q8 7.5 19.75 11.5t26.25 4z" />
<glyph unicode="&#x2d;" glyph-name="hyphen" data-tags="hyphen" horiz-adv-x="397" d="M69.5 336h281.5l-22.5-73.5h-282.5z" />
<glyph unicode="&#x2e;" glyph-name="period" data-tags="period" horiz-adv-x="239" d="M49 77q0 29 20.25 49.25t49.25 20.25 49.25-20.25 20.25-49.25-20.25-49-49.25-20-49.25 20-20.25 49z" />
<glyph unicode="&#x2f;" glyph-name="slash" data-tags="slash" horiz-adv-x="502" d="M84.5-205l-54 12 416.5 948 54.5-12.5z" />
<glyph unicode="&#x30;" glyph-name="zero" data-tags="zero" horiz-adv-x="637" d="M317 762q63.5 0 111.5-28.5t86.5-82q38.5-54.5 57.5-119.5t19-150q0-72.5-16.5-136t-52-118q-38-58-88-89.5t-114.5-31.5q-57.5 0-108.25 27t-90.75 83q-38 52.5-57.25 119.75t-19.25 141.25q0 73.5 17.25 141t52.25 121q37.5 58.5 87.75 90.25t114.75 31.75zM317 727q-43.5 0-73.5-26.25t-48-78.25q-15-42.5-22-101.25t-7-135.25q0-91.5 11.5-161.5t37-116q19.5-35 43.75-51.25t58.25-16.25q46 0 75.5 25.75t48.5 78.75q15 42.5 22 96.75t7 133.75q0 97.5-10.75 168.5t-36.75 115q-19 32.5-45 50t-60.5 17.5z" />
<glyph unicode="&#x31;" glyph-name="one" data-tags="one" horiz-adv-x="674" d="M415.5 662.5v-505.5q0-32.5 4-49.5t13.5-26.5q14-14 48.25-16.5t30.75-2q11.5-1.5 17-5.5t5.5-13q0-11-7.5-14.5t-28.5-3.5q-23.5 0-70.75 3t-70.75 3q-24.5 0-73.75-3t-73.75-3q-20 0-27.25 3.5t-7.25 14.5q0 9.5 5.5 13.5t17 5q55.5 4.5 65.25 8.25t16.75 10.25q9.5 9 13.75 24.25t4.25 51.75v460.5q0 27.5-3.75 36.75t-16.25 9.25q-10.5 0-25.25-4.25t-42.75-16.25q-18.5-7.5-27.25-10.25t-14.75-2.75q-9 0-13.5 4.5t-4.5 13q0 8 5 13.25t54 23.25q24 9 68.75 24.5t59.25 20.5q27.5 10 46.25 19.5t20.25 9.5q8 0 11.5-4.25t3-24.75z" />
<glyph unicode="&#x32;" glyph-name="two" data-tags="two" horiz-adv-x="642" d="M201.5 130l234.5 1q40.5 0.5 59.5 8.75t28.5 41.75l4 14q3.5 11.5 7.25 15t9.25 3.5q8 0 12.25-4t4.25-12q0-3.5-0.75-26.75t-1.25-53.25l-1-73q-0.5-12.5-5.25-15.75t-15.25-3.25q-39 0-109.5 2.5t-104.5 2.5q-35.5 0-108.5-2.5t-111-2.5q-14 0-21.25 3.75t-7.25 12.25q0 6 2.25 12t34.75 47.5q41 53 94.75 114.5t85.25 99.5q83.5 100.5 109.5 153.25t26 103.75q0 65-43.5 104.75t-104 39.75q-49 0-89-27.75t-71-81.75q-5.5-10-11.75-15.25t-12.75-5.25q-5 0-9.25 4.75t-4.25 11.75q0 6.5 5.75 19t13.75 25q38 56.5 96.25 85.5t128.25 29q108.5 0 169.5-55.5t61-132q0-53-34.5-109.5t-112-118.5l-87-70q-29.5-23-58-50.5t-61-64q-12.5-14.5-13.5-23.25t10.5-8.75z" />
<glyph unicode="&#x33;" glyph-name="three" data-tags="three" horiz-adv-x="650" d="M287.5 446.5l1-3q20.5 4.5 44 7.5t41 3q35.5 0 72.25-11.75t64.75-34.75q33-26 52.5-65.5t19.5-88q0-87.5-57.5-165.25t-146.5-125.75q-41-22.5-87-35.5t-86-13q-53 0-84.75 22.25t-31.75 55.75q0 20 14.5 34.25t38.5 14.25q17 0 30-8t32.5-41.5q11.5-20 23.5-28.5t31-8.5q40 0 85.5 27.75t76 67.25q24.5 31.5 37 67.75t12.5 78.25q0 85.5-51.5 141.25t-135 55.75q-35 0-67.75-10.5t-65.25-30.5q-12-7.5-17-9.5t-9-2q-5.5 0-8.75 3.25t-3.25 11.25 11.5 18 44.5 31l47.5 30q103 65 137 105t34 84q0 43.5-29.75 71t-74.75 27.5q-37.5 0-71.75-19.25t-64.75-63.75q-6-9-11.5-13.25t-11-4.25q-9.5 0-12.25 8.75t4.25 21.25q29.5 52.5 84.75 82t128.25 29.5q77 0 126-34.75t49-89.25q0-30-15.75-56.75t-46.75-49.75q-19-14-56.25-34.5t-97.25-50.5z" />
<glyph unicode="&#x34;" glyph-name="four" data-tags="four" horiz-adv-x="650" d="M410.5 747.5h89v-504.5h115.5v-48.5h-115.5v-248h-118v248h-367.5v49.5zM381.5 243v411.5q0 1.5-0.25 2.25t-0.75 0.75-1-0.25-1-0.75l-311-401.5q-4-5-1.5-8.5t9.5-3.5h306z" />
<glyph unicode="&#x35;" glyph-name="five" data-tags="five" horiz-adv-x="648" d="M180 722l338 41q5 0.5 7-2t0-9l-24.5-91.5q-1-4.5-4.75-6.75t-11.75-3.25l-281.5-32q-13-1.5-16.25-5t-6.25-13.5l-20.5-65.5q-3.5-11.5 2.75-16.5t47.25-8q98.5-6.5 142.5-16.75t80-28.25q63.5-32 96.75-84.25t33.25-116.25q0-53.5-26-106.5t-77.5-98.5q-49.5-43-118-72.75t-175-46.75q-45.5-7-62-3.75t-16.5 16.25q0 7.5 5 11.5t17.5 5q46 3.5 98 17.25t96.5 35.75q77 38.5 114.25 91.75t37.25 109.75q0 46-23.75 84t-74.75 63.5q-34 17-80.25 26.25t-136.75 13.75q-19.5 0.5-27.25 2.5t-11.75 5.5q-3.5 3.5-4.5 8t2.5 17.5z" />
<glyph unicode="&#x36;" glyph-name="six" data-tags="six" horiz-adv-x="629" d="M375.5 505q47.5 0 88.75-17.75t71.25-50.75q29-32.5 44.5-76t15.5-90q0-55-20-103.25t-57.5-85.25q-37-36-85.75-55.5t-106.75-19.5q-62.5 0-112.25 21.75t-90.75 66.75q-44 48-67 109.75t-23 127.75q0 75.5 33 156t101 156.5q76.5 84.5 180.25 144.5t185.25 75.5q33 6 41.25 3.25t8.25-12.75q0-5-2-8.5t-46-19q-77.5-27-153.5-79.5t-124-111q-54.5-65.5-80-140t-25.5-154q0-56.5 15.25-116t44.75-104q26.5-39 61.5-60.5t78-21.5q34.5 0 63.75 18.5t47.75 55.5q11 21.5 16.25 49t5.25 64.5q0 45-9.5 85.25t-29.5 73.25q-21.5 37-49.25 53t-62.25 16q-15.5 0-28.75-4t-28.75-14.5q-31.5-21.5-31.75-21.5h-0.75q-4.5 0-8 2.5t-4.5 6.5v7.5q5 27.5 50.25 49.5t95.25 22z" />
<glyph unicode="&#x37;" glyph-name="seven" data-tags="seven" horiz-adv-x="653" d="M248.5-24h-50l276.5 600.5q5.5 12.5 7.25 19.5t1.75 15.5q0 11.5-6.75 14.5t-27.75 3h-157q-81.5 0-117.75-1.25t-58.25-3.75q-18-2.5-23.5-6.5t-15.5-4q-6.5 0-10.25 4.25t-5.25 29.75l-4 68.5q-1 15 3.5 22t14 6.5l57.5-2q138-5 225.25-5t191.25 3l33 1q7 0 10-2t3-6q0-7.5-1.5-12.75t-4.5-11.75z" />
<glyph unicode="&#x38;" glyph-name="eight" data-tags="eight" horiz-adv-x="642" d="M233 379q-72 24-114.25 69.25t-42.25 111.25q0 85.5 69.5 144t196 58.5q98.5 0 163.25-46.5t64.75-123.5q0-57.5-40.75-97.5t-127.25-65.5q84.5-22.5 138.5-74.25t54-126.25q0-95-82.25-158.25t-199.25-63.25q-121 0-193.5 59t-72.5 137q0 58.5 44.25 102.75t141.75 73.25zM362 444.5q52 16.5 82.5 54t30.5 83.5q0 59-42 102t-110.5 43q-63 0-104.25-33t-41.25-87.5q0-55.5 43.5-93.5t141.5-68.5zM275 363.5q-63-24.5-93.25-66t-30.25-93.5q0-76 47-119.5t126-43.5q65 0 111.75 40t46.75 102.5q0 65-51.75 109.25t-156.25 70.75z" />
<glyph unicode="&#x39;" glyph-name="nine" data-tags="nine" horiz-adv-x="629" d="M253.5 271.5q-46.5 0-87 18.25t-71.5 51.25q-31.5 33.5-47 74.5t-15.5 84.5q0 52 21.25 102.25t63.75 89.25q40 36 87.5 53.25t101 17.25q66.5 0 118.25-22.5t93.75-72.5q38.5-46.5 58-103.25t19.5-115.25q0-86-35.25-164.25t-101.75-152.25q-65.5-72.5-142.75-122t-220.75-99.5q-24.5-8.5-36.25-5.5t-11.75 15v8l53 21.5q106.5 42.5 180.5 99.5t122.5 134.5q35 55 55 120.25t20 130.75q0 53-15.5 113.5t-42 99.5-64 59.75-75 20.75q-35.5 0-65.25-18.25t-48.75-54.25q-11-21.5-16.75-47.25t-5.75-62.25q0-47.5 8.5-85.25t26.5-67.25q22.5-37 56-56.5t66-19.5q18 0 36.25 7.75t32.25 21.25q5 4.5 7.5 5.75t6 1.25q5 0 9-4.25t4-10.25q0-4.5-5-11.75t-13.5-14.75q-23-20.5-56.25-30.75t-68.75-10.25z" />
<glyph unicode="&#x3a;" glyph-name="colon" data-tags="colon" horiz-adv-x="231" d="M46 76q0 29 20.25 49.25t49.25 20.25 49.25-20.25 20.25-49.25-20.25-49-49.25-20-49.25 20-20.25 49zM46 387q0 29 20.25 49.5t49.25 20.5 49.25-20.5 20.25-49.5-20.25-49.25-49.25-20.25-49.25 20.25-20.25 49.25z" />
<glyph unicode="&#x3b;" glyph-name="semicolon" data-tags="semicolon" d="M110.5 138.5q18.5 0 34.5-6.25t28-19.25q12-13.5 18.25-33.25t6.25-43.75q0-27-6.75-53t-18.75-48q-10.5-18-26.75-38t-34.75-37.5q-13.5-13-25.25-20.5t-18.75-7.5q-5.5 0-9 3.25t-3.5 8.25q0 4 3.5 9t14 15.5q18.5 19 29.25 31.75t19.75 26.75q12.5 19.5 18.5 36.25t6 30.25q0 15-6.25 21.75t-20.25 6.75q-2.5 0-7.75-0.5t-7.75-0.5q-12 0-22.25 4t-18.75 12q-8 8-12 17.5t-4 23.5q0 14.5 4.75 26.25t13.75 19.75q8 7.5 19.75 11.5t26.25 4zM49 387q0 29 20.25 49.5t49.25 20.5 49.25-20.5 20.25-49.5-20.25-49.25-49.25-20.25-49.25 20.25-20.25 49.25z" />
<glyph unicode="&#x3c;" glyph-name="less" data-tags="less" horiz-adv-x="643" d="M44 380l522 330 34-54.5-431.5-275.5 431.5-275.5-34-54z" />
<glyph unicode="&#x3d;" glyph-name="equal" data-tags="equal" horiz-adv-x="610" d="M23.5 438.5v69.5h563v-69.5h-563zM23.5 258v70h563v-70h-563z" />
<glyph unicode="&#x3e;" glyph-name="greater" data-tags="greater" horiz-adv-x="643" d="M600 380l-522.5-329.5-33.5 54 432 275.5-432 275.5 33.5 54.5z" />
<glyph unicode="&#x3f;" glyph-name="question" data-tags="question" horiz-adv-x="427" d="M134 285l-13.5 61.5q-6.5 29.5-1 44.5t21.5 27l86 64.5q43 32 64.5 69t21.5 74.5q0 38-26.25 67.5t-59.75 29.5q-19.5 0-36.5-10.5t-34-35.5q-20-28.5-30.25-36.25t-21.25-7.75q-15.5 0-24.5 17.75t-9 51.75q0 18 6 27.25t24.5 16.75q20.5 8.5 39.75 12t40.25 3.5q86.5 0 145.25-56.75t58.75-140.75q0-50.5-20-91.25t-73.5-80.75l-87-65.5q-15-11.5-21.75-24.25t-7.75-35.25q-2-33.5-5.5-36.75t-12-3.25q-6.5 0-10 2.5t-14.5 55zM90 76q0 29 20.25 49.25t49.25 20.25 49.25-20.25 20.25-49.25-20.25-49-49.25-20-49.25 20-20.25 49z" />
<glyph unicode="&#x40;" glyph-name="at" data-tags="at" horiz-adv-x="828" d="M611 107.5l20.5-46q-43.5-24-96-36.25t-110-12.25q-81 0-147.5 25.5t-116.5 73.5q-54 51.5-82.25 121t-28.25 142q0 79 30.5 150t81 120.5q51.5 49.5 124.75 79.5t151.75 30q73.5 0 137.75-25.25t109.25-69.25 68-102.25 23-115.75q0-44-14.75-87.25t-38.75-77.75q-29.5-43-71.25-68t-88.25-25q-47.5 0-73.5 27.75t-26 76.75q0 23 5.5 46.5t16 45.5q-50.5-79.5-113.25-137.5t-115.75-58q-35 0-55 24.5t-20 63.5q0 57.5 31 116t84.5 106.5q45.5 40 91.25 59.75t86.25 19.75q7.5 0 14.5-0.5t44-14.5q1-0.5 2.5-0.75t3.5-0.25q1.5 0 3 1t4 5q7.5 12 13.5 14.75t17.5 2.75h46q10 0 12.5-2.5t2.5-8q0-0.5 0.25 0.25t-18.25-54.25l-57.5-171q-8.5-25-12-43t-3.5-33q0-18 11.75-29t31.25-11q30 0 59 24.25t46.5 58.75q13 25.5 20.25 60.5t7.25 67.5q0 52.5-19.25 100.25t-58.25 85.25q-37 35-89.75 55.25t-117.25 20.25q-68 0-128-25t-104.5-68-70.25-102.75-25.75-130.75q0-62 22.5-120.25t63.5-100.75q42-43.5 102.75-68t136.75-24.5q47 0 90.75 11t84.25 33zM282.5 288q0-17.5 8.25-28.25t23.25-10.75q21 0 54 29.25t78 90.75q40.5 54 61.25 91.5t20.75 58q0 15.5-10.25 25t-27.75 9.5q-31.5 0-70-24.75t-72-70.25q-28.5-38.5-47-84.25t-18.5-85.75z" />
<glyph unicode="&#x41;" glyph-name="A" data-tags="A" horiz-adv-x="711" d="M394 699.5l225.5-566q16-41.5 28.75-54.75t44.25-16.25q22-2 27.75-6.75t5.75-13.75q0-8.5-6.5-12.25t-19.5-3.75q-21.5 0-63.75 3t-63.25 3q-23 0-69.75-3t-70.25-3q-17 0-25 4.5t-8 14.5q0 11.5 8.25 15.75t29.75 3.75h22.5q15 2.5 21.75 9.25t6.75 18.75q0 9-1.25 16.25t-5.75 19.25l-49 131q-5 12.5-11.75 19.25t-20.25 6.75h-181q-13.5 0-20.5-3t-12.5-19.5l-37.5-114q-4-10.5-5.75-20t-1.75-18q0-21.5 17.25-34t58.75-14.5q16.5-0.5 23-3.75t6.5-15.25q0-8.5-6.75-12.75t-21.75-4.25q-17.5 0-52 3t-51.5 3q-16.5 0-50-3t-50.5-3q-16.5 0-23.25 4t-6.75 13 6 14 22 8.5l14.5 3.5q25.5 5 43 25.25t33.5 62.75l203 526q6 15 13.25 36t10.25 27.5q4 8.5 9.25 12t13.25 3.5q7.5 0 12.5-3.25t10-14.25q1.5-2.5 2.5-4.75t16-40.25zM398 349.5l-84 219-4 11h-2q-1.5 0-2.75-0.75t-4.25-9.25l-82-220q-3-8.5-3.5-11.25t-0.5-5.25q0-4.5 2.25-6.25t9.75-1.75h157q12 0 14 1.25t2 3.75q0 11.5-0.5 14.25t-1.5 5.25z" />
<glyph unicode="&#x42;" glyph-name="B" data-tags="B" horiz-adv-x="738" d="M146 138.5v490.5q0 36-10.75 51.25t-34.25 15.25q-14 0-29.25-3.5t-22.75-3.5q-5 0-9.25 4.25t-4.25 10.75q0 8 4.5 13.25t19 9.25q49.5 14.5 125.5 23.25t160.5 8.75q154.5 0 232.25-43.25t77.75-132.75q0-63.5-47-106t-126-47v-3q98.5-6 156.75-60.5t58.25-136q0-93-68-149.25t-204.5-56.25q-33.5 0-100.25 3t-100.25 3q-25.5 0-76.5-2t-77-2q-13 0-19.25 4.25t-6.25 12.75q0 9 5.5 13.5t18 5q41.5 2 59.5 17t18 60zM272 661.5v-187q0-19 7.5-27t30.5-8h55.5q71 0 113.75 35.25t42.75 98.75q0 70.5-41.75 110t-114.75 39.5q-59.5 0-76.5-14.25t-17-47.25zM272 373v-186.5q0-78 25.5-102t88.5-24q81.5 0 129.25 42t47.75 123q0 87-53.25 133t-151.75 46h-54q-17 0-24.5-7.75t-7.5-23.75z" />
<glyph unicode="&#x43;" glyph-name="C" data-tags="C" horiz-adv-x="740" d="M690 674l5-46q3-29-1-37.5t-14.5-8.5q-7.5 0-14.75 7.25t-25.75 37.25q-36.5 57.5-78 79t-95.5 21.5q-131 0-208.25-96.25t-77.25-239.25q0-154.5 79-252.5t198.5-98q34.5 0 65 10.25t58 32.75q35 29 64.5 80.5t24.5 43.5q4.5 7 8.25 9.25t9.25 2.25q10.5 0 14.75-8.75t0.25-58.25l-3-38.5q-2-30-16-43.25t-41-24.75q-48.5-20-94.75-29.5t-94.75-9.5q-170 0-288.25 102.75t-118.25 270.25q0 163 119.25 272.5t301.25 109.5q48 0 105-9.75t91-23.25q15-6 19.5-14.75t8-40.25z" />
<glyph unicode="&#x44;" glyph-name="D" data-tags="D" horiz-adv-x="864" d="M134 157v472q0 43-10.25 57.25t-50.25 6.25q-15.5-3.5-21.75-4.25t-11.25-0.75q-8 0-11.5 3.25t-3.5 9.75q0 10.5 7.75 15.5t39.25 12q66 15.5 140.5 24.75t147 9.25q220.5 0 339.25-106t118.75-258.5q0-147.5-114.5-259.5t-310.5-112q-29.5 0-87.75 3t-87.25 3q-26.5 0-79.75-3t-80.25-3q-14 0-19.75 5t-5.75 14q0 8 5.75 12t17.75 4.5q47.5 2 62.75 20.5t15.25 75zM260 641v-439q0-55.5 4.75-77t14.75-33.5q12.5-16 34.5-23.5t54.5-7.5q140 0 227.75 89.75t87.75 243.25q0 155.5-92.25 244.5t-235.75 89q-37.5 0-59.5-7t-29.5-19.5q-4-7-5.5-19.75t-1.5-39.75z" />
<glyph unicode="&#x45;" glyph-name="E" data-tags="E" horiz-adv-x="657" d="M137 157v455.5q0 57-15.25 74.5t-64.75 20.5q-11 1-16.25 4.25t-5.25 12.25q0 11.5 6.5 15t23.5 3.5q22.5 0 62.25-1.5t78.75-1.5l169-1q39.5-0.5 100.75 0.5t82.75 2.5q22.5 1.5 28 0.25t5.5-17.75v-22.5l-1-51v-43q0-16-4.25-22.5t-13.25-6.5q-6.5 0-11.25 4.5t-11.25 20.5q-9.5 24-22.5 42.25t-27.5 29.25q-19.5 14.5-49.25 21t-101.25 6.5q-52.5 0-70.25-6t-17.75-37v-189.5q0-24 8.25-30.25t24.25-6.25h83q37 0 60 12t37 53q6 18 12 25.5t14 7.5 12.25-5.75 4.25-15.75q0-5-2.25-23.75t-3.75-36.75q-2-20-2.25-37.5t5.25-97.5q2-29.5-1.75-35.75t-13.75-6.25q-8.5 0-14.75 6.75t-17.25 44.25q-13.5 46-38.25 59.5t-80.25 13.5h-54.5q-16.5 0-24-5.25t-7.5-26.75v-185q0-63 21.25-88.5t74.75-25.5h55.5q27.5 0 53.25 6t45.25 17.5q18 11.5 33 29.5t37.5 64q9.5 19.5 14.75 24.5t13.75 5q11 0 13.75-8.75t-1.25-29.25l-7.5-35.5q-2.5-13-2.5-13.25t-8.5-79.25q-1.5-14.5-6-17.25t-46.5-2.75l-115.5 1q-90 0.5-129.75 2.75t-67.75 2.25q-29.5 0-88.5-3t-89-3q-15 0-21.25 4.25t-6.25 13.75q0 8 4.25 12.25t19.25 5.25q49.5 3.5 63.75 21.75t14.25 73.75z" />
<glyph unicode="&#x46;" glyph-name="F" data-tags="F" horiz-adv-x="625" d="M137 157v455.5q0 54.5-14.5 73.75t-64.5 21.25q-11.5 1-17 4.25t-5.5 13.25q0 11.5 6.75 14.5t26.25 3h9.5l62-2q13-0.5 27.25-0.75t33.25-0.25l175-1q40.5-0.5 101.75 0.5t83.75 2.5q23 2 27.75-1.5t4.75-17q0-7.5-1-26.25t-1-41.25q0-8.5 0.5-25t0.5-25q0-13-4.5-20t-14-7q-4.5 0-8 2.25t-24 43.25q-23 45-58.25 61.75t-131.75 16.75q-52.5 0-70.75-6.25t-18.25-36.75v-189.5q0-22.5 8.25-29.5t24.25-7h86q34.5 0 56.25 11.5t33.25 40.5l9 23.5q6 16 10.5 19.25t11 3.25q10 0 14.5-8t2-27.5q-5.5-44-6.75-73.75t3.75-107.75q1.5-29.5-2-35.75t-12.5-6.25q-9.5 0-15.75 6.75t-12.75 29.25l-9.5 30.5q-10 33-36.25 45.25t-74.25 12.25h-57.5q-16.5 0-24-5.25t-7.5-26.75v-207.5q0-53 15.25-72.5t79.75-23q14-0.5 18.75-4.5t4.75-13q0-9.5-6-13.75t-19.5-4.25q-25 0-74.75 3t-74.75 3q-24 0-72-3t-72.5-3q-13 0-19.75 4.25t-6.75 13.75q0 8 4 12.25t19.5 5.25q49.5 3.5 63.75 22.25t14.25 73.25z" />
<glyph unicode="&#x47;" glyph-name="G" data-tags="G" horiz-adv-x="835" d="M732 252l1-65.5q0-17 1.5-42.5t1.5-36.5q0-12.5-3-19.75t-12.5-14.75q-33.5-29-106.25-47.5t-146.75-18.5q-184 0-302.75 105.5t-118.75 261.5q0 152.5 121.25 270.25t322.75 117.75q49 0 96-8.5t86.5-23q16.5-6.5 22.5-14t7-20l2.5-24.5q5-61.5 5-62.25v-3.25q0-17-4.25-24t-14.25-7q-7.5 0-13.25 4.5t-11.25 16l-19.5 39q-23.5 47-67.5 69.5t-96.5 22.5q-133 0-218-97t-85-253q0-149 86.75-242.5t219.25-93.5q32 0 59.75 7.5t41.75 20.5q12.5 11 18.5 27.25t6 51.25v92.5q0 50-14.5 72.5t-71.5 22.5q-13 0-19.25 5t-6.25 14.5q0 10.5 7.75 14.5t25.25 4q22 0 66.5-3.25t66.5-3.25q22.5 0 67.5 3.25t67.5 3.25q15.5 0 21.5-4.75t6-12.75q0-9.5-5.25-14.25t-19.25-5.25q-46.5-1.5-60-19t-12.5-65z" />
<glyph unicode="&#x48;" glyph-name="H" data-tags="H" horiz-adv-x="872" d="M137 157v455.5q0 54.5-14.25 73t-63.75 22q-16 1.5-19.75 5.5t-3.75 12q0 9 5.25 13.25t20.25 4.25q23 0 69.5-3t70-3 69.5 3 68.5 3q16 0 21-4.25t5-13.25q0-8-4.5-12.25t-19.5-5.25q-49-3-63.25-21.75t-14.25-73.25v-169q0-9.5 3.75-13t12.75-3.5h315q9 0 11.75 2.25t2.75 14.25v169q0 54.5-14 73t-64 22q-16 1.5-19.75 5.5t-3.75 12q0 9 5.5 13.25t20.5 4.25q22.5 0 69-3t70-3 69.5 3 69 3q15.5 0 20.5-4.25t5-13.25q0-8-4.5-12.25t-19-5.25q-49.5-3-63.75-21.75t-14.25-73.25v-455.5q0-54.5 14.5-73.75t64.5-21.75q13.5-0.5 18-4.5t4.5-13q0-9.5-6-13.75t-19.5-4.25q-23.5 0-69.5 3t-69 3-69.25-3-69.75-3q-12.5 0-19.25 5.5t-6.75 12.5q0 8 4.25 12.25t19.25 5.25q53 4 65.5 24.25t12.5 71.25v212q0 12-3 15t-11.5 3h-314q-11.5 0-14.5-3t-3-13v-214q0-54.5 14.5-73.75t64.5-21.75q12-0.5 17.25-4t5.25-13.5q0-8.5-5.75-13.25t-20.25-4.75q-23.5 0-69.5 3t-68.5 3q-23 0-69-3t-70.5-3q-11 0-18.25 5.25t-7.25 12.75q0 8 4 12.25t19.5 5.25q55 4.5 66.5 26.75t11.5 68.75z" />
<glyph unicode="&#x49;" glyph-name="I" data-tags="I" horiz-adv-x="400" d="M263 633v-496.5q0-38 16.25-55.5t62.75-19.5q13-0.5 17.75-4.5t4.75-13q0-10-6.25-14t-19.75-4q-23 0-69 3t-69 3-69.25-3-70.25-3q-12 0-18.75 5.5t-6.75 12.5q0 8 4.25 12.25t19.25 5.25q48.5 4 63.25 20.25t14.75 54.75v496.5q0 38.5-15 55t-63 19.5q-16 1.5-19.75 5.5t-3.75 12q0 9 5.25 13.25t20.25 4.25q23 0 69.5-3t70-3 69.5 3 68.5 3q16 0 21-4.25t5-13.25q0-8-4.5-12.25t-19.5-5.25q-45.5-2.5-61.5-19.5t-16-55z" />
<glyph unicode="&#x4a;" glyph-name="J" data-tags="J" horiz-adv-x="453" d="M315 612.5v-451.5q0-49-9-88.25t-25.5-71.25q-37.5-72.5-115.25-132t-147.25-59.5q-37.5 0-63.5 21.25t-26 55.75q0 24 16.5 41.25t45 17.25q20.5 0 35.75-10.25t28.25-34.75q10-19.5 18.25-25.25t19.75-5.75q13.5 0 26.5 7.25t24.5 20.25q26 30 36 75t10 163.5v477q0 60-19.75 75.5t-75.25 19.5q-16 1.5-19.75 5.5t-3.75 12q0 9 5.25 13.25t21.25 4.25q24.5 0 74-3t74.5-3q24.5 0 72.75 3t72.75 3q13.5 0 19.5-4.75t6-12.75-5-12.25-18.5-5.25q-53-3.5-65.5-22.75t-12.5-72.25z" />
<glyph unicode="&#x4b;" glyph-name="K" data-tags="K" horiz-adv-x="792" d="M258 328v-171q0-46.5 11.5-68.75t67-26.75q14.5-1 18.5-4.75t4-12.75q0-8.5-6.5-13.25t-20-4.75q-23.5 0-69 3t-68 3q-23 0-69.25-3t-70.25-3q-12.5 0-19 5.5t-6.5 12.5q0 8 4.25 12.25t19.25 5.25q55 4.5 66.5 26.75t11.5 68.75v455.5q0 51-12.75 71.25t-65.25 23.75q-16 1.5-19.75 5.5t-3.75 12q0 9 5.25 13.25t21.25 4.25q22.5 0 68.75-3t69.75-3q23 0 69.25 3t68.75 3q16 0 20.75-4.25t4.75-13.25q0-7.5-5.5-12.25t-18-5.25q-44-1.5-60.75-18.5t-16.75-76.5v-212q0-6.5 4.25-8.25t8.75 3.25l203 202.5q51 51 58.25 62.25t7.25 21.75q0 12.5-9.75 17.5t-38.25 6q-15 1-21.5 5.25t-6.5 14.25q0 9.5 6.25 13.5t20.25 4q20.5 0 62.25-3t62.75-3q22 0 65 3t65 3q13.5 0 19.75-4.25t6.25-13.25q0-13-6.75-15.5t-34.25-5q-50.5-3.5-91.5-22t-106.5-83.5l-124.5-123.5q-6-6-7.75-8.75t-1.75-5.75q0-2.5 1.75-6t5.75-7.5l274-314q35.5-40.5 57-54.75t54-15.25q10.5 0 16-4.25t5.5-14.25q0-10.5-7.75-14.75t-22.25-4.25q-23 0-68 3t-67 3q-26 0-77.75-3t-77.75-3q-15.5 0-22.75 4.25t-7.25 13.75 6.75 14.5 15.75 5l28 1q15 0.5 24.25 7.25t9.25 18.75q0 8-5 18.25t-15.5 22.25l-208 241q-2.5 3-6 5t-6 2q-3 0-5.25-1t-5.25-4l-29.5-30q-3.5-3.5-5.25-7.75t-1.75-8.25z" />
<glyph unicode="&#x4c;" glyph-name="L" data-tags="L" horiz-adv-x="599" d="M263 612.5v-435q0-62 21.5-87t79-25q74.5 0 124.25 29.5t76.25 91.5q6 14.5 11.25 19t12.25 4.5q8 0 12.25-4.75t4.25-15.75v0t-10.5-84q-8-69-13.25-74.25t-14.25-5.25l-79 1q-30.5 0-107.25 2.5t-139.25 2.5q-53 0-108.5-3t-66.5-3q-18.5 0-24.25 4.5t-5.75 13.5q0 8 5.25 12.5t18.25 5q47.5 2 62.75 20.5t15.25 75v455.5q0 51.5-11.75 71.25t-67.25 23.75q-12 1-17.25 4.25t-5.25 13.25q0 10.5 7 14t22 3.5q24 0 71.75-3t71.25-3q24 0 71.75 3t71.75 3q14 0 20.75-4.25t6.75-13.25q0-8-5-12.25t-18.5-5.25q-36-2.5-50.25-7.5t-23.25-14q-10.5-9.5-14.5-24.25t-4-49.25z" />
<glyph unicode="&#x4d;" glyph-name="M" data-tags="M" horiz-adv-x="975" d="M291.5 724l195.5-482q3-7 3.75-8.25t1.75-1.25 2.5 2.25 3.5 7.25l204.5 486q4 8.5 10 11.5t22 3q15.5 0 42.75-1.5t40.25-1.5q13.5 0 41.75 1.5t42.25 1.5q14.5 0 19.5-3.75t5-13.75q0-8-3-11.75t-33-6.25q-36-2.5-48.5-16.25t-11-62.75l16.5-484.5q1.5-43 13-62t60-20q11.5 0 17-3.75t5.5-13.75-7-14-22-4h-8.75t-48.25 4q-11.5 1-24.5 1.5t-29 0.5q-30.5 0-80.5-3t-70-3q-22.5 0-30.75 3.75t-8.25 14.25q0 9 5.75 13t18.75 4.5q38.5 1.5 50.5 5.5t18.5 11q7.5 8 11.25 24.75t2.75 42.75l-12 464q0 5-1 7.5t-2 2.5q-2 0-3.75-2t-3.75-6l-206.5-490.5q-8-18.5-12.5-32t-11.5-29.5q-4-9.5-7.75-12.5t-11.25-3-11.5 2.5-8 12q-3 6.5-9 22.25t-15.5 39.25l-199 487.5q-1 2-2.25 3t-2.75 1-2.25-1.75-0.75-4.25l-19.5-437.5q-2.5-57.5 10.75-80.5t68.25-26q18.5-1 21.25-1.5t4.25-1.5q3-2 5-5.75t2-8.75q0-9.5-7.75-13.75t-28.25-4.25q-17 0-52 3t-52 3q-16 0-47.5-3t-48-3q-12 0-17.75 4.5t-5.75 12.5q0 9.5 5.75 14t17.75 4.5q46 1 59.25 18.5t16.75 72.5l29.5 470q3.5 52-8.25 68.5t-37.75 16.5q-35.5 0.5-34.75 0.25t-0.25-0.25q-9.5 2.5-14 7t-4.5 11.5q0 9.5 5.25 13t24.75 3.5q6 0 13-0.25t26-1.75q6.5-0.5 14.25-0.75t41.75-0.25q20.5 0 28.75 0.25t15.25 0.75q26.5 2 27.25 2h1.75q15 0 21.25-3.25t11.25-15.25z" />
<glyph unicode="&#x4e;" glyph-name="N" data-tags="N" horiz-adv-x="847" d="M280.5 718l384-489.5v353.5q0 38.5-2 59.5t-7.5 32.5q-6.5 14-18.25 22.25t-28.75 9.25l-27.5 2q-9.5 1-14 5t-4.5 12.5q0 10.5 5 14t20.5 3.5q16.5 0 50.5-3t51-3q16 0 48 3t48 3q12.5 0 19.25-4.25t6.75-13.25q0-8-5.25-12.25t-14.25-5.25l-27-2q-15.5-1-27.5-9.75t-18.5-21.75q-6-11.5-8-31.5t-2-61.5v-535q0-20-4.75-26.5t-13.75-6.5q-6.5 0-12.75 3.5t-30.25 34l-464 588.5 2-371.5q0.5-80 1.5-106.5t3.5-43q5-32 22-43.25t58-13.25q13.5-0.5 18-4.5t4.5-13q0-10-6-14t-19.5-4q-17.5 0-52.75 3t-52.75 3q-16.5 0-50-3t-50.5-3q-12 0-18.75 4.25t-6.75 13.75q0 8 4.5 12.25t19 5.25q38.5 3 53.25 12t20.75 29q2.5 9.5 3.75 23t1.25 31.5l1 455.5q0 16-1 31.5t-3 23q-5 19-20.25 28.5t-53.75 12q-15.5 1.5-19.5 5.5t-4 12q0 9 5.75 13.25t19.75 4.25h174.5q15 0 21.25-2.5t21.75-22z" />
<glyph unicode="&#x4f;" glyph-name="O" data-tags="O" horiz-adv-x="896" d="M447 7q-81.5 0-150.75 25t-122.25 71.5q-64.5 56.5-96.25 131t-31.75 153.5q0 78 30.75 149.75t97.25 128.25q53.5 45.5 121.5 70.75t153 25.25q86 0 153.25-25.25t119.75-72.25q63.5-56.5 95.75-131.25t32.25-152.25q0-78.5-31-150.25t-98-128.25q-53-45-122.25-70.25t-151.25-25.25zM454.5 41q51.5 0 96.5 19t81.5 60q41.5 46.5 62.25 111.75t20.75 132.75q0 68-18.25 135.25t-55.25 119.75q-37.5 53.5-87.5 80.5t-112.5 27q-55.5 0-101.25-21.25t-78.75-57.25q-40.5-44-61.25-105.75t-20.75-139.25q0-76 19-140t53.5-114q38.5-54.5 88.5-81.5t113.5-27z" />
<glyph unicode="&#x50;" glyph-name="P" data-tags="P" horiz-adv-x="673" d="M137 157v455.5q0 52.5-12.5 71.25t-50 22.75q-32 3.5-35.5 6t-3.5 12.5q0 10.5 6.25 14t19.25 3.5q24 0 71.5-2t71-2q9.5 0 21 0.25t77.5 3.75q19 1 37.5 1.5t37 0.5q134 0 202.25-55.5t68.25-145q0-91.5-64-151.25t-162.5-59.75q-26 0-52 4t-54.5 13.5q-30.5 10-33.75 10.5t-6.25 0.5q-6 0-8.5-3.5t-2.5-15v-186q0-47 13-69t80-26.5q15.5-1 19.5-4.75t4-12.75-6.5-13.5-19-4.5q-25 0-74 3t-73.5 3q-24 0-72.5-3t-73-3q-14 0-19.75 4.75t-5.75 13.25q0 9 5.75 13t17.75 4.5q44.5 2 61.25 19t16.75 76.5zM263 614.5v-183q0-14 3.5-21t14-12q16-8.5 37.5-13.5t44-5q76 0 117.5 49.25t41.5 118.75q0 76-48 117.75t-129 41.75q-31 0-48.5-7t-25.5-23.5q-4-8-5.5-22t-1.5-40.5z" />
<glyph unicode="&#x51;" glyph-name="Q" data-tags="Q" horiz-adv-x="896" d="M447 762q87.5 0 154.75-25.25t119.75-72.25q58.5-52 93.25-124.75t34.75-156.75q0-80-31-152t-98-128.5q-40.5-34-91-58t-93-30.5q-19.5-3-24-12t2.5-24q7.5-16.5 27.5-36t57.5-49q43.5-34 74.25-44.5t68.75-10.5q35.5 0 56.75 7.5t35.75 7.5q6 0 9-3.75t3-11.25q0-6-4.75-11.25t-17.75-11.25q-25.5-13-57.75-19t-72.25-6q-133.5 0-224 52.5t-90.5 128q0 5.5 1 11t2.5 9.5q2 6 1.75 8.5t-1.75 4.5-4.5 3.25-17.5 4.25q-59.5 13-105.25 35.75t-82.75 55.75q-63.5 56.5-95.75 132t-32.25 155q0 76 30.75 147.5t97.25 128q53.5 45.5 121.5 70.75t151.5 25.25zM458.5 41q54.5 0 97.75 20.75t76.25 58.25q41 46.5 62 112.5t21 135.5q0 65.5-20 134.5t-53.5 117q-35.5 50-86.25 78.75t-112.75 28.75q-51 0-98-19.75t-83-58.75q-40.5-44-61.25-105.75t-20.75-139.25q0-76 19-140t53.5-114q38-54 89-81.25t117-27.25z" />
<glyph unicode="&#x52;" glyph-name="R" data-tags="R" horiz-adv-x="719" d="M137 157v455.5q0 54.5-14.5 73.75t-64.5 21.25q-11.5 1-17 4.25t-5.5 13.25q0 11.5 5.75 14.5t20.75 3q28.5 0 86-3t86-3q16 0 69.25 3t86.75 3q68.5 0 111.75-11.5t72.25-36.5q25.5-22 40.5-54.5t15-70.5q0-71.5-49.5-116.75t-139-53.25v-4q24-2.5 41-16.5t34-45l114.5-210q19-34.5 33.75-47.75t37.75-14.75q20-1 26-4.75t6-12.75q0-8.5-6-13.25t-17.5-4.75q-12 0-34.75 1.5t-33.75 1.5q-17 0-31-1.5t-43-1.5q-14.5 0-23.25 4t-21.75 28.5l-128 245q-24.5 46.5-40 59.5t-60.5 13q-16 0-23.75-3.25t-7.75-23.25v-192.5q0-51 12.5-71.25t65-24.25q16.5-1 20.25-5.25t3.75-12.25q0-9.5-7-13.75t-20-4.25q-23 0-69 3t-69 3-69-3-69.5-3q-13 0-19.25 4.25t-6.25 13.75q0 8 4.25 12.25t19.25 5.25q49.5 3.5 63.75 22.25t14.25 73.25zM263 643v-201.5q0-20.5 6.25-25.5t30.75-5h33.5q79 0 120.5 41.5t41.5 104.5q0 65.5-39.25 108t-118.75 42.5q-44.5 0-59.5-11.75t-15-52.75z" />
<glyph unicode="&#x53;" glyph-name="S" data-tags="S" horiz-adv-x="562" d="M476 698.5l2-88q0.5-18-3.75-26t-12.75-8q-7.5 0-13 5.75t-10.5 21.25q-22.5 70-59 96.75t-90.5 26.75q-59.5 0-97.25-29.5t-37.75-78q0-44 33.5-77.25t124-70.25q68.5-27.5 96.75-44.5t48.75-36q30.5-29 47.5-65.5t17-82q0-103.5-77.5-170.25t-200-66.75q-40.5 0-75.75 6.5t-78.75 23.5q-28.5 11.5-38.5 22.75t-10 32.75v53q0 55.5 5 72.75t17.5 17.25q8.5 0 13.5-5t9.5-35q11.5-80.5 53.5-117.5t111-37q76 0 122 41.5t46 104q0 34-12.25 59t-36.75 46.5q-18.5 16-45.5 31t-85.5 39.5q-105 44.5-144.75 88.75t-39.75 106.75q0 46 20.75 87.5t58.25 69.5q30.5 22.5 72.75 34.75t102.25 12.25q37.5 0 81.25-8t66.25-19.5q11-6 15.5-12t5-24z" />
<glyph unicode="&#x54;" glyph-name="T" data-tags="T" horiz-adv-x="675" d="M125.5 742.5h458q21 0 30.5 4.5t15.5 19q7 16.5 11.5 20.5t11 4q10 0 14.5-7.5t3-30l-6-94.5q-4.5-69.5-10-75.75t-12.5-6.25-12 4-8.5 14.5l-15.5 43q-11 30.5-33 48.5t-50 18h-96.5q-13.5 0-18.5-4.5t-5-16v-527q0-52.5 13.5-71.25t53.5-22.75q33.5-3.5 36.5-7t3-12-6.5-13.25-19-4.75q-24 0-71.25 3t-71.25 3-72.5-3-72.5-3q-12 0-19 4.25t-7 13.75 4.25 13 19.75 4.5q55.5 4 69 24.25t13.5 71.25v527q0 14-8.75 17.25t-42.25 3.25q-78 0-111-21.75t-60-67.25q-16-27.5-23-33.75t-15-6.25q-7 0-11.5 5t-4.5 12.5q0 4.5 1.25 11t5.75 22l40 139q3 11 9.25 17.25t15.25 6.25q8 0 12.25-3.75t6.25-20.75q1-10.5 10.25-16t25.25-5.5z" />
<glyph unicode="&#x55;" glyph-name="U" data-tags="U" horiz-adv-x="820" d="M252.5 612.5v-348q0-75 11.5-111.5t35-60.5q23.5-25 60.25-38.25t82.75-13.25q53 0 93 14.75t69 43.75q27 27 39 59t12 89.5v364.5q0 56.5-16.5 75t-70.5 20q-11 0.5-17.25 4.75t-6.25 12.75q0 9.5 4.75 13.5t20.75 4q17 0 51-3t51.5-3q16.5 0 48.5 3t48 3q14.5 0 20-4t5.5-13.5q0-7.5-5-12t-18.5-5.5q-50-2-63-23.25t-13-71.75v-364.5q0-66.5-16.5-108.5t-56-75q-36-29.5-86.5-43.5t-124.5-14q-64 0-113.75 11t-86.25 35.5q-44 30-64.5 71.75t-20.5 119.75v367.5q0 46.5-11.5 68.75t-67 26.25q-12.5 1-17.5 4.25t-5 13.25q0 10.5 6.5 14t20 3.5q23 0 69-3t69-3q23.5 0 69.75 3t68.75 3q16 0 20.75-4.25t4.75-13.25q0-8-4.5-12.25t-19-5.25q-49.5-3-63.75-21.75t-14.25-73.25z" />
<glyph unicode="&#x56;" glyph-name="V" data-tags="V" horiz-adv-x="746" d="M225 641l181.5-422.5q9-21 10.25-22t2.75-1 2.75 1 9.75 22l148.5 363.5q12.5 30.5 18.5 51t6 33q0 19.5-16.75 30t-48.75 10.5q-17.5 0.5-25.75 4t-8.25 14.5q0 10.5 6.5 14t19 3.5q18 0 54-2t53.5-2q19 0 50.75 1.75t41.75 2.25h12q10-0.5 14.25-4.75t4.25-12.75q0-8-5.5-13t-15-5.5l-19.5-1q-32.5-1.5-50.25-27.25t-54.25-114.75l-196.5-482.5q-11.5-29-14.75-40t-8.75-22q-3.5-8-7.25-10.5t-13.25-2.5-13.25 2.5-7.25 9.5q-4 8-9 24.25t-14.5 37.75l-229.5 526.5q-30.5 70-49 85t-48 16q-11.5 1-16.25 5.25t-4.75 12.25q0 9.5 5.5 13.5t18.5 4q22.5 0 66.75-3t66.25-3 66.5 3 66.5 3q19.5 0 27.25-3.5t7.75-15q0-7-1.5-10t-5.5-5q-3-1.5-6.5-2.5t-33.5-2q-24.5-0.5-35.75-8t-11.25-24.5q0-4.5 2.25-12.5t6.75-18.5z" />
<glyph unicode="&#x57;" glyph-name="W" data-tags="W" horiz-adv-x="1094" d="M221 645.5l212-452q4-8.5 5.75-10.75t3.25-2.25q2 0 4 2.5t5.5 9.5l86 177.5-122 264q-18 39-34.75 53.25t-43.25 18.25q-14 2.5-18.25 7t-4.25 12.5q0 9 6.75 13.25t25.25 4.25 55.25-2.5 55.25-2.5q16.5 0 49.5 2.5t50 2.5q19.5 0 26.5-5t7-15.5q0-9.5-6-14t-23-5q-20.5-0.5-28.5-6.5t-8-18.5q0-6 2.25-13.5t11.25-26.5l60.5-130q5.5-12.5 6.25-13.5t1.75-1 2.5 2 6.5 12.5l54.5 109.5q10.5 21 15.5 36t5 26.5q0 9.5-9.25 15.5t-24.75 7l-14 1q-13.5 1-18 6t-4.5 13.5q0 9.5 6.5 14.5t20 5q15 0 43.5-2t42.5-2q1.5 0 0.25 0t70.25 4q5 0.5 7.5 0.5t5-0.5q9-1 13.75-5.75t4.75-12.75q0-9.5-7.5-14.75t-25.5-5.75q-27 0-45.25-20.75t-49.75-83.75l-78-153.5 115.5-252q4-7.5 5.75-10.25t3.75-2.75q1.5 0 3.75 2.75t5.25 10.25l161 379q21 49 28.25 70.75t7.25 34.75q0 13.5-10.5 20t-37.5 7q-22 0.5-26.25 5t-4.25 14q0 11.5 5.5 15t19 3.5q14.5 0 44.25-2t44.75-2q18 0 38 1t46 3q5 0.5 7.5 0.5t5-0.5q7.5-1.5 12.75-6.25t5.25-11.25q0-7.5-4-12.5t-15-7l-25-4q-26.5-4.5-44-24.75t-62.5-126.75l-216-511q-11.5-27-15.5-30t-12-3q-10.5 0-15.5 5.75t-15 28.25l-115 264.5q-2.5 5.5-4.5 8.25t-3.5 2.75-3.25-2.25-5.25-8.75l-129-263.5q-12-24.5-17.25-29.75t-11.25-5.25-11.75 5.5-16.75 28.5l-269.5 578.5q-22.5 48.5-35.75 63.75t-29.75 18.25l-21.5 4q-16 3.5-20.5 7.75t-4.5 12.75q0 7.5 7.25 12.5t19.75 5q19 0 55.25-3t54.25-3q19.5 0 58.75 3t59.25 3q23 0 29.25-5t6.25-14.5q0-10-5.75-14.25t-30.75-5.25q-15.5-0.5-22.75-6t-7.25-17.5q0-4.5 1.5-9.5t11-25z" />
<glyph unicode="&#x58;" glyph-name="X" data-tags="X" horiz-adv-x="796" d="M304 635l114.5-156.5q3-4 7.25-4.25t7.25 4.25l95 137q24.5 35.5 29.75 46.25t5.25 18.25q0 13-6.75 18.75t-26.25 6.75l-17 1q-26 1.5-32 6t-6 13.5q0 8 4 12t13.5 4.5h9q16-0.5 60-2.25t70-1.75q19.5 0 58.75 2t59.25 2q13.5 0 20.5-3.25t7-14.25q0-10.5-8-14t-28-4.5q-50-2-82-21.25t-76.5-77.75l-130-170 221-301q37-51 51-61t35-13q23.5-3 27.25-7t3.75-12.5q0-9-6.25-13t-25.75-4q-22 0-66 3t-66 3q-22.5 0-68-3t-68.5-3q-16 0-24.25 4.75t-8.25 14.25q0 8.5 5.25 13.25t14.25 5.25q2.5 0.5 5 0.5t15.5-0.5q25.5-0.5 37.25 5.75t11.75 18.75q0 7.5-4 16.5t-20.5 32l-144.5 196.5q-5 7-6.75 6t-5.25-6l-131.5-182.5q-12-16.5-18.75-31.5t-6.75-24.5q0-16 14-24t40.5-8q31.5 0 39.75-3.75t8.25-15.75q0-9-7-13t-23.5-4q-22.5 0-66.75 2.5t-66.75 2.5q-42.5 0-74.75-2.5t-36.75-2.5q-10.5 0-16.5 4.25t-6 12.75q0 9.5 5 13.75t33 6.75q46 4.5 74.25 29.75t65.75 75.75l154 208-181.5 236.5q-40 52.5-63.5 71.75t-55 22.25l-21.5 2.5q-10 0.5-14.25 4.25t-4.25 10.75q0 8.5 6.25 13t25.25 4.5q22.5 0 68-2.5t68.5-2.5q28 0 85 2.5t86 2.5q17 0 23.75-4.75t6.75-13.75q0-10-8-14.75t-29-4.75h-17q-20.5-0.5-30.25-6.5t-9.75-17q0-6.5 5.5-18t18-28z" />
<glyph unicode="&#x59;" glyph-name="Y" data-tags="Y" horiz-adv-x="761" d="M256 646.5l155.5-231.5q11.5-17.5 14.5-17.5t14 17.5l111.5 173q36.5 56 41.5 67t5 19q0 15.5-10.75 22.75t-34.75 8.75l-31.5 2q-12 1-17.25 5.5t-5.25 12q0 8.5 6.75 13t18.75 4.5q21.5 0 63-3t62-3q17.5 0 53.25 3t54.25 3q10.5 0 15-5t4.5-13.5q0-7.5-4.75-11.75t-17.75-4.75q-44-1.5-72.25-24.75t-73.25-88.75l-156.5-229.5q-5-7-7.25-14t-2.25-25.5v-168q0-51 12.75-71.25t65.25-24.25q16.5-1 20-5.25t3.5-12.25q0-9.5-6.75-13.75t-18.75-4.25q-23.5 0-69.75 3t-69.75 3q-23 0-69-3t-69-3q-13.5 0-19.5 4.25t-6 13.75q0 8 5.25 12.5t18.25 5q47 2 62.25 20.5t15.25 75v162.5q0 13-2 19.75t-9 17.25l-199 293q-19.5 29-37.75 41.5t-48.25 14.5q-21.5 2-28.25 6.5t-6.75 13q0 9.5 7 13.5t22 4q24 0 71.75-3t71.75-3q24.5 0 73.25 3t73.25 3q20 0 26.25-4t6.25-13.5q0-8-4.75-12.5t-33.75-6q-44-2.5-50.75-8.5t-6.75-17q0-6 2-12.25t13.5-22.25z" />
<glyph unicode="&#x5a;" glyph-name="Z" data-tags="Z" horiz-adv-x="705" d="M481 702.5h-136q-105.5 0-145.75-19.25t-68.25-65.75q-12-19-18-24.25t-14-5.25q-6.5 0-10.5 4t-4 11.5q0 5 2.75 16.5t7.75 27.5l17.5 56q8.5 28 14.25 51.75t8.25 28.25q3 5.5 7.25 8.5t10.25 3q9 0 13.5-4.75t6-16.75q1.5-16.5 15.25-23.75t36.75-7.25h407.5q30 0 33.5-2.75t3.5-8.25q0-3.5-2.5-9t-7-11.5l-446.5-620.5q-10.5-15-7.5-20t20-5h128q133 0 171.5 8.75t59 28.25q11.5 11.5 21.75 32.75t26.25 70.75q4.5 14.5 8.25 17.5t10.25 3q9.5 0 14-5.5t4.5-24v-138.5q0-18.5-4.75-26t-17.75-7.5q-7.5 0-51 2t-100.5 2.5q-47.5 0-172-1.75t-261.5-1.75h-14q-14 0-17.5 8.25t8 24.25l451.5 625.5q4 5.5 5.75 9.5t1.75 7q0 1-1.75 1.5t-13.75 0.5z" />
<glyph unicode="&#x5b;" glyph-name="bracketleft" data-tags="bracketleft" horiz-adv-x="328" d="M87-146v841.5q0 39.5 4.5 53t30 13.5h172q15 0 22-5.5t7-15q0-10.5-8.75-16t-35.25-5.5q-7 0-21 0.5t-21 0.5q-33.5 0-43.5-9.5t-10-36.5v-797q0-32 11.25-40.75t42.25-8.75q16.5 0 25.25 0.25t16.75 0.75q10.5 1 15 1t8.5-1q9.5-1.5 15-7t5.5-14.5q0-9.5-6.75-15t-22.25-5.5h-172q-25.5 0-30 13.75t-4.5 52.75z" />
<glyph unicode="&#x5c;" glyph-name="backslash" data-tags="backslash" horiz-adv-x="497" d="M438-232l-407.5 965.5 58.5 24.5 407.5-965z" />
<glyph unicode="&#x5d;" glyph-name="bracketright" data-tags="bracketright" horiz-adv-x="328" d="M240.5 696.5v-842.5q0-39-4.5-52.75t-30.5-13.75h-173q-15.5 0-21.5 5.5t-6 15q0 9 5.25 14.5t14.25 7q3.5 1 8 1t15.5-1q7-0.5 14.5-0.75t28.5-0.25q33 0 43 10t10 36v797.5q0 29.5-9.5 39.25t-43.5 9.75q-7 0-21.5-0.5t-21.5-0.5q-26 0-34.5 5.75t-8.5 16.75q0 10 6.75 14.75t20.75 4.75h173q25.5 0 30.25-13.5t4.75-52z" />
<glyph unicode="&#x5e;" glyph-name="asciicircum" data-tags="asciicircum" horiz-adv-x="514" d="M257 657.5l-142.5-191.5h-84l226.5 304 226-304h-84z" />
<glyph unicode="&#x5f;" glyph-name="underscore" data-tags="underscore" horiz-adv-x="577" d="M5-240v64.5h566v-64.5h-566z" />
<glyph unicode="&#x60;" glyph-name="grave" data-tags="grave" horiz-adv-x="292" d="M190 627l-189 67.5q-22 8-31.75 19t-9.75 27q0 17.5 11 27.75t28.5 10.25q8.5 0 16.25-2.25t19.25-9.25l174-103.5q30-17.5 36-24.25t6-12.25q0-6-3.5-9.25t-9.5-3.25q-7.5 0-17.25 2.5t-30.25 10z" />
<glyph unicode="&#x61;" glyph-name="a" data-tags="a" horiz-adv-x="586" d="M470 449.5l-9.5-293.5q-1.5-45.5 6.5-63.25t27.5-17.75q8.5 0 17.25 3.75t18.25 11.75l14.5 11h3q7 0 11.25-3.25t4.25-7.75q0-6.5-7.25-16.5t-17.25-18.5q-29-26-53.5-36.75t-50-10.75q-34 0-54.75 20.25t-30.25 57.75q-1.5 5.5-3 7.5t-3 2q-2 0-5.5-2.25t-11-9.25q-45-38.5-88.25-58.25t-85.75-19.75q-45.5 0-73 24.25t-27.5 68.25q0 52 54.25 93.75t216.25 105.75q13.5 5.5 19.75 11.25t6.75 23.75l3 109.5q1.5 47.5-13.75 66.75t-50.75 19.25q-40.5 0-68.75-21t-46.75-68q-10.5-26-22.5-36.5t-29-15l-24.5-6q-26.5-6.5-38.75-3t-12.25 18.5q0 21.5 18.75 49.5t49.75 51q43 32 94.25 48.25t104.25 16.25q78.5 0 118.5-28.25t38.5-84.75zM347 192.5l2 61.5q0 8.5-2 11.5t-6.5 3q-2.5 0-8-1.5t-14.5-4.5q-63.5-22.5-100.75-54.5t-37.25-69.5q0-26 13.5-42.75t42-16.75q45.5 0 77.5 30.75t34 82.75z" />
<glyph unicode="&#x62;" glyph-name="b" data-tags="b" horiz-adv-x="664" d="M93 120v530.5q0 31.5-7.25 46t-24.75 15.5l-16 1q-13 0.5-19 4.25t-6 10.75 5.25 11.25 24.75 8.25q34 7 57 14.75t49.5 19.25q37 16.5 37.25 16.5h0.75q5.5 0 8.75-5.75t3.25-41.75v-231q0-17.5 0.5-18t1-1.5q2.5-2 5.5-2.25t10.5 4.25l24.5 14q55 32.5 79.75 39.5t56.75 7q104 0 173.25-76.5t69.25-182.5q0-127-88.25-212.25t-211.75-85.25q-40 0-72.75 8.75t-89.25 40.75q-13.5 8-20 0.75t-21-38.25q-5.5-12.5-11.25-17.5t-13.25-5q-10.5 0-14.25 6.5t0.25 37q5.5 49 6.25 60t0.75 21zM206.5 412v-255q0-63 28-90.5t78.5-27.5q82.5 0 138 68.25t55.5 173.25q0 94.5-51.25 157.5t-128.75 63q-20 0-41.5-6.5t-43.5-19q-18-10.5-26.5-23t-8.5-40.5z" />
<glyph unicode="&#x63;" glyph-name="c" data-tags="c" horiz-adv-x="562" d="M520 477.5l-6-51.5q-2-15.5-8-23t-16-7.5q-10.5 0-18.25 5.75t-25.75 37.25q-30.5 53-55.5 71.5t-59 18.5q-71 0-123-69t-52-161.5q0-100.5 62.75-167.5t155.25-67q34.5 0 63.75 11.5t59.25 34.5q8 6.5 12.5 8.5t9 2q5 0 7.5-2.5t2.5-9q0-5.5-3-11.5t-13-16q-39.5-37.5-91.5-56.25t-110.5-18.75q-119 0-197.25 74t-78.25 191.5q0 118.5 91.75 204.75t221.75 86.25q42.5 0 87.75-11.5t68.75-30.5q10-8.5 13.25-17t1.25-26z" />
<glyph unicode="&#x64;" glyph-name="d" data-tags="d" horiz-adv-x="671" d="M574 758v-637q0-26.5 4.5-34.25t13-7.75q5 0 10.25 3.5t12.25 12q14.5 16 20 20.75t10 4.75q5.5 0 8.5-3.5t2.5-11l-1-25.5q0-6.5-4-11.25t-13.5-8.25l-134-48.5q-17-6.5-25.25-3t-9.75 18l-4 40.5q-1 10-5.5 12t-12-4.5q-35.5-32-80-50.5t-91-18.5q-101 0-170.25 76t-69.25 194.5q0 130.5 86.5 208.25t202.5 77.75q29.5 0 53.75-5t64.75-22q11.5-4.5 14.5-3.5t3 12v106.5q0 34.5-7 47.75t-32 14.25q-20.5 1-26.5 4.75t-6 10.75 5 11.25 24.5 8.25q31 6.5 55.5 14.5t51 19.5q38 16.5 37.25 16.5t-0.25 0q6 0 9-4.25t3-35.75zM460.5 150.5v250q0 68-33.75 98t-92.25 30q-77.5 0-127.75-64.5t-50.25-169q0-100.5 53-162.25t134.5-61.75q46.5 0 81.5 22t35 57.5z" />
<glyph unicode="&#x65;" glyph-name="e" data-tags="e" horiz-adv-x="571" d="M510.5 364.5h-320.5q-20 0-26.75-11.5t-6.75-53q0-101 58-164.5t143.5-63.5q36.5 0 69 10.5t56 28q34 26 36.75 27t5.25 1q4.5 0 8-3.25t3.5-8.25q0-7.5-5-16t-14.5-18.5q-41-43-92.5-64.75t-118.5-21.75q-116 0-193.25 79.5t-77.25 198.5q0 122.5 82.5 200.5t207.5 78q59.5 0 103.25-19.75t73.75-58.25q16.5-21.5 27.25-48t10.75-46q0-13.5-7.25-19.75t-22.75-6.25zM202.5 396.5l94 1q79.5 1 102.75 15.25t23.25 42.25q0 28.5-27.75 51t-73.25 22.5q-34.5 0-65.75-14.25t-53.25-39.75q-12-14.5-19.75-31t-7.75-29.5q0-10 6-13.75t21.5-3.75z" />
<glyph unicode="&#x66;" glyph-name="f" data-tags="f" horiz-adv-x="396" d="M231 472v-334.5q0-26.5 5.75-41.5t17.75-23q6-4 15.25-6.5t41.25-5q14-1 20.75-5.25t6.75-12.25q0-10.5-6.75-14.25t-26.75-3.75-60 2-60 2-60.5-2-60-2q-20 0-27 4.25t-7 13.75q0 7.5 6.25 11.75t22.25 5.75q12.5 1 24.75 4.25t17.25 7.25q8.5 6 12.5 21.25t4 43.25v323.5q0 20.5-5.75 28.75t-18.75 8.25h-28.5q-12.5 0-16 3.5t-3.5 10.5q0 9.5 6 15t27.5 8.5q20 3 29.25 12t11.75 39.5q8 98.5 77.75 153.25t161.75 54.75q45 0 74.25-15.5t29.25-40q0-18-15.5-46t-30.5-27.5q-9 0-15.5 4.75t-21.5 28.75q-19.5 32-34.75 43.75t-34.75 11.75q-39 0-59-36.25t-20-121.75q0-36 3-45.5t17.5-9.5h114q10 0 13-2.75t3-9.75l1-18.5q0.5-7.5-1.25-10.25t-14.75-2.75h-107.5q-18 0-23-5.5t-5-20.5z" />
<glyph unicode="&#x67;" glyph-name="g" data-tags="g" horiz-adv-x="595" d="M447 520.5l104.5 2q10 0 14.25-3t6.25-14.5l4.5-21.5q1.5-9.5-2.75-14t-12.75-4.5l-71 1-3-4q13.5-22 19.75-44.75t6.25-44.25q0-73-54.25-126.25t-154.75-62.25q-86.5-8-112-17t-25.5-21q0-12.5 22.5-24.25t59.5-11.75q20 0 49.25 2.25t66.75 2.25q106 0 160.5-33t54.5-100q0-85-88.75-148.5t-239.25-63.5q-111.5 0-174 37.75t-62.5 94.75q0 23.5 13.25 43.5t43.25 38.5q7.5 4.5 24 13.5t30 17q9.5 5.5 14 9.5t4.5 7.5q0 0.5-0.25 1.5t-50.75 44.5q-19.5 16.5-30.25 29.5t-10.75 21.5q0 5.5 3.75 9.75t50.25 24.25q52.5 22.5 61.25 26.5t17.75 8.5q-74.5 27.5-106.75 66.5t-32.25 99q0 82 61.75 140.5t171.75 58.5q43.5 0 81-9.75t86.5-32.25zM280.5 528.5q-50 0-83.5-43t-33.5-111.5q0-73 34.25-114.25t84.75-41.25q51.5 0 82 38.5t30.5 106.5q0 71.5-31 118.25t-83.5 46.75zM346 15l-57.5-2q-37.5-1.5-66.25-1.25t-37.25-0.75q-14.5-2-24.75-7.5t-20.25-16q-12.5-14-18.5-30.25t-6-35.25q0-48 43.25-83t119.75-35q89.5 0 144.5 35.75t55 91.25q0 37-33 61.75t-99 22.25z" />
<glyph unicode="&#x68;" glyph-name="h" data-tags="h" horiz-adv-x="706" d="M226 776.5v-287q0-11.5 0.75-12.25t2.25-0.75q3 0 7 1.75t7.5 4.25q49.5 38 59.75 44.25t20.25 11.25q25 12 49.75 18.25t49.25 6.25q83 0 131.75-51.25t48.75-147.75v-226q0-45.5 11.5-59t48-17q15-1.5 21.25-6t6.25-11.5q0-9.5-7.25-13.75t-27.75-4.25q-18 0-54 2t-54.5 2q-17 0-51.25-2t-51.25-2q-22 0-28.75 4t-6.75 14q0 7.5 4 11.25t23.5 6.25q34.5 5 43.75 18.25t9.25 57.75v214q0 77.5-30.25 114t-92.25 36.5q-51.5 0-96-30.25t-44.5-77.25v-257q0-46 10.25-59.25t43.25-16.75q17-2 22.75-6t5.75-11.5q0-9.5-7.25-13.75t-26.75-4.25q-17 0-51.75 2t-52.75 2-54.5-2-55-2q-20.5 0-27.5 4t-7 14q0 8 5.75 12t21.75 5.5q36.5 4 48 17.25t11.5 58.75v489.5q0 32-8.75 46t-43.75 16.5q-20 1-23.25 4t-3.25 10q0 6.5 3 10t14.5 7.5q20 7 43.5 17.5t94.5 50q8.5 5 14.25 7.25t9.25 2.25q6.5 0 10-6t3.5-15.5z" />
<glyph unicode="&#x69;" glyph-name="i" data-tags="i" horiz-adv-x="338" d="M233 530.5v-393q0-42.5 10.5-56t38-18q29-4.5 34-8.75t5-11.75q0-9-7.75-13t-29.25-4q-17.5 0-53.25 2t-53.25 2q-19 0-56-2t-55.5-2q-19 0-26 4.5t-7 13.5q0 6.5 4.75 10.75t13.75 5.75l20.5 3q30 4.5 39 20.25t9 53.75v249.5q0 34-10.75 44.75t-37.25 10.75h-10.5q-10 0-13.5 3.75t-3.5 10.75q0 6.5 4 10.75t22.5 9.75q28.5 8.5 55 23.5t76 57q5.5 5 10 6.75t10.5 1.75q5 0 8-2t3-34zM104 697.5q0 29 20.5 49.25t49.5 20.25 49.25-20.25 20.25-49.25-20.25-49.25-49.25-20.25-49.5 20.25-20.5 49.25z" />
<glyph unicode="&#x6a;" glyph-name="j" data-tags="j" horiz-adv-x="325" d="M231 519.5v-461q0-97.5-30-147.5t-112-113q-21-16-32.75-22t-24.75-6q-10 0-13.25 3.25t-3.25 9.25q0 10 25.5 33t38 41q20.5 28.5 29.75 69.25t9.25 102.25v359q0 34-10.5 44.5t-36.5 11h-11.5q-8.5 0-13 3.75t-4.5 10.75q0 6 4 10t23 10.5q58 19.5 99.75 55.25t30.25 26.75q5 4 9 5.5t9.5 1.5q9 0 11.5-5.5t2.5-41.5zM103 697.5q0 29 20.5 49.25t49.5 20.25 49.25-20.25 20.25-49.25-20.25-49.25-49.25-20.25-49.5 20.25-20.5 49.25z" />
<glyph unicode="&#x6b;" glyph-name="k" data-tags="k" horiz-adv-x="652" d="M226 757v-429q0-9.5 4.25-11t11.25 3.5l123 93.5q30 23 50.25 42.75t20.25 28.75q0 7-6.5 12.75t-18 7.75q-9 1.5-17 1.5t-19 1.5q-7 1-10.75 5.25t-3.75 11.25q0 8.5 7 12.5t33 4q18 0 54-2t53.5-2q13.5 0 40 2t40 2q19.5 0 27.75-4.25t8.25-13.25-7.5-13.5-23.5-5q-30.5-1-70-20.75t-80.5-52.75l-68.5-55.5q-6-4.5-7-8.5t5-12l185.5-246q18-24 31.25-35.5t37.25-14q11-1.5 16.25-5.5t5.25-12.5q0-9-7-13t-24-4q-16.5 0-50.25 2t-50.75 2q-18 0-53.75-2t-52.75-2q-18.5 0-24.25 3.75t-5.75 12.25q0 7 5.25 11.5t15.25 5q22 1.5 26.25 15.25t-8.75 31.75l-135 183.5q-5.5 7.5-10.75 8.75t-11.75-3.75l-26-19.5q-3.5-2.5-5.25-6.25t-1.75-9.25v-121.5q0-44 13-58t46.5-18q17.5-2 22.5-5.75t5-10.75q0-10.5-7.25-14.75t-26.25-4.25q-18.5 0-55.5 2t-55.5 2q-18 0-54.5-2t-55-2q-19 0-26.25 4.5t-7.25 14.5q0 7 5 10.75t22.5 5.75q33.5 4 46.5 18t13 58v513q0 34.5-7.25 47.75t-32.25 14.25q-19.5 1-26 4t-6.5 11.5q0 8 4.5 11.75t24.5 7.75q35 7.5 57.75 15t48.75 19q36.5 16.5 36.75 16.5h1.25q6 0 9-4.25t3-36.75z" />
<glyph unicode="&#x6c;" glyph-name="l" data-tags="l" horiz-adv-x="338" d="M226 757v-619.5q0-38.5 10.5-54.75t49-21.25q16-2 21.25-5.5t5.25-11q0-10.5-6.25-14.75t-26.25-4.25q-18 0-55 2t-56 2q-18 0-54.5-2t-55-2q-19 0-26.25 4.5t-7.25 14.5q0 7 5 10.75t22.5 5.75q33.5 4 46.5 18t13 58v514q0 33-8 46.5t-32 14.5q-21 1-27 4.75t-6 10.75 5.25 11.25 24.75 8.25q34 7 57 14.75t49.5 19.25l37 16.5h1q6 0 9-5.75t3-35.25z" />
<glyph unicode="&#x6d;" glyph-name="m" data-tags="m" horiz-adv-x="1039" d="M118.5 137.5v252q0 28-8.5 41.5t-38.5 13.5h-11.5q-7.5 0-12.25 4.25t-4.75 10.25q0 5 3.25 9t23.25 12.5q39 16 64.75 29.75t66.25 51.25q5.5 5 9 6.5t7.5 1.5q7 0 10-3.5t3-21v-55.5q0-4.5 1.5-6.75t5-2.25q0.5 0-0.25-0.25t49.25 32.75q42 28 73.75 38.75t63.25 10.75q49.5 0 89-23.25t63.5-71.25q42 45.5 88.5 70t93 24.5q33.5 0 66.25-10.25t54.75-26.75q32-24 45.5-55.25t13.5-91.25v-241.5q0-49.5 13-61.25t45.5-14.75q16-1.5 22.5-5.75t6.5-11.75q0-10-7.25-14t-25.75-4q-18 0-54.25 2t-54.25 2-53.5-2-53-2q-18.5 0-25.75 4t-7.25 14q0 7.5 6.75 12t22.25 5.5q34 2 42.5 19.25t8.5 56.75v232.5q0 68-29.5 100.5t-82 32.5q-51.5 0-89.25-34.5t-37.75-93.5v-237.5q0-41.5 9.75-57.5t40.25-18.5q15.5-1 22.25-5.5t6.75-12q0-10-7.25-14t-24.75-4q-17 0-51.5 2t-52 2-52-2-51.5-2-24.25 4-7.25 14q0 8 7.25 12.25t20.25 5.25q31 2.5 40.75 18.5t9.75 57.5v225q0 77-25.5 108.75t-82 31.75q-37 0-67.25-16.75t-48.75-43.75q-8.5-12.5-12-24.75t-3.5-31.75v-248.5q0-35.5 6.5-49t19.5-19.5q6.5-3.5 18.25-5.25t17.25-3.25l8.5-2q4-1 7-5.25t3-9.25q0-9.5-7-13.75t-24.5-4.25q-18 0-53.5 2t-53 2q-18.5 0-55-2t-54.5-2q-19.5 0-25.75 4.25t-6.25 13.75q0 6.5 4.5 11t13 5.5l20.5 3q30 4.5 39 20.25t9 53.75z" />
<glyph unicode="&#x6e;" glyph-name="n" data-tags="n" horiz-adv-x="714" d="M119.5 137.5v252q0 30.5-9.5 42.75t-38.5 12.25h-10.5q-8 0-12.5 3.75t-4.5 10.75q0 6 3.75 10.25t22.75 11.25q35.5 13 65.25 30t66.75 51q5.5 5 9.25 6.5t8.25 1.5q7 0 10-6t2-36l-1-34q0-9.5 1.75-13.25t6.75-3.75q1 0 2.25 0.25t47.75 35.25q34 26 69.75 38.25t70.75 12.25q35.5 0 64-9.5t50.5-26.5q34.5-26 50.5-61.75t16-101.25v-226q0-49.5 12.75-61.25t45.75-14.75q16-1.5 22.25-5.75t6.25-11.75q0-10-7.25-14t-25.25-4-54.75 2-54.75 2-53-2-52.5-2q-19 0-26 4.25t-7 13.75q0 8 6.75 12.25t22.75 5.25q32.5 2 41.5 18.25t9 57.75v214q0 76.5-31 113.5t-92 37q-55 0-98.25-32t-43.25-75.5v-257q0-38.5 9.25-54t35.25-20l18-3q8.5-1.5 13-5.75t4.5-10.75q0-9.5-6.25-13.75t-25.25-4.25q-18 0-53.5 2t-53 2q-18.5 0-55.5-2t-55-2q-17.5 0-24.75 4t-7.25 14q0 6.5 5 11t13.5 5.5l20.5 3q30 4.5 39 20.25t9 53.75z" />
<glyph unicode="&#x6f;" glyph-name="o" data-tags="o" horiz-adv-x="669" d="M331.5 6q-59.5 0-112.75 18.5t-94.25 56.5q-39 36.5-64 91t-25 111 25.75 111.25 64.25 91.25q41.5 38.5 95.75 57.75t113.25 19.25q59.5 0 113-19t95-57q43.5-40 66.75-93.25t23.25-106.25q0-54.5-22.75-108.25t-68.25-95.75q-42.5-39-96-58t-114-19zM335.5 39q37 0 73.75 19.75t60.75 54.25q20.5 29.5 31.25 73.25t10.75 91.25q0 50.5-11.5 95t-34 78q-26 40.5-61.25 59.25t-75.75 18.75q-42 0-74.75-19.25t-56.25-54.25q-22.5-33-32.25-72.25t-9.75-90.75q0-56 10.5-97.5t30.5-73.5q24-39 59-60.5t79-21.5z" />
<glyph unicode="&#x70;" glyph-name="p" data-tags="p" horiz-adv-x="684" d="M102-110v529q0 30-7.25 45.75t-25.25 15.75h-19.5q-11.5 0-17.5 3.75t-6 11.75 5 12.75 18.5 7.25q45.5 9.5 67.75 19.25t48.75 28.25q19 13 25.25 16.25t10.75 3.25q7 0 10-6.5t2.5-32.5l-1-49.5q-0.5-6 2.25-9.5t7.75-3.5q1 0 2 0.25t25.5 19.25l27 20.5q27 21 57 31t66.5 10q53.5 0 97.75-18.25t76.75-51.75q32.5-34 52-83t19.5-107.5q0-133.5-83.25-214.75t-210.75-81.25q-26 0-57 6t-60.5 17q-13 4.5-16.75 0.75t-3.75-16.75v-123q0-38 13.25-53.75t38.75-18.75l26.5-3q15.5-2 21.75-5.75t6.25-11.75q0-11.5-7.5-15.5t-34.5-4q-18.5 0-55.75 2t-56.25 2q-19.5 0-59.25-2t-59.25-2q-20.5 0-27.75 4.5t-7.25 15q0 7.5 5.75 11t22.25 5.5q33 4 46 18t13 58.5zM216 389.5v-217.5q0-45 5.5-62.5t18-31.5q16-18.5 44.25-28.75t55.75-10.25q81.5 0 134.5 66.5t53 171q0 95.5-50.75 159.5t-129.25 64q-54.5 0-92.75-30t-38.25-80.5z" />
<glyph unicode="&#x71;" glyph-name="q" data-tags="q" horiz-adv-x="666" d="M568 429v-540q0-38.5 9-54.5t50.5-21q18.5-2.5 23-6.5t4.5-11q0-10.5-6.5-14.5t-31.5-4q-18.5 0-56.75 2t-57.75 2-58-2-57.5-2q-25 0-32 4.25t-7 14.25q0 8 5 11.5t22.5 6q46 5 62.5 17.25t16.5 58.25v143q0 20.5-4.25 23.5t-14.25-1q-4-1.5-8-3.75t-17.5-9.75q-10.5-5.5-19-9.75t-16-7.25q-21.5-9-43.5-13.5t-45.5-4.5q-106.5 0-178.75 74t-72.25 192.5q0 133.5 89.5 211.75t205.5 78.25q38.5 0 80.25-9.5t83.75-27.5q15.5-6.5 21.5-3.5t35.5 41.5q11.5 14.5 22.25 12t10.75-15q0-6-4.75-21.25t-7.75-33.25q-2-12-3-34t-1-43zM454.5 145.5v272.5q0 54.5-26 82.5t-80.5 28q-81 0-136.25-70.25t-55.25-169.25 53.5-165.75 139-66.75q21.5 0 37.75 4.75t33.75 15.75 25.75 23.25 8.25 45.25z" />
<glyph unicode="&#x72;" glyph-name="r" data-tags="r" horiz-adv-x="465" d="M119.5 137.5v255q0 34-10.75 44.5t-37.25 10.5h-10.5q-10 0-13.5 3.75t-3.5 10.75q0 6 3.75 10.25t21.75 10.25q22.5 7.5 48.75 23t77.25 58q5.5 4.5 9.5 6.25t9 1.75q6.5 0 10.25-3.75t3.75-11.75q0-20-1-29t-1-50.5q0-11 1.5-14.25t4.5-3.25q2 0 5 2.5t20 21l20.5 22.5q23 25.5 48.75 38.75t53.25 13.25q36.5 0 58.25-19t21.75-51.5q0-28-19-45.25t-45.5-17.25q-15 0-28.25 6.75t-23.75 19.75q-16 19.5-22.25 22.75t-14.75 3.25q-29 0-51-38t-22-92v-209q0-41 16.25-55t53.75-19l22.5-3q8.5-1 13.5-5.75t5-10.75q0-9.5-7.5-13.75t-25.5-4.25q-22 0-65.25 2.5t-64.75 2.5q-19 0-57.5-2.5t-58-2.5q-18 0-25.5 4.5t-7.5 13.5q0 7 4 11t13.5 5.5l21.5 3q29.5 4.5 38.75 21.25t9.25 52.75z" />
<glyph unicode="&#x73;" glyph-name="s" data-tags="s" horiz-adv-x="462" d="M401 512l-1-48q-0.5-22.5-4.75-31.75t-12.75-9.25h-11.5l-21 38q-21.5 38-45.75 54.25t-62.75 16.25q-46.5 0-73-22.75t-26.5-53.75q0-28 20.25-49.25t82.25-43.25l55.5-19.5q70.5-25 100.75-62.25t30.25-91.25q0-77-63.5-130.25t-162-53.25q-66.5 0-121 19.5t-54 50.5l1 61.5q0.5 33 5.5 43.5t15 10.5q8 0 14-7.25t18.5-49.75q17-56.5 47-77.5t80-21q51.5 0 88.25 26t36.75 72.5q0 38-23.5 63t-80 44.5l-56 19.5q-67 23-99 58.25t-32 82.75q0 71.5 58.25 115.75t146.25 44.25q28.5 0 62-4.75t63-13.75q17-5 21.5-11t4-21z" />
<glyph unicode="&#x74;" glyph-name="t" data-tags="t" horiz-adv-x="421" d="M233 647.5v-87q0-9.5 5.75-14t15.75-4.5h104.5q8.5 0 12.75-3.5t3.75-10l-1-18.5q-0.5-6-4-9t-12.5-3h-105.5q-9.5 0-14.5-5.25t-5-15.25v-280.5q0-77.5 15.5-104t45-26.5q11.5 0 24.25 4.5t45.75 26.5q11.5 7.5 19 5.75t7.5-10.75q0-7.5-8-18.5t-25-25.5q-24-21.5-54.25-32t-64.25-10.5q-60.5 0-89.75 37t-29.25 104.5v332q0 14-3.75 17.25t-11.75 3.25h-35.5q-10 0-13.75 3t-3.75 9q0 5.5 3.25 10t32.75 19q31.5 15.5 56 37t43 54q16.5 28.5 20.75 32.25t12.25 3.75q8.5 0 11.25-4.75t2.75-15.75z" />
<glyph unicode="&#x75;" glyph-name="u" data-tags="u" horiz-adv-x="658" d="M567 487.5v-340q0-32 6-44.25t25-12.75l25.5-1.5q9.5 0 13.5-3.5t4-10.5q0-6-3.75-10t-30.25-10.5q-30-8-56.75-18.25t-56.75-26.25q-7-4-11.5-5.75t-8-1.75q-7.5 0-10.75 6t-2.75 19.5l1 36.5q0.5 20.5-1.5 23.25t-6.5 2.75q-2.5 0-5.25-1.5t-20.25-14q-49.5-34.5-55.5-38t-12.5-7q-24-13-44.25-18.5t-46.75-5.5q-80 0-126.25 49.5t-44.75 133l4 243q1 36-8.25 51.5t-40.75 21l-23.5 4q-7 1.5-10.75 5.75t-3.75 10.75q0 8.5 7.25 13t24.75 4.5q14 0 42.25-1.5t41.75-1.5q9.5 0 29.5 1.5t32 1.5q16.5 0 20.25-8t3.25-46.5l-4.5-284.5q-0.5-64.5 27-98.75t89-34.25q34.5 0 62.75 12.75t45.75 35.25q9 11.5 13.25 25.25t4.25 45.25v243q0 38-9.25 52.75t-38.75 19.75l-24 4q-6.5 1-10.75 5.25t-4.25 11.25q0 8.5 7.25 13t28.25 4.5q14 0 41-1.5t40-1.5q9.5 0 29.25 1.5t31.25 1.5q16.5 0 20-6t3.5-48.5z" />
<glyph unicode="&#x76;" glyph-name="v" data-tags="v" horiz-adv-x="586" d="M211.5 446.5l102.5-257q6.5-15.5 9.25-20.5t5.25-5q1.5 0 3.5 2.25t12 23.25l73.5 162q27.5 60.5 37.25 84.5t9.75 34q0 14-9 21.75t-63 15.75q-16.5 2.5-20.25 6.5t-3.75 11.5 6.75 12 22.75 4.5q15.5 0 46.25-2t45.75-2q14.5 0 43 2t43.5 2 22.25-4.25 7.25-13.25q0-7-4.75-11t-13.75-4.5l-15.5-1q-11.5-0.5-24.5-8.5t-24.5-22q-6.5-8-13-19t-35-73.5l-156-334.5q-3.5-8-7.5-19t-7.5-16.5q-3.5-5-7.25-7t-10.25-2q-7 0-11.5 2t-8 7q-2.5 3.5-6.5 15.75t-8 20.75l-162.5 380q-21.5 49.5-31.5 60.5t-22 14q-5 1.5-25.75 2.75t-20.75 15.75q0 8.5 7.75 13t26.75 4.5q18 0 54.25-2t54.25-2q19.5 0 58.25 2t58.25 2q20 0 27-4t7-12.5q0-9-5.25-13t-32.75-6q-26-2-35.5-17t1.5-43z" />
<glyph unicode="&#x77;" glyph-name="w" data-tags="w" horiz-adv-x="909" d="M527 450.5l118-265q7.5-16.5 9.25-17.5t3.75-1q2.5 0 5.5 4.5t7 14l74.5 175q37 86.5 39.5 94.75t2.5 14.75q0 14-9.25 22t-61.25 15.5q-15.5 2-20 5.75t-4.5 12.25q0 8 7.25 12.25t24.25 4.25q17.5 0 51.5-2t51-2q12.5 0 37 2t37 2q15 0 22.25-4.25t7.25-13.25q0-5-2.25-8.5t-31.25-9q-25-4.5-45.5-26.25t-57-105.75l-149.5-340q-10.5-23-15-26t-11-3q-7.5 0-12.75 4.5t-14.75 24.5l-135 302-137.5-304q-9.5-21-14.5-24t-11-3q-7 0-11.75 3.5t-13.75 23.5l-172 388q-20.5 46.5-33.25 65.25t-44.75 21.75q-15.5 1.5-21.25 5.5t-5.75 12q0 7.5 6 12t23 4.5q42 0 124-2t123-2q62 0 165.75 2t142.25 2q17.5 0 25.75-3.5t8.25-13q0-10-4-13t-38-6q-31.5-3-40.25-17.75t1.25-38.25zM430 395.5l-30 63.5q-12.5 27-26 36.5t-35.5 9.5h-101q-24.5 0-31.75-4t-7.25-12.5q0-8 3-22.25t7-23.75l114-257q7-16.5 8.5-18t2.5-1.5q3 0 6.5 4.75t8 14.75l82 185.5q3.5 8 4 11.5t-4 13z" />
<glyph unicode="&#x78;" glyph-name="x" data-tags="x" horiz-adv-x="658" d="M395 306.5l142.5-186.5q31.5-41 47.75-50.25t39.25-10.25q18-0.5 23.25-4.5t5.25-12q0-8.5-7.75-12.75t-24.75-4.25q-22.5 0-67.25 2t-67.25 2q-20 0-60.75-2t-60.75-2q-21 0-28 4.25t-7 12.75 6 13.25 21.5 5.25q37.5 2 47 7t9.5 15.5q0 7.5-4 16t-12.5 20l-84 113.5q-9 12.5-14.25 13.25t-17.25-14.25l-38-48q-32.5-41-45-62.25t-12.5-33.25 9.5-18.75 43-10.75q14-1.5 18.25-5.25t4.25-11.25q0-9-7.75-13t-25.25-4q-17 0-51.5 2t-52 2q-15 0-45.25-2t-45.75-2q-15 0-21.75 3.75t-6.75 13.25q0 8 4.75 11.75t23.75 4.75q30.5 2 66.5 26.75t71 66.25l90 109q8.5 10 9.75 15.75t-10.75 20.75l-128 160q-21 25.5-35 35t-50 14l-16.5 2q-8.5 1-13 5.5t-4.5 11q0 8 7.5 12.25t20 4.25q22.5 0 65.75-2t64.75-2q21 0 63.5 2t64.5 2q14 0 21.75-4.25t7.75-13.25q0-7.5-3.75-11.5t-15.75-5.5q-35-3.5-39.5-7.5t-4.5-11.5q0-5.5 1.75-10.25t6.25-11.25l76-103.5q6-8.5 10-9.75t13.5 10.75l49 62.5q16.5 21 24.75 35t8.25 20.5q0 11-7.25 17t-35.75 8.5l-12.5 1q-6 0.5-10.5 5.25t-4.5 11.25q0 8.5 7.75 12.5t26.75 4q15.5 0 45.75-2t45.25-2q16.5 0 49.75 2t49.75 2q17.5 0 24.25-4t6.75-13.5q0-7.5-4.5-11.25t-20.5-5.25l-21.5-2q-29.5-3-58.5-21.5t-76.5-71.5l-65.5-74q-7-8-8-13.25t10-19.25z" />
<glyph unicode="&#x79;" glyph-name="y" data-tags="y" horiz-adv-x="565" d="M203.5 441.5l115.5-265q6.5-15 9-18.75t4.5-3.75q1.5 0 3 2t9.5 20.5l96 223q12 27 15.75 40.5t3.75 24q0 19-12 30t-46.5 13q-16.5 1-23.5 5.25t-7 13.25q0 8.5 8 12.5t24.5 4q17.5 0 51-2t50.5-2q11 0 32 2t31.5 2q17.5 0 22-3.75t4.5-12.75q0-7-4-11t-14-5.5l-14.5-2q-24-3.5-36.25-20.25t-43.75-86.25l-166-367.5q-24-53-38-88.25t-34.5-106.75q-14.5-50.5-28.5-59.25t-48.5-8.75q-40.5 0-58 11t-17.5 39.5q0 30 14.75 43t49.75 13q4 0 12.5-1t13-1q20 0 31 10t24.5 42.5l18.5 45q6 15 8.5 22.75t2.5 12.25q0 6.5-3.5 17t-12 28.5l-176 390q-16.5 36.5-28.75 50.25t-40.75 15.25q-13.5 1-19.75 5.25t-6.25 12.25q0 9 5.25 12.75t23.75 3.75 56.5-2 57-2 57.25 2 57.75 2q16 0 23.75-3.75t7.75-12.75q0-9.5-4.75-13t-33.25-6q-29.5-3-36.25-16.25t8.75-48.75z" />
<glyph unicode="&#x7a;" glyph-name="z" data-tags="z" horiz-adv-x="546" d="M501.5 508l-311.5-426q-6.5-9.5-3-15.5t14.5-6h95q80.5 0 115 19.75t53 72.25q6 16.5 10.5 23.25t11 6.75q11 0 14.25-8.75t3.25-33.25v-96.5q0-12.5-5.25-15.25t-19.25-2.75q-10.5 0-74.75 2t-161.75 2q-98 0-145.5-2t-48-2q-9.5 0-14 3t-4.5 9q0 3.5 1.75 8t11.75 17.5l312 428q1.5 2.5 2.25 4.5t0.75 8q0 1.5-2.25 2.25t-8.75 0.75h-69.5q-82.5 0-118.75-9.25t-65.75-43.75q-21-24.5-25.5-27.25t-10.5-2.75q-6.5 0-10.25 4.25t-3.75 11.25q0 5 2.5 14t8.5 26l24.5 68.5q12 32.5 12.75 33.75t1.75 2.25q2.5 2.5 5.25 3.75t4.75 1.25q7 0 12-5.5t6.5-15l2-11.5q2.5-12 33.75-14.75t202.75-1.25l120 1q19.5 0 24-3.5t4.5-10q0-4-2.25-10t-5.75-10.5z" />
<glyph unicode="&#x7b;" glyph-name="braceleft" data-tags="braceleft" horiz-adv-x="410" d="M71.5 244v44q50.5 1.5 73.75 39.25t23.25 110.25q0 26.5-1.5 53.25t-1.5 76.75q0 46 6.75 73.75t20.25 48.25q20 31.5 58.25 51.5t86.75 22v-32.5q-39.5-5-58-35.5t-18.5-86.5q0-18.5 0.25-37.75t0.75-39.25q2-80.5 2-85v-9q0-79-36.25-120.75t-99.75-47.25v-7q63.5-6 99.75-47.75t36.25-120.25v-10.5t-2-85.5q-0.5-20-0.75-39.5t-0.25-38q0-56.5 18.5-87t58-33v-33q-41-1.5-82 18.75t-63 54.25q-13.5 20-20.25 48t-6.75 75q0 48.5 1.5 76t1.5 54.5q0 73-23.25 110.25t-73.75 39.25z" />
<glyph unicode="&#x7c;" glyph-name="bar" data-tags="bar" horiz-adv-x="140" d="M30.5 817.5h79v-1078h-79v1078z" />
<glyph unicode="&#x7d;" glyph-name="braceright" data-tags="braceright" horiz-adv-x="410" d="M337.5 288v-44q-50.5-2-73.75-39.25t-23.25-110.25q0-27 1.5-54.5t1.5-76q0-47-6.75-75t-19.75-48q-22.5-34-63.5-54.25t-82-18.75v33q39.5 2.5 58 33t18.5 87q0 18.5-0.25 38t-0.75 39.5q-2 80-2 85.5v10.5q0 78.5 36.25 120.25t100.25 47.75v7q-64 5.5-100.25 47.25t-36.25 120.75v9t2 85q0.5 20 0.75 39.25t0.25 37.75q0 56-18.5 86.5t-58 35.5v32.5q48.5-2 86.75-22t58.75-51.5q13-20.5 19.75-48.25t6.75-73.75q0-50-1.5-76.75t-1.5-53.25q0-72.5 23.25-110.25t73.75-39.25z" />
<glyph unicode="&#x7e;" glyph-name="asciitilde" data-tags="asciitilde" horiz-adv-x="631" d="M103 596l-40 20.5q30.5 58.5 70.75 90.25t94.25 31.75q29 0 54.75-7.5t65.25-30.5q41.5-24 59.25-30t33.75-6q24.5 0 47.25 19.75t40.75 58.25l39-19.5q-37.5-70.5-71.5-98.25t-81-27.75q-24 0-44.75 5.75t-62.75 29.25q-47.5 26-67 33.5t-37.5 7.5q-29.5 0-53.25-18.5t-47.25-58.5z" />
<glyph unicode="&#x7f;" glyph-name="exclam1" data-tags="exclam" horiz-adv-x="371" d="M96 485l-22.5 90q-9 35.5-10.75 50.5t-1.75 31.5q0 64.5 33.5 99.25t90.5 34.75 90.5-34.75 33.5-99.25q0-16.5-1.75-31.5t-10.75-50.5l-22.5-90q-5.5-23-16.75-82t-13.75-78q-6-49.5-20.25-64.75t-38.25-15.25-38 15.25-20.5 64.75q-2 19-13.5 78t-17 82zM185-7q-55.5 0-89.25 28.25t-33.75 73.25q0 46.5 34 75t89 28.5 89-28.5 34-75q0-45-33.75-73.25t-89.25-28.25z" />
<glyph unicode="&#x80;" glyph-name="quotedbl1" data-tags="quotedbl" horiz-adv-x="412" d="M68.5 459l-23.5 168q-2.5 16-3.5 27t-1 21.5q0 37.5 18.25 61.75t49.75 24.25q31 0 49.25-24.25t18.25-61.75q0-10.5-1-21.5t-3-27l-24-168q-2.5-20-12.75-29.75t-26.75-9.75-27 9.75-13 29.75zM263 459l-23.5 168q-2.5 16-3.25 27t-0.75 21.5q0 37.5 18 61.75t49.5 24.25 49.5-24.25 18-61.75q0-10.5-1-21.5t-3-27l-23.5-168q-3-20-13.25-29.75t-26.75-9.75-26.75 9.75-13.25 29.75z" />
<glyph unicode="&#x81;" glyph-name="numbersign1" data-tags="numbersign" horiz-adv-x="657" d="M339.5 257.5h-63.5l55.5 125h-94l-55.5-125h-63.5l55.5 125h-138.5l33 76.5h138l33 72h-138.5l33 76.5h138l58.5 132.5h63.5l-58.5-132.5h94.5l58 132.5h63.5l-58-132.5h138l-32.5-76.5h-138.5l-32.5-72h138l-32.5-76.5h-138.5zM270 459h94.5l32.5 72h-94z" />
<glyph unicode="&#x82;" glyph-name="dollar1" data-tags="dollar" horiz-adv-x="653" d="M118.5 221.5l11.5-35.5q22.5-73 50-95.5t86-22.5q49 0 79.25 22.5t30.25 60.5q0 29.5-19 53.5t-137.5 83q-103 51-143.25 102.5t-40.25 126.5q0 93 59.75 154t165.75 72.5l12 100h60.5l-11-95q10 1 20.25 1.5t20.75 0.5h18l11.5 93h60.5l-11.5-96q32-3 64.25-8.5t56.75-12q10.5-3 13.25-8.75t5.25-43.25l4-68q2-33-9.25-49.25t-33.75-16.25q-13 0-22.75 7t-22.25 29l-13.5 23.5q-24 43-45.5 57.75t-64 14.75q-36 0-56.5-17.75t-20.5-48.75q0-26.5 19.5-47.5t84-49.5l86-38q71.5-31.5 106-80.75t34.5-126.25q0-111.5-74.5-179.25t-189.5-85.25l-12.5-100.5h-60.5l11.5 93.5q-10.5-0.5-20.75-0.5t-20.25 0.5q-4.5 0-9.25 0.25t-9.25 0.75l-11.5-94.5h-60l11 99.5q-36 5.5-73.75 15.75t-58.25 20.75q-14.5 7-19.5 14.75t-5 32.25v124q0 31.5 11.5 43.25t33.5 11.75q18.5 0 29.5-8.25t18.5-31.75z" />
<glyph unicode="&#x83;" glyph-name="percent1" data-tags="percent" horiz-adv-x="940" d="M249.5 366q-95 0-157 53.25t-62 141.25q0 88.5 62 141.5t157 53q95.5 0 157.25-53t61.75-141.5q0-88-61.75-141.25t-157.25-53.25zM262 429.5q30 0 48.75 33.5t18.75 84.5q0 59.5-26.75 101.75t-65.25 42.25q-30.5 0-49.25-33.25t-18.75-84.25q0-60 27-102.25t65.5-42.25zM690-12.5q-95.5 0-157.25 53t-61.75 141q0 88.5 61.75 141.75t157.25 53.25q95 0 157-53.25t62-141.75q0-88-62-141t-157-53zM702 50.5q30 0 49 33.75t19 86.25q0 61.5-28.25 102t-64.25 40.5q-29.5 0-48.5-33.5t-19-84.5q0-60.5 26.5-102.5t65.5-42zM726 740h111.5l-618.5-737h-111.5z" />
<glyph unicode="&#x84;" glyph-name="ampersand1" data-tags="ampersand" horiz-adv-x="939" d="M242.5 410l-9.5 12.5q-19.5 26-30.75 58.75t-11.25 62.75q0 91.5 73.5 148.75t193 57.25q96 0 150-38.5t54-104q0-50-27.25-86.25t-83.75-58.75l-5-2.5q-9.5-3.5-12-6.5t-2.5-7.5q0-4 1.75-7.75t14.75-18.75l65.5-76q4.5-5 8.25-6.5t8.25-1.5q4 1 7 3t9.5 11l5 7.5q4 5.5 7.25 11.75t3.25 9.75q0 5-4.5 10.25t-13 10.25q-21 12.5-24.5 19.75t-3.5 17.75q0 15 11.25 22t39.25 7q15.5 0 47-2t47-2q17 0 50.75 2t50.75 2q24.5 0 36.25-8.5t11.75-25.5q0-16.5-10.5-26t-60-15l-18.5-2q-28.5-3-52.25-18.75t-69.75-73.25l-8-10.5q-3-3.5-4-6t-1-5q0-3.5 4.25-10.25t15.25-19.75l92-113.5q15.5-19 30-29.25t28.5-12.75l17-3q41-7 48.25-15.25t7.25-21.75q0-18.5-14.75-27.5t-41.75-9-81.75 2-81.75 2q-24.5 0-73-2t-72.5-2q-37 0-48.75 8.5t-11.75 25q0 7 3 13.5t8.5 10l6 4q2.5 2 3.75 4.75t1.25 6.75q0 5-6.25 13.25t-10.25 8.25q-1.5 0-3-0.75t-4-2.25q-3.5-2.5-6.75-5.25l-9.75-8.25-9-8q-50-44.5-106.5-67t-121-22.5q-93 0-150.5 49.75t-57.5 132.75q0 78.5 45.75 125.25t133.75 78.75l11 4q12.5 4.5 15.25 11.25t-3.75 15.25zM477 675.5q-27 0-45.25-16.5t-18.25-49.5q0-28.5 18.75-57.75t46.75-50.75q28 10.5 45.75 38.75t17.75 64.75q0 33-19.5 52t-46 19zM447 174.5l-144 159q-21-15-30-32.75t-9-39.25q0-50 34.25-86t80.25-36q20 0 37.75 9t30.75 26z" />
<glyph unicode="&#x85;" glyph-name="quotesingle1" data-tags="quotesingle" horiz-adv-x="217" d="M68.5 459l-23.5 168q-2.5 16-3.5 27t-1 21.5q0 37.5 18.25 61.75t49.75 24.25q31 0 49.25-24.25t18.25-61.75q0-10.5-1-21.5t-3-27l-24-168q-2.5-20-12.75-29.75t-26.75-9.75-27 9.75-13 29.75z" />
<glyph unicode="&#x86;" glyph-name="parenleft1" data-tags="parenleft" horiz-adv-x="531" d="M81.5 278q0 162.5 101.5 294.75t252 174.25q45.5 12.5 70.75 10t25.25-21.5q0-7.5-3.5-12.5t-50.5-20q-110.5-35.5-158.75-129.75t-48.25-295.25 48.25-295 158.75-129.5q47-15 50.5-20t3.5-13q0-19-25.25-21.5t-70.75 10.5q-150.5 42-252 174t-101.5 294.5z" />
<glyph unicode="&#x87;" glyph-name="parenright1" data-tags="parenright" horiz-adv-x="531" d="M449.5 278q0-162.5-101.5-294.5t-252-174q-45.5-13-70.75-10.5t-25.25 21.5q0 8 3.25 13t50.75 20q110.5 35.5 158.75 129.5t48.25 295-48.25 295.25-158.75 129.75q-47.5 15-50.75 20t-3.25 12.5q0 19 25.25 21.5t70.75-10q150.5-42 252-174.25t101.5-294.75z" />
<glyph unicode="&#x88;" glyph-name="asterisk1" data-tags="asterisk" horiz-adv-x="423" d="M275 579l-20.5-4q-2.5-0.5-6.75-3t-9.25-6.5q2.5-4 5.75-6t12.75-3l55-7.5 8.5-0.5q30-2.5 45.5-15t15.5-35.5q0-17.5-12.75-30.25t-32.25-12.75q-13.5 0-25.75 6.25t-25.25 21.75q-1 1-11.75 14.75t-32.25 37.25q-5.5 6-8.75 7.5t-7.75 1.5q-2-5-2-9t4-12.5l11.5-23.5q15.5-32 19.5-46t4-25.5q0-21.5-12.75-35.75t-33.25-14.25q-21.5 0-34.5 15t-13 38q0 11.5 3.25 24.75t14.25 41.75l9.5 23.5q4 11 4 14.5t-2 8q-7-1.5-11.75-4.75t-16.25-21.75l-18-29.5q-12.5-20-27.25-30t-30.25-10q-21 0-34 13.25t-13 32.75q0 23.5 14.75 37t66.25 20.5l30.5 4q4.5 0.5 10 3.25t12.5 7.75q-5 6-11.25 9.75t-14.25 4.75l-26.5 4q-7 1-28 3t-30.5 5.5q-15 5-22.5 15.25t-7.5 26.75q0 19 13 32t32.5 13q15 0 28-7.75t39.5-41.75l17.5-22.5q8.5-11 14.25-14.25t12.25-2.75q3 8.5 0.25 19.5t-10.75 25.5l-9 16q-9 16-12.25 27.5t-3.25 24q0 22 13.25 34.5t31.75 12.5q21.5 0 34.25-13.25t12.75-34.75q0-10.5-1.25-18.5t-14.75-40l-8.5-19.5q-4-10-5.25-15t-0.25-12.5q0.5-2 0.5-3.25v-2.75q6.5 3 10.25 5.25t16.25 20.25l19.5 27.5q19.5 28 32.5 36t28 8q18.5 0 32.25-12.5t13.75-33.5q0-19.5-11.5-34.25t-32.5-20.25q-14-3.5-29.75-4.5t-28.75-3.5z" />
<glyph unicode="&#x89;" glyph-name="plus1" data-tags="plus" horiz-adv-x="653" d="M53 348.5v115h214v218h120v-218h214v-115h-214v-218h-120v218h-214z" />
<glyph unicode="&#x8a;" glyph-name="comma1" data-tags="comma" horiz-adv-x="308" d="M148 188q58.5 0 91.25-39.75t32.75-98.75q0-57-42.5-120.25t-128.5-113.75q-17.5-10-29.75-15.25t-20.25-5.25q-14.5 0-22.75 6.25t-8.25 18.25q0 8.5 3.25 14.5t44.75 36q33.5 23.5 55.25 54.75t21.75 56.75q0 13.5-5.75 19.5t-27.75 7q-26.5 1-47.5 23t-21 56.5q0 45.5 30 73t75 27.5z" />
<glyph unicode="&#x8b;" glyph-name="hyphen2" data-tags="hyphen" horiz-adv-x="394" d="M78.5 346.5h274.5l-38-114.5h-274.5z" />
<glyph unicode="&#x8c;" glyph-name="period1" data-tags="period" horiz-adv-x="338" d="M168.5-7q-55 0-88.75 28.25t-33.75 73.25q0 46.5 33.75 75t88.75 28.5q55.5 0 89.25-28.5t33.75-75q0-45-33.75-73.25t-89.25-28.25z" />
<glyph unicode="&#x8d;" glyph-name="slash1" data-tags="slash" horiz-adv-x="509" d="M90-163h-95l423.5 892.5h95.5z" />
<glyph unicode="&#x8e;" glyph-name="zero1" data-tags="zero" horiz-adv-x="791" d="M395 750q159.5 0 259.5-110.25t100-277.75q0-164-102.25-266.5t-249.25-102.5q-159.5 0-263.5 103.75t-104 265.25q0 168 100.25 278t259.25 110zM314 384.5q0-187.5 20.5-247.25t58.5-59.75q41 0 59 67.5t18 239.5q0 179.5-18.75 235.25t-57.25 55.75q-41 0-60.5-56.75t-19.5-234.25z" />
<glyph unicode="&#x8f;" glyph-name="one1" data-tags="one" horiz-adv-x="600" d="M191 151v423q0 15.5-3.75 22t-12.25 6.5q-4.5 0-9.25-0.75t-42.25-8.25l-33.5-7.5q-24-5-25-5h-2q-15 0-23.75 9.5t-8.75 24.5 8.75 24.75 53.75 19.25l69.5 14q61 13 104.5 25.25t90 31.25l35 14.5q7 3 14.5 4.5t13 1.5q17 0 27-7t10-20.5q0-8-3.5-40.25t-3.5-71.25v-460q0-44 16-53.5t56.5-13l22.5-2q23.5-2 34.25-9.5t10.75-25.5q0-19-15.5-26.75t-53-7.75q-33.5 0-100.5 2t-100 2q-33.5 0-100.5-2t-100.5-2q-37.5 0-53 7.75t-15.5 26.75q0 18 11 25.5t34 9.5l22.5 2q40.5 3.5 56.5 13t16 53.5z" />
<glyph unicode="&#x90;" glyph-name="two1" data-tags="two" horiz-adv-x="722" d="M293.5 192h130q57.5 0 82 6.5t46 40.5q15.5 24.5 29.75 34.25t28.75 9.75q14 0 22-9.75t8-29.25q0-1.5-0.25-3t-5.25-60.5q-2-23-3-69.75t-3-71.25q-1.5-17.5-14-22t-44.5-4.5q-42 0-126.25 2t-125.75 2q-42 0-127.25-2t-129.75-2q-17.5 0-26.5 8t-9 22.5q0 12 5 20.75t45 46.75l19.5 18.5q185 175 221.5 245.25t36.5 136.75q0 64-33.5 101t-81 37q-22.5 0-40.75-7.75t-41.25-29.75q-51-49-55.5-50.25t-8-1.25q-14.5 0-23.75 9.75t-9.25 25.25q0 55 76.25 104.75t194.25 49.75q133 0 213.5-55.25t80.5-157.75q0-73-53.25-136.25t-176.25-128.75l-96-51.5q-33-17.5-39.25-21.25t-13.25-8.25l1-4q11 2.5 22.25 3.75t23.75 1.25z" />
<glyph unicode="&#x91;" glyph-name="three1" data-tags="three" horiz-adv-x="678" d="M371.5 489l1-8.5q12.5 2 24.25 2.75t26.75 0.75q91 0 149.5-47t58.5-138.5q0-138.5-140.75-246.75t-296.25-108.25q-80.5 0-119.75 25.75t-39.25 71.25q0 34 26 59t69.5 25q29 0 52.75-12.75t43.25-40.75q23-33 32.75-39t20.75-6q40 0 72.25 49.5t32.25 117.5q0 73.5-37.75 117.75t-94.75 44.25q-15.5 0-31-4.5t-44.5-19.5q-43-21-48.5-22.25t-10-1.25q-12 0-20.25 10.25t-8.25 25.75q0 16 8.75 30t50.75 47q70 54.5 97.25 90.75t27.25 78.25q0 27.5-14.25 44.75t-39.75 17.25q-14.5 0-25.5-4.25t-47.5-31.25q-17-13-25.25-16.75t-16.75-3.75q-11.5 0-19.5 8.5t-8 23q0 9.5 4.75 18.25t15.75 20.75q38.5 41 97.25 62.5t131.25 21.5q94.5 0 138.25-32.5t43.75-88.5q0-47-36.75-83.5t-100.25-56.5z" />
<glyph unicode="&#x92;" glyph-name="four1" data-tags="four" horiz-adv-x="728" d="M403 750h176.5v-459.5h122.5v-118h-122.5v-216.5h-253v216.5h-293q-16.5 0-25 9t-8.5 24q0 13 3.25 24t21.25 34zM326.5 290.5v231l-178.5-231h178.5z" />
<glyph unicode="&#x93;" glyph-name="five1" data-tags="five" horiz-adv-x="635" d="M496.5 600.5l-247-21.5q-31-2.5-46-13.25t-18.5-29.75l-2-11q-0.5-2.5 1.25-4.75t4.75-2.75l63.5-9q173.5-25.5 249.75-78.5t76.25-148q0-142.5-158.5-240.5t-320-98q-30 0-39.5 7.5t-9.5 23.5q0 17.5 9 26t57.5 16.5l23.5 4q94 16.5 148 57t54 106q0 60-39.25 88.25t-188.25 59.75l-48 10.5q-7.5 1.5-12 6.25t-4.5 11.25q0 2 0.5 4.75t5.5 18.75l96.5 307q9 29 18.75 33t29.25 6l351 34q8 0.5 12.25-2.5t4.25-10v-2.5t-16.5-63l-14-54.5q-4-13.5-12.25-21t-29.75-9.5z" />
<glyph unicode="&#x94;" glyph-name="six1" data-tags="six" horiz-adv-x="730" d="M627.5 735.5l-43-22.5q-160-83.5-227-166t-67-199.5q0-96 30.75-183t72.75-87q23 0 35 17.5t12 62q0 61-16 112.5t-39 70q-14.5 12-38.5 12.5t-24 27.5q0 28.5 39.25 53t101.75 24.5q103.5 0 158.75-58.75t55.25-143.75q0-118.5-96.25-190t-247.75-71.5q-130 0-212 70.5t-82 203q0 121 73.75 220.5t231.75 190.5q78 44.5 166.75 83t120.75 38.5q12 0 18.25-8t6.25-19.5-5-18.25-25.5-17.75z" />
<glyph unicode="&#x95;" glyph-name="seven1" data-tags="seven" horiz-adv-x="637" d="M408.5 504.5h-350.5q-34 0-38.5 7t-4.5 22.5v154.5q0 23 5.25 32t25.75 9q49 0 146.25-2t143.25-2q41.5 0 129.25 2t141.25 2q19 0 24.75-4.5t5.75-14q0-5-20.25-39t-39.75-78.5l-273.5-622q-6-13.5-14-19.75t-20-6.25h-66.5q-6 0-9.75 4.25t-3.75 11.25q0 2.5 1.5 7.25t4 9.25l222 493q5 10.5 6.5 15.5t1.5 8q0 5-2.25 7.75t-13.75 2.75z" />
<glyph unicode="&#x96;" glyph-name="eight1" data-tags="eight" horiz-adv-x="804" d="M210.5 358v6q-55 14.5-86.25 62.75t-31.25 107.25q0 90 81.25 153t235.25 63q129.5 0 205.5-47.5t76-124.5q0-42-24.5-74.25t-76-50.75v-7q67.5-20 109.5-69.5t42-122q0-124-96.25-192.75t-254.75-68.75q-143.5 0-236.75 61.25t-93.25 153.25q0 54.5 37.25 94t112.25 56.5zM313 310.5q-33-21.5-49.75-50.5t-16.75-58q0-50.5 35.75-90.25t101.75-39.75q62.5 0 96.25 28.75t33.75 71.75q0 39.5-29 67t-125 53q-19 5-28.25 8.75t-18.75 9.25zM441 505.5q27.5 12.5 43.5 36.25t16 51.75q0 38-23.25 59.5t-66.75 21.5q-41 0-65-19.25t-24-51.75q0-29.5 36-56.75t83.5-41.25z" />
<glyph unicode="&#x97;" glyph-name="nine1" data-tags="nine" horiz-adv-x="730" d="M102 7l43 22q160 84 227 166.5t67 199q0 96.5-30.75 183.5t-72.75 87q-22.5 0-34.75-17.5t-12.25-62.5q0-84.5 23.75-135.5t73.75-57q9.5-1 15-8.5t5.5-21q0-28.5-39.5-53.25t-102-24.75q-103 0-158.5 59t-55.5 144q0 118.5 96.25 190.25t247.75 71.75q130 0 212-70.75t82-203.75q0-120.5-73.75-220.25t-231.25-190.25q-78.5-45-167.25-83.25t-120.75-38.25q-11.5 0-18 8.25t-6.5 19.75q0 11 5 18t25.5 17.5z" />
<glyph unicode="&#x98;" glyph-name="colon1" data-tags="colon" horiz-adv-x="338" d="M168.5-7q-55 0-88.75 28.25t-33.75 73.25q0 46.5 33.75 75t88.75 28.5q55.5 0 89.25-28.5t33.75-75q0-45-33.75-73.25t-89.25-28.25zM168.5 329q-55 0-88.75 28.5t-33.75 74q0 46.5 33.75 75t88.75 28.5q55.5 0 89.25-28.5t33.75-75q0-45.5-33.75-74t-89.25-28.5z" />
<glyph unicode="&#x99;" glyph-name="semicolon1" data-tags="semicolon" horiz-adv-x="308" d="M148 188q58.5 0 91.25-39.75t32.75-98.75q0-57-42.5-120.25t-128.5-113.75q-17.5-10-29.75-15.25t-20.25-5.25q-14.5 0-22.75 6.25t-8.25 18.25q0 8.5 3.25 14.5t44.75 36q33.5 23.5 55.25 54.75t21.75 56.75q0 13.5-5.75 19.5t-27.75 7q-26.5 1-47.5 23t-21 56.5q0 45.5 30 73t75 27.5zM151.5 329q-55.5 0-89.25 28.5t-33.75 74q0 46.5 33.75 75t89.25 28.5q55 0 88.75-28.5t33.75-75q0-45.5-33.75-74t-88.75-28.5z" />
<glyph unicode="&#x9a;" glyph-name="less1" data-tags="less" horiz-adv-x="669" d="M20 367l564.5 356.5 62.5-98.5-404.5-258 404.5-258-62.5-98z" />
<glyph unicode="&#x9b;" glyph-name="equal1" data-tags="equal" horiz-adv-x="655" d="M78.5 395.5v106.5h498v-106.5h-498zM78.5 232v106.5h498v-106.5h-498z" />
<glyph unicode="&#x9c;" glyph-name="greater1" data-tags="greater" horiz-adv-x="669" d="M647 367l-564.5-356-62.5 98 404.5 258-404.5 258 62.5 98.5z" />
<glyph unicode="&#x9d;" glyph-name="question1" data-tags="question" horiz-adv-x="553" d="M224 678.5l-34-23.5q-49.5-35-59-37.5t-19.5-2.5q-26 0-38.25 17.25t-12.25 69.75q0 54.5 28 71.25t115.5 16.75q138 0 230.25-64.5t92.25-163q0-51-22.75-88t-100.25-87l-80.5-52q-66.5-43-71-48t-10-22q-6-18-15-23.75t-27-5.75q-24.5 0-36.75 14.5t-13.25 65.5l-2 78.5-0.5 1-2 42q-1 25.5 6.25 35.75t20.75 19.75q7.5 5 28.75 16.75t42.75 24.75q64.5 38.5 82.5 60.75t18 49.25q0 24-16 40.25t-41.5 16.25q-15.5 0-30.75-5.25t-32.75-17.25zM200.5 198q53 0 88-30t35-75.5q0-43.5-34-71.5t-90-28q-54.5 0-85.75 27.5t-31.25 73q0 43.5 32 74t86 30.5z" />
<glyph unicode="&#x9e;" glyph-name="at1" data-tags="at" horiz-adv-x="819" d="M626.5 136.5l45-67.5q-50-38.5-111-57.25t-128.5-18.75q-159 0-272.5 109.75t-113.5 269.25q0 157.5 110.5 267.75t273.5 110.25q144 0 243.5-85.75t99.5-218.25q0-104.5-73.75-184t-176.25-79.5q-40.5 0-59.75 17.5t-19.25 54.5q0 8.5 1.5 24t4 31q-58-69-99.75-95.75t-82.75-26.75q-35.5 0-55 24t-19.5 63q0 110.5 90.75 193.5t180.25 83q14 0 23.5-2.25t27-11.25q1-0.5 1.75-0.75t1.25-0.25 1.5 0.5 2.5 2.5q10.5 13 17 15.25t18 2.25h64.5q11 0 14-3.25t3-10.25q0-3-0.75-7.75t-17.25-58.75l-42-135q-6.5-20.5-10-36t-3.5-26.5q0-7 2.25-10.25t8.75-3.25q39.5 0 76.75 53.75t37.25 116.25q0 97.5-74.25 165.5t-187.75 68q-120 0-207.5-89t-87.5-208q0-124 85.5-211t218.5-87q49.5 0 97.5 15.75t93 46.75zM321.5 288q0-12.5 4.75-18.5t13.25-6q22 0 59.25 41.5t71.25 101q18 32 25.25 51.25t7.25 32.75q0 12.5-7.25 19t-20.25 6.5q-45 0-99.25-78.75t-54.25-148.75z" />
<glyph unicode="&#x9f;" glyph-name="A1" data-tags="A" horiz-adv-x="718" d="M57 171.5l177 474q0.5 1 0.75 1.75t11.75 36.25q2 5.5 4.25 12t5.25 14.5q8.5 24 19.75 32t30.25 8q7.5 0 22.5-1t22.5-1q7 0 21.75 1t22.25 1q12.5 0 20.25-5t13.75-18.5q3.5-9 9-24t7-19q3-7 6.25-15t17.25-42.5l212-504.5q6.5-15.5 18.25-25t34.25-16l17.5-5.5q15-4 21.75-11.5t6.75-19q0-16-9.5-23.75t-29.5-7.75q-32 0-92.75 1t-90.25 1q-33.5 0-101.75-1t-105.25-1q-15 0-22.25 7.25t-7.25 20.25q0 13.5 9.5 22t29 9.5l15.5 1q19.5 1.5 26.25 8t6.75 20q0 6.5-3 18t-7.5 23l-14.5 36.5q-10.5 28-14.75 31.5t-14.75 3.5h-178q-7 0-10.25-3t-7.25-13.5l-6-16.5q-10-26.5-12.25-36.25t-2.25-18.75q0-16.5 6.5-26.5t62-30q18-6.5 22.75-13t4.75-17.5q0-14-8-19.75t-27.5-5.75q-22 0-61.25 1t-58.75 1q-18 0-54.25-1t-54.75-1q-19 0-27 5.5t-8 18q0 10.5 4.5 17.25t48 19.25q20 6.5 37 30t34 68.5zM319 328l-50 143.5q-1.5 5-5.25 5.25t-5.75-5.25l-54.5-141.5q-5-13-5.5-15.25t-0.5-4.25q0-6.5 8.25-10.25t52.25-3.75q47 0 57.25 2.75t10.25 8.25v3z" />
<glyph unicode="&#xa0;" glyph-name="B1" data-tags="B" horiz-adv-x="873" d="M138 167.5v407.5q0 51.5-7.5 67.25t-55 21.75l-16.5 2q-16 2-24.75 10t-8.75 21q0 16.5 11.5 24.5t43.5 8q31.5 0 93.5-2t93-2q47.5 0 144 2t146 2q121 0 185.25-43.25t64.25-126.75q0-50-29.25-89t-85.25-54.5q68.5-20 110.5-66t42-115q0-106-78.5-164t-244-58q-43.5 0-128.75 2t-127.25 2q-30.5 0-92.25-2t-93.25-2q-32 0-43.5 8t-11.5 24.5q0 13.5 8.75 21t24.75 9.5l16.5 2.5q47.5 5.5 55 21.5t7.5 67.5zM397 619v-167q0-10.5 7-15.5t20.5-5q46.5 0 77 31.75t30.5 81.75q0 50.5-25.25 79.25t-64.75 28.75q-22 0-33.5-7.75t-11.5-26.25zM397 308.5v-163.5q0-37.5 13.5-50.5t44-13q48 0 75.75 33.5t27.75 91.5q0 60-27.25 100.5t-79.25 40.5q-32.5 0-43.5-7t-11-32z" />
<glyph unicode="&#xa1;" glyph-name="C1" data-tags="C" horiz-adv-x="782" d="M724.5 588q2-29-6-43t-27.5-14q-15 0-28.75 8.25t-37.75 36.75l-25.5 30.5q-32 38.5-58 53.25t-57 14.75q-71.5 0-116.5-73.75t-45-224.25q0-148 45.5-228.25t126.5-80.25q38 0 62.5 18t55 66l23.5 37q22.5 35 35 42.5t28.5 7.5q23 0 31.25-14t5.75-47.5l-5-70.5q-4-55-14-63.5t-38.5-17.5q-48.5-15-107.25-24t-113.75-9q-188.5 0-305.25 109t-116.75 282.5q0 162 117.5 263.75t333 101.75q57.5 0 114.75-9.75t92.25-24.25q15.5-6 20.5-15t7-45z" />
<glyph unicode="&#xa2;" glyph-name="afii10110" data-tags="afii10110" horiz-adv-x="565" d="M203.5 441.5l115.5-265q6.5-15 9-18.75t4.5-3.75q1.5 0 3 2t9.5 20.5l96 223q12 27 15.75 40.5t3.75 24q0 19-12 30t-46.5 13q-16.5 1-23.5 5.25t-7 13.25q0 8.5 8 12.5t24.5 4q17.5 0 51-2t50.5-2q11 0 32 2t31.5 2q17.5 0 22-3.75t4.5-12.75q0-7-4-11t-14-5.5l-14.5-2q-24-3.5-36.25-20.25t-43.75-86.25l-166-367.5q-24-53-38-88.25t-34.5-106.75q-14.5-50.5-28.5-59.25t-48.5-8.75q-40.5 0-58 11t-17.5 39.5q0 30 14.75 43t49.75 13q4 0 12.5-1t13-1q20 0 31 10t24.5 42.5l18.5 45q6 15 8.5 22.75t2.5 12.25q0 6.5-3.5 17t-12 28.5l-176 390q-16.5 36.5-28.75 50.25t-40.75 15.25q-13.5 1-19.75 5.25t-6.25 12.25q0 9 5.25 12.75t23.75 3.75 56.5-2 57-2 57.25 2 57.75 2q16 0 23.75-3.75t7.75-12.75q0-9.5-4.75-13t-33.25-6q-29.5-3-36.25-16.25t8.75-48.75zM475.5 733.5q-3.5-8-13.5-22.75t-20-28.75q-35-46.5-72.25-68.75t-84.75-22.25q-26 0-49 6t-41 16.5q-22 13-34.5 29.75t-12.5 31.75q0 13 5.5 26.25t19 31.25q12.5 16.5 22.25 23.5t18.75 7q8 0 12.5-4.75t7-36.25q3-37.5 22-57t55-19.5q34.5 0 64.5 19.75t56 62.75q17.5 29 22 33t9 4q9 0 13.5-4.25t4.5-12.25q0-3.5-0.75-7t-3.25-8z" />
<glyph unicode="&#xa3;" glyph-name="sterling" data-tags="sterling" horiz-adv-x="838" d="M467.5 386h198l-10.5-44h-169q10.5-15.5 15.5-31.75t5-31.75q0-31-15.25-68t-36.75-64q64.5-30.5 116.5-47.5t86-17q42.5 0 72 17.75t29.5 42.75q0 11.5-6.75 19.75t-36.25 16.25q-22 5.5-33.5 19t-11.5 32q0 23 15.25 37.75t38.75 14.75q31.5 0 54.25-26.5t22.75-68q0-73.5-62.5-130.75t-147.5-57.25q-50 0-103 23.75t-93.5 59.75q-46.5-39.5-100.5-57.75t-109.5-18.25q-72.5 0-111 25.5t-38.5 67q0 48 48 79.25t121 31.25q46.5 0 90-10.5t100.5-35.5q4.5 12 6.75 24t2.25 24q0 10-2.25 21.25t-7.75 25.75q-8 22.5-20 43.25t-29 39.75h-215l11 44h176q-34 51.5-47.5 86.25t-13.5 70.75q0 47 20.25 90.75t56.25 73.75q32.5 27.5 72.5 41t89.5 13.5q61 0 107.25-17.25t46.25-44.25q0-24.5-14.25-52.75t-28.75-28.25q-8 0-15 4t-32 40q-27 39-48 51.25t-44.5 12.25q-19.5 0-38.5-7.75t-34-23.75q-15.5-16.5-23.25-37.75t-7.75-46.25q0-33 12-65.5t93.5-160zM362 105.5q-50 38.5-79.75 52t-56.25 13.5q-30.5 0-53-16t-22.5-46.5q0-26.5 21.5-44.5t57-18q41.5 0 73 14t60 45.5z" />
<glyph unicode="&#xa4;" glyph-name="currency" data-tags="currency" horiz-adv-x="711" d="M616 688.5l48.5-47.5-96.5-94q29-38.5 43.25-82t14.25-85q0-41-14.25-84.25t-43.25-81.75l96.5-95-48.5-47-95 96q-35.5-30.5-78.5-45t-88.5-14.5q-47 0-89.25 16t-75.75 43.5l-95-96-48 47 96 95q-29.5 39.5-44.5 83t-15 83q0 41 14.75 84.75t43.75 82.25l-95 94 48 47.5 95-95.5q35 31 76.75 44.75t88.25 13.75q52.5 0 94-15.5t73-43zM147 380q0-87.5 61.5-150.75t145.5-63.25q86.5 0 146.75 62.75t60.25 151.25q0 89-59.75 151.5t-147.25 62.5q-84.5 0-145.75-62.5t-61.25-151.5z" />
<glyph unicode="&#xa5;" glyph-name="D1" data-tags="D" horiz-adv-x="938" d="M146 167.5v451.5q0 22-11 33.5t-36 11.5q-6 0-18-1t-18-1q-20.5 0-29 6.5t-8.5 23q0 15.5 10.25 24.5t33.75 13.5q51.5 10 142.5 15.25t232 5.25q237.5 0 347.75-89t110.25-279.5q0-189-120-278.75t-309-89.75q-34 0-100 2t-99 2q-30.5 0-92.25-2t-92.75-2q-32.5 0-44 8t-11.5 24.5q0 13.5 9 21t25 9.5l16 2.5q47.5 5.5 55 21.5t7.5 67.5zM405.5 589.5v-442.5q0-32 16-45.25t44-13.25q70.5 0 110 64.75t39.5 199.25q0 143-48.5 232.5t-116 89.5q-22.5 0-33.75-17.25t-11.25-67.75z" />
<glyph unicode="&#xa6;" glyph-name="brokenbar" data-tags="brokenbar" horiz-adv-x="140" d="M30.5 817.5h79v-327h-79v327zM30.5 65.5h79v-326h-79v326z" />
<glyph unicode="&#xa7;" glyph-name="section" data-tags="section" d="M495.968-192c-49.376 0-91.104 14.4-124.096 42.816-33.216 28.608-50.080 62.048-50.080 99.328 0 18.144 6.592 33.76 19.616 46.464 13.248 12.928 29.792 19.744 47.84 19.744 18.016 0 34.208-6.4 46.816-18.528 12.48-11.968 18.784-27.808 18.784-47.104 0-11.328-1.856-23.808-5.504-37.152-3.616-13.184-4.384-19.936-4.384-23.296 0-3.68 0.928-8.064 7.776-12.768 12.768-8.832 28.064-13.088 46.88-13.088 22.592 0 42.72 7.872 61.568 24.032 18.592 15.936 27.616 32.32 27.616 50.048 0 19.744-5.28 36.832-16.128 52.256-18.336 25.76-52.864 55.968-102.624 89.664-79.872 53.44-133.056 99.776-162.592 141.504-22.88 32.672-34.464 67.904-34.464 104.704 0 37.056 12.128 73.952 36.096 109.632 20.512 30.56 50.816 58.112 90.24 82.144-21.088 22.688-36.896 44.064-47.104 63.68-12.864 24.768-19.392 50.368-19.392 76.128 0 47.808 18.912 89.152 56.192 122.88s83.872 50.88 138.336 50.88c50.080 0 92.192-14.080 125.184-41.856 33.312-28.096 50.208-60.896 50.208-97.536 0-18.656-6.976-35.36-20.768-49.664l-0.288-0.288c-7.968-7.936-22.624-17.376-47.040-17.376-19.136 0-35.936 6.272-48.544 18.144-12.544 11.808-18.944 25.92-18.944 41.952 0 6.944 1.696 17.408 5.344 32.992 1.792 7.36 2.656 14.144 2.656 20.256 0 10.336-3.712 18.272-11.712 24.96-8.288 6.944-20.096 10.304-36.128 10.304-24.864 0-45.28-7.552-62.4-23.104-17.184-15.616-25.536-34.080-25.536-56.512 0-20.16 4.576-36.768 13.568-49.376 17.12-23.936 46.784-49.792 88.224-76.832 84.16-54.592 142.912-104.672 174.528-148.832 23.36-33.12 35.168-68.352 35.168-104.8 0-36.608-11.872-73.504-35.328-109.664-20.192-31.168-50.72-59.264-90.88-83.712 22.176-23.456 37.824-44.032 47.552-62.528 12.096-22.976 18.208-48.064 18.208-74.528 0-49.664-18.912-91.872-56.256-125.408s-83.872-50.56-138.304-50.56zM446.4 475.648c-48.224-28.96-71.712-62.176-71.712-101.312 0-22.752 6.496-43.136 19.872-62.272 19.936-27.936 59.264-62.048 116.8-101.28 24.352-16.576 46.368-32.704 65.6-48.064 49.056 29.504 72.96 62.368 72.96 100.192 0 20.608-8.128 42.784-24.192 65.92-16.8 24.192-52.864 55.808-107.136 93.92-28.32 19.552-52.544 37.344-72.16 52.928z" />
<glyph unicode="&#xa8;" glyph-name="section1" data-tags="section" horiz-adv-x="519" d="M311 762q59.5 0 95.25-25.5t35.75-60.5q0-21.5-15-37.5t-38-16q-18.5 0-36.25 10.25t-39.75 37.25q-25 30-36.25 37.5t-24.25 7.5q-18 0-27.75-13.75t-9.75-39.75q0-36.5 19-85.25t80-152.25q77.5-131 100.75-205.5t23.25-144.5q0-130-59.5-212.75t-164.5-82.75q-57.5 0-92.75 24.75t-35.25 61.25q0 21.5 14.5 38.5t38.5 17q15.5 0 29.5-7.75t44-46.75q14.5-18.5 30-27.75t33.5-9.25q14.5 0 23.25 11.75t8.75 31.25q0 31-12 67t-94.5 184.5q-72 130-98.5 212.5t-26.5 157q0 122 61 195.75t173.5 73.75zM164.5 648.5q-15.5-32-23-65.75t-7.5-73.75q0-62.5 17.5-126.5t64.5-154q104.5-200 116.75-232.5t22.25-71q13.5 29 20 60t6.5 66.5q0 70-20.25 139.25t-73.75 164.75q-80 142-97 188.5t-26 104.5z" />
<glyph unicode="&#xa9;" glyph-name="afii10023" data-tags="afii10023" horiz-adv-x="657" d="M137 157v455.5q0 57-15.25 74.5t-64.75 20.5q-11 1-16.25 4.25t-5.25 12.25q0 11.5 6.5 15t23.5 3.5q22.5 0 62.25-1.5t78.75-1.5l169-1q39.5-0.5 100.75 0.5t82.75 2.5q22.5 1.5 28 0.25t5.5-17.75v-22.5l-1-51v-43q0-16-4.25-22.5t-13.25-6.5q-6.5 0-11.25 4.5t-11.25 20.5q-9.5 24-22.5 42.25t-27.5 29.25q-19.5 14.5-49.25 21t-101.25 6.5q-52.5 0-70.25-6t-17.75-37v-189.5q0-24 8.25-30.25t24.25-6.25h83q37 0 60 12t37 53q6 18 12 25.5t14 7.5 12.25-5.75 4.25-15.75q0-5-2.25-23.75t-3.75-36.75q-2-20-2.25-37.5t5.25-97.5q2-29.5-1.75-35.75t-13.75-6.25q-8.5 0-14.75 6.75t-17.25 44.25q-13.5 46-38.25 59.5t-80.25 13.5h-54.5q-16.5 0-24-5.25t-7.5-26.75v-185q0-63 21.25-88.5t74.75-25.5h55.5q27.5 0 53.25 6t45.25 17.5q18 11.5 33 29.5t37.5 64q9.5 19.5 14.75 24.5t13.75 5q11 0 13.75-8.75t-1.25-29.25l-7.5-35.5q-2.5-13-2.5-13.25t-8.5-79.25q-1.5-14.5-6-17.25t-46.5-2.75l-115.5 1q-90 0.5-129.75 2.75t-67.75 2.25q-29.5 0-88.5-3t-89-3q-15 0-21.25 4.25t-6.25 13.75q0 8 4.25 12.25t19.25 5.25q49.5 3.5 63.75 21.75t14.25 73.75zM313 852q0-29.5-18.75-48.5t-45.75-19-45.75 19-18.75 48.5 18.75 48.5 45.75 19 45.75-19 18.75-48.5zM538.5 852q0-29.5-18.75-48.5t-45.75-19-45.75 19-18.75 48.5 18.75 48.5 45.75 19 45.75-19 18.75-48.5z" />
<glyph unicode="&#xaa;" glyph-name="copyright" data-tags="copyright" horiz-adv-x="852" d="M425.5 9q-76.5 0-144.75 29.5t-119.25 80.5q-54 53.5-82.25 122t-28.25 143q0 75 28.25 143.25t82.25 122.25q53.5 53 121.5 81.25t142.5 28.25q75 0 143-28.25t121.5-81.25q54-54 82.25-122.25t28.25-143.25q0-74.5-28.25-143t-82.25-122q-51.5-51-119.5-80.5t-145-29.5zM425.5 59.5q65 0 121 24.25t101.5 71.25q43 44.5 67 101.5t24 127.5q0 63.5-21.5 121.75t-69.5 107.75q-43 45-98.25 69.5t-124.25 24.5q-68.5 0-123.75-24.5t-98.25-69.5q-48-49.5-69.5-107.75t-21.5-121.75q0-70.5 24-127.5t67-101.5q45.5-47 101.5-71.25t120.5-24.25zM593.5 558l3-26.5q2.5-21.5-0.5-26.5t-10.5-5q-5 0-8.5 2.25t-10 13.75q-21.5 38.5-47.75 54.75t-66.75 16.25q-73 0-118-58t-45-141q0-90.5 46.5-148.5t115.5-58q27.5 0 49.75 10.25t45.25 39.75q16.5 21 19.5 28.5t11.5 19.5q2.5 4.5 5.75 6t8.25 1.5q7.5 0 10.25-7.5t0.25-35.5l-2-22.5q-2-20-9-26.75t-20-13.25q-26-13.5-59.25-20.5t-62.25-7q-100.5 0-175.75 61t-75.25 166q0 99 73.5 166.25t184.5 67.25q26 0 62.25-5.75t57.75-13.75q9.5-3.5 12.25-10t4.75-27z" />
<glyph unicode="&#xab;" glyph-name="guillemotleft" data-tags="guillemotleft" horiz-adv-x="446" d="M160.5 300l139.5-191.5q4-5.5 2.25-11.25t-8.75-5.75q-2 0-4 0.5t-4 2.5l-232.5 195.5q-4 3.5-5.5 5.75t-1.5 4.25q0 2.5 1.5 4.75t5.5 5.75l232.5 195.5q2 1.5 4 2.25t4 0.75q6.5 0 8.75-5.5t-2.25-12zM323.5 300l74.5-112.5q4.5-6.5 0.5-11t-10.5 1l-146.5 112.5q-7.5 5.5-7.5 10.25t7.5 10.25l146.5 112.5q4 3 8 2t4-6q0-1.5-0.5-3t-1.5-3z" />
<glyph unicode="&#xac;" glyph-name="logicalnot" data-tags="logicalnot" horiz-adv-x="638" d="M23.5 425v69.5h590.5v-284.5h-72.5v215h-518z" />
<glyph unicode="&#xad;" glyph-name="hyphen1" data-tags="hyphen" horiz-adv-x="397" d="M69.5 336h281.5l-22.5-73.5h-282.5z" />
<glyph unicode="&#xae;" glyph-name="registered" data-tags="registered" horiz-adv-x="852" d="M425.5 9q-76.5 0-144.75 29.5t-119.25 80.5q-54 53.5-82.25 122t-28.25 143q0 75 28.25 143.25t82.25 122.25q53.5 53 121.5 81.25t142.5 28.25q75 0 143-28.25t121.5-81.25q54-54 82.25-122.25t28.25-143.25q0-74.5-28.25-143t-82.25-122q-51.5-51-119.5-80.5t-145-29.5zM425.5 59.5q65 0 121 24.25t101.5 71.25q43 44.5 67 101.5t24 127.5q0 63.5-21.5 121.75t-69.5 107.75q-43 45-98.25 69.5t-124.25 24.5q-68.5 0-123.75-24.5t-98.25-69.5q-48-49.5-69.5-107.75t-21.5-121.75q0-70.5 24-127.5t67-101.5q45.5-47 101.5-71.25t120.5-24.25zM300 247v274.5q0 27.5-8 41.5t-38.5 15.5q-8 0.5-11.5 3.25t-3.5 7.25q0 3.5 2.25 6.5t5.75 3.5q1 0.5 2.5 0.5t4.5-0.5q14-1.5 30.5-2.25t52.5-0.75q31 0 72 1.5t53 1.5q34 0 58-7.5t40.5-22q15-13 24.25-32.25t9.25-40.25q0-46-31.25-73t-82.25-30.5v-3q13.5-2.5 24.25-11.25t19.75-25.75l69.5-127q12.5-22.5 21.75-29.5t21.25-7.5q12.5 0 16-2.75t3.5-8.25q0-5-3.5-7.75t-11.5-2.75q-5.5 0-16.5 0.5t-16.5 0.5q-7 0-24.5-1t-25.5-1q-11 0-16.25 4.25t-11.75 16.25l-76.5 148.5q-13 25-23 34t-22 9h-26q-4.5 0-6.75-3t-2.25-13.5v-115.5q0-19 2.25-29.5t6.75-15.5 13.5-8.25 22.5-4.25q8.5-0.5 12-3t3.5-7q0-6-5-8.75t-15.5-2.75q-12.5 0-38.25 1.5t-38.75 1.5-39.75-1.5-39.75-1.5q-9.5 0-14 2.75t-4.5 8.75q0 4.5 3.5 7t11.5 3q16.5 1 24 4t12 8.5q5 5.5 7.75 17t2.75 28zM373.5 538v-120q0-13.5 4-16.5t13.5-3h25.5q45.5 0 73 23t27.5 66q0 18-5.25 34.25t-16.25 28.25q-13 14-31 20.75t-54 6.75q-19.5 0-28.25-7.5t-8.75-32z" />
<glyph unicode="&#xaf;" glyph-name="hyphen3" data-tags="hyphen" horiz-adv-x="394" d="M78.5 346.5h274.5l-38-114.5h-274.5z" />
<glyph unicode="&#xb0;" glyph-name="degree" data-tags="degree" horiz-adv-x="326" d="M46 631q0 48.5 34 82.5t82.5 34q49 0 83-34t34-82.5q0-49-34-83t-83-34q-48.5 0-82.5 34t-34 83zM95 631q0-28 20-47.75t47.5-19.75q28 0 47.75 19.75t19.75 47.75q0 27.5-19.75 47.5t-47.75 20q-27.5 0-47.5-20t-20-47.5z" />
<glyph unicode="&#xb1;" glyph-name="plusminus" data-tags="plusminus" horiz-adv-x="610" d="M23.5 462h246.5v228.5h69.5v-228.5h247v-69.5h-247v-202h-69.5v202h-246.5v69.5zM23.5 137.5h563v-70h-563v70z" />
<glyph unicode="&#xb2;" glyph-name="afii10055" data-tags="afii10055" horiz-adv-x="400" d="M263 633v-496.5q0-38 16.25-55.5t62.75-19.5q13-0.5 17.75-4.5t4.75-13q0-10-6.25-14t-19.75-4q-23 0-69 3t-69 3-69.25-3-70.25-3q-12 0-18.75 5.5t-6.75 12.5q0 8 4.25 12.25t19.25 5.25q48.5 4 63.25 20.25t14.75 54.75v496.5q0 38.5-15 55t-63 19.5q-16 1.5-19.75 5.5t-3.75 12q0 9 5.25 13.25t20.25 4.25q23 0 69.5-3t70-3 69.5 3 68.5 3q16 0 21-4.25t5-13.25q0-8-4.5-12.25t-19.5-5.25q-45.5-2.5-61.5-19.5t-16-55z" />
<glyph unicode="&#xb3;" glyph-name="afii10103" data-tags="afii10103" horiz-adv-x="338" d="M233 530.5v-393q0-42.5 10.5-56t38-18q29-4.5 34-8.75t5-11.75q0-9-7.75-13t-29.25-4q-17.5 0-53.25 2t-53.25 2q-19 0-56-2t-55.5-2q-19 0-26 4.5t-7 13.5q0 6.5 4.75 10.75t13.75 5.75l20.5 3q30 4.5 39 20.25t9 53.75v249.5q0 34-10.75 44.75t-37.25 10.75h-10.5q-10 0-13.5 3.75t-3.5 10.75q0 6.5 4 10.75t22.5 9.75q28.5 8.5 55 23.5t76 57q5.5 5 10 6.75t10.5 1.75q5 0 8-2t3-34zM104 697.5q0 29 20.5 49.25t49.5 20.25 49.25-20.25 20.25-49.25-20.25-49.25-49.25-20.25-49.5 20.25-20.5 49.25z" />
<glyph unicode="&#xb4;" glyph-name="E1" data-tags="E" horiz-adv-x="757" d="M138 167.5v407.5q0 51.5-7.5 67.25t-55 21.75l-16.5 2q-16 2-24.75 10t-8.75 21q0 16.5 11.5 24.5t43.5 8q30.5 0 91-2t90.5-2q65 0 195.75 2t198.25 2q17 0 23.25-4.25t5.75-19.25q-2-32.5-2.25-56.5t2.25-100q0.5-18.5-7-26.75t-22-8.25-26 7.25-19 20.25l-13 23.5q-26 45.5-50.25 60.75t-56.25 15.25h-70q-13.5 0-19-6.5t-5.5-18v-166q0-8.5 5.5-14.5t15-6h40q15.5 0 25.25 9.5t17.75 37.5l5 17.5q5 16 14.25 24t21.75 8q15.5 0 23.5-11t8-33q0.5-18-0.75-51.5t-1.25-49q0-13.5 1.25-45t0.75-49.5q0-22-8.5-31.5t-27-9.5q-11.5 0-19 4t-30.5 62q-6 16-19.75 22.75t-37.25 6.75q-20 0-27-7.25t-7-21.25v-156q0-38.5 11.75-54t54.75-15.5q61 0 93.5 16t64.5 79.5l6 12q15.5 31 26.25 39t23.75 8q18 0 28-11.5t10-31.5q0-7-2.25-35.5t-3.75-48.5l-7.5-75.5q-1-15.5-7.25-21.5t-23.25-6q-73 0-206.5 2t-199 2q-30.5 0-92.25-2t-93.25-2q-32 0-43.5 8t-11.5 24.5q0 13.5 8.75 21t24.75 9.5l16.5 2.5q47.5 5.5 55 21.5t7.5 67.5z" />
<glyph unicode="&#xb5;" glyph-name="mu" data-tags="mu" horiz-adv-x="686" d="M218 542v-298q0-95.5 24.5-131.75t80-36.25q63.5 0 98.75 44t35.25 107.5v314.5h113.5v-386q0-50.5 7-65.75t25-15.25q5.5 0 11 1.5t34 21q9.5 6.5 16.5 3.5t7-12q0-6-5.75-14.25t-17.75-19.25q-27-24.5-52.75-36t-50.75-11.5q-30.5 0-51 19.5t-26 54.5q-2.5 16-4.25 17.75t-4.75 1.75q-4.5 0-9.5-3.25t-12-10.25q-51-48-87.25-65t-75.75-17q-51.5 0-81.75 24.5t-44.25 74h-5q9.5-106.5 21.25-181.25t11.75-96.75q0-28.5-13.75-44.5t-35.75-16q-20.5 0-32.25 15.75t-11.75 47.75q0 13 0.75 27t2.25 32.5q15.5 175.5 17.5 228.75t2 120.75v303.5h114z" />
<glyph unicode="&#xb6;" glyph-name="paragraph" data-tags="paragraph" horiz-adv-x="620" d="M379.5 742.5h178.5q14 0 19.75-3.75t5.75-13.75q0-8-6-12.5t-19.5-5q-52.5-1-68.25-19.75t-15.75-75.25v-496.5q0-83-18.75-140t-58.25-105.5q-41-50.5-95-77.5t-103.5-27q-35.5 0-59.25 22.5t-23.75 54.5q0 24.5 17.25 41.5t45.25 17q20 0 35.75-11.25t28.75-37.25q10.5-20 17.5-24.25t18.5-4.25q23.5 0 46.75 23.5t35.75 59.5q9 25 12.25 65.25t3.25 116.25v163q-147-7.5-233.75 59.5t-86.75 184.5q0 113 79 179.75t244.5 66.75z" />
<glyph unicode="&#xb7;" glyph-name="F1" data-tags="F" horiz-adv-x="693" d="M138 167.5v407.5q0 51.5-7.5 67.25t-55 21.75l-16.5 2q-16 2-24.75 10t-8.75 21q0 16.5 11.5 24.5t43.5 8q30.5 0 91-2t90.5-2q65 0 195.75 2t198.25 2q17 0 23.25-4.25t5.75-19.25q-2-32.5-2.25-56.5t2.25-100q0.5-18.5-7-26.75t-22-8.25-26 7.25-19 20.25l-13 23.5q-26 45.5-50.25 60.75t-56.25 15.25h-70q-13.5 0-19-6.5t-5.5-18v-166q0-8.5 5.5-14.5t15-6h40q15.5 0 25.25 9.5t17.75 37.5l5 17.5q5 16 14.25 24t21.75 8q15.5 0 23.5-11t8-33q0.5-18-0.75-51.5t-1.25-49q0-13.5 1.25-45t0.75-49.5q0-22-8.5-31.5t-27-9.5q-11.5 0-19 4t-30.5 62q-6 16-19.75 22.75t-37.25 6.75q-20 0-27-7.25t-7-21.25v-146.5q0-62 12-74.25t50.5-14.75l29.5-2.5q15-1 24.5-9t9.5-21.5q0-16.5-11.5-24.5t-44-8q-33.5 0-100.75 2t-100.75 2q-30.5 0-92.25-2t-93.25-2q-32 0-43.5 8t-11.5 24.5q0 13.5 8.75 21t24.75 9.5l16.5 2.5q47.5 5.5 55 21.5t7.5 67.5z" />
<glyph unicode="&#xb8;" glyph-name="G1" data-tags="G" horiz-adv-x="909" d="M806.5 255.5v-165q0-12.5-1.5-17.25t-9.5-9.25q-66-37.5-140.5-54.25t-175-16.75q-215.5 0-330 108.75t-114.5 274.75q0 172 129.25 272.75t360.25 100.75q62.5 0 121.75-9t97.25-25q17-6.5 21.25-16t6.75-44q2-36.5 3-55.75t1-31.25q0-16.5-8.5-27.25t-25.5-10.75q-9.5 0-18.5 3t-48 42l-30.5 30.5q-34 34-73 51t-77.5 17q-85.5 0-128.75-82.5t-43.25-228q0-147 49-221.5t115.5-74.5q24 0 41 12t17.5 33l2 139.5q0.5 29-8 39.25t-32 13.75l-47 7.5q-23.5 3.5-29.75 10.75t-6.25 20.75q0 18.5 12.25 27.25t38.25 8.75q36.5 0 108.75-2t108.25-2q27.5 0 83 2t84 2q24 0 34.5-7t10.5-22q0-14-7.25-22.5t-48.25-15q-23-4-32.5-15.5t-9.5-43z" />
<glyph unicode="&#xb9;" glyph-name="H1" data-tags="H" d="M580.5 336.5h-156q-17 0-22.25-6.25t-5.25-18.25v-144.5q0-41 6.5-61.75t43.5-27.25l11.5-2.5q12-2 19.25-9.75t7.25-20.75q0-18.5-12.5-25.5t-42.5-7q-27.5 0-82 2t-82 2q-31 0-92.5-2t-93-2q-32 0-43.5 8t-11.5 24.5q0 13.5 8.75 21t24.75 9.5l16.5 2.5q47.5 5.5 55 21.5t7.5 67.5v407.5q0 51.5-7.5 67.25t-55 21.75l-16.5 2q-16 2-24.75 10t-8.75 21q0 16.5 11.5 24.5t43.5 8q31.5 0 93-2t92.5-2q27.5 0 82 2t82 2q30 0 42.5-7.25t12.5-25.25q0-13-7.25-20.75t-19.25-10.25l-11.5-2q-37-7-43.5-27.5t-6.5-61.5v-126q0-12.5 5.25-18.5t22.25-6h156q17 0 22.25 6t5.25 18.5v126q0 41-6.5 61.5t-43.5 27.5l-11.5 2q-12 2.5-19.25 10.25t-7.25 20.75q0 18 12.5 25.25t42.5 7.25q27.5 0 82.25-2t81.75-2q31 0 92.75 2t92.75 2q32 0 43.5-8t11.5-24.5q0-13-8.5-21t-25-10l-16.5-2q-47.5-6-55-21.75t-7.5-67.25v-407.5q0-42 5.75-62t56.75-27l14.5-2.5q18.5-2.5 27-9.75t8.5-20.75q0-16.5-11.5-24.5t-43.5-8q-31 0-92.75 2t-92.75 2q-27 0-81.75-2t-82.25-2q-32 0-43.5 7.75t-11.5 24.75q0 13 7.25 20.75t19.25 9.75l11.5 2.5q37 6.5 43.5 27.25t6.5 61.75v144.5q0 12-5.25 18.25t-22.25 6.25z" />
<glyph unicode="&#xba;" glyph-name="I1" data-tags="I" horiz-adv-x="536" d="M138 167.5v407.5q0 51.5-7.5 67.25t-55 21.75l-16.5 2q-16 2-24.75 10t-8.75 21q0 16.5 11.5 24.5t43.5 8q31.5 0 93.25-2t92.25-2q31 0 93.75 2t94.75 2 43.5-8 11.5-24.5q0-13-8.5-21t-25-10l-16.5-2q-47.5-6-55-21.75t-7.5-67.25v-407.5q0-42 5.75-62t56.75-27l14.5-2.5q18.5-2.5 27-9.75t8.5-20.75q0-16.5-11.5-24.5t-43.5-8-94.75 2-93.75 2q-30.5 0-92.25-2t-93.25-2q-32 0-43.5 8t-11.5 24.5q0 13.5 8.75 21t24.75 9.5l16.5 2.5q47.5 5.5 55 21.5t7.5 67.5z" />
<glyph unicode="&#xbb;" glyph-name="guillemotright" data-tags="guillemotright" horiz-adv-x="446" d="M286.5 300l-140.5 191.5q-4.5 6.5-2.25 12t8.75 5.5q2 0 4-0.75t4-2.25l232.5-195.5q4-3.5 5.5-5.75t1.5-4.75q0-2-1.5-4.25t-5.5-5.75l-232.5-195.5q-2-2-4-2.5t-4-0.5q-7 0-8.75 5.75t2.25 11.25zM122.5 300l-74.5 113q-1 1.5-1.5 3t-0.5 4q0 4 4 5t8-2l146.5-112.5q7-5.5 7-10.25t-7-10.25l-146.5-112.5q-6.5-5.5-10.5-1t0.5 11z" />
<glyph unicode="&#xbc;" glyph-name="J1" data-tags="J" horiz-adv-x="544" d="M428 575v-409.5q0-134-145.25-263t-289.75-129q-62 0-94.5 25t-32.5 67.5q0 46 29.5 73.5t75 27.5q39 0 65-18t39-50.5q4.5-11.5 9.5-15.5t13-4q33 0 53.75 50.25t22.25 131.75l2 142q0.5 53-1.75 187t-4.75 185q-2 56.5-9.75 70.5t-52.75 18.5l-21.5 2q-15.5 1.5-24.5 9.75t-9 21.25q0 16.5 11.5 24.5t43.5 8q32.5 0 95.75-2t94.75-2q29.5 0 88 2t88.5 2q32 0 43.5-8t11.5-24.5q0-13-8-20.5t-25.5-10.5l-12.5-2q-42.5-7-48.25-27t-5.75-62z" />
<glyph unicode="&#xbd;" glyph-name="K1" data-tags="K" horiz-adv-x="902" d="M138 167.5v407.5q0 51.5-7.5 67.25t-55 21.75l-16.5 2q-16 2-24.75 10t-8.75 21q0 16.5 11.5 24.5t43.5 8q31.5 0 93-2t92.5-2q27.5 0 82 2t82 2q30 0 42.5-7.25t12.5-25.25q0-13-7.25-20.75t-19.25-10.25l-11.5-2q-37-7-43.5-27.5t-6.5-61.5v-143.5q0-9.5 2.75-14t7.75-4.5q16 0 84.25 78.75t90.75 116.75q6.5 11 9.25 19t2.75 13q0 8-3.75 12.75t-15.75 7.75l-15 4q-25 6.5-32 14.5t-7 21.5q0 14.5 10 21.5t31 7q27 0 80.5-2t80-2q21.5 0 64 2t64 2q23.5 0 33.25-6.75t9.75-20.75q0-15-9.25-23t-46.75-13q-56.5-7-91-24.25t-74-56.75l-35-34.5q-6.5-7-9.75-13.5t-3.25-13.5q0-5 1.5-10.25t10.5-19.25l215-336q24-37 39-53.75t39-21.75l19.5-4q16.5-3.5 23-11t6.5-20q0-17-11.75-25.75t-42.25-8.75q-31 0-90.75 2t-88.75 2q-28.5 0-87.25-2t-90.75-2q-23 0-31.5 8.25t-8.5 24.25q0 10 3.75 17.25t14.75 14.75l9.5 6q4.5 3 5.75 5.5t1.25 5.5q0 12.5-46 86.25t-79 120.75l-7 10.5q-4 5.5-9.5 8.25t-12 2.75-9-5-2.5-16.5v-134q0-41 6.5-61.75t43.5-27.25l11.5-2.5q12-2 19.25-9.75t7.25-20.75q0-18.5-12.5-25.5t-42.5-7q-25.5 0-80.25 2t-83.75 2q-31 0-92.5-2t-93-2q-32 0-43.5 8t-11.5 24.5q0 13.5 8.75 21t24.75 9.5l16.5 2.5q47.5 5.5 55 21.5t7.5 67.5z" />
<glyph unicode="&#xbe;" glyph-name="L1" data-tags="L" horiz-adv-x="726" d="M138 167.5v407.5q0 51.5-7.5 67.25t-55 21.75l-16.5 2q-16 2-24.75 10t-8.75 21q0 16.5 11.5 24.5t43.5 8q31 0 91.25-2t90.25-2h4q31 0 93.75 2t94.75 2 43.5-8 11.5-24.5q0-13-8.5-21t-25-10l-16.5-2q-47.5-6-55-21.75t-7.5-67.25v-417q0-38.5 11.75-54t54.75-15.5q82.5 0 114.5 23t53.5 76.5l6 15q12 30 23 40.75t27.5 10.75q18 0 28-11.5t10-31.5q0-6-1.5-23t-5-61l-7-87q-1.5-15.5-7.75-21.5t-23.25-6q-74.5 0-211.5 2t-204 2q-30.5 0-92.25-2t-93.25-2q-32 0-43.5 8t-11.5 24.5q0 13.5 8.75 21t24.75 9.5l16.5 2.5q47.5 5.5 55 21.5t7.5 67.5z" />
<glyph unicode="&#xbf;" glyph-name="M1" data-tags="M" horiz-adv-x="1101" d="M716.5 167.5l-10 278.5q-0.5 13-3 26.5t-5.5 13.5q-2.5 0-7.25-9t-13.25-29l-152.5-365.5q-18.5-44.5-28.5-57t-42-12.5q-31 0-40 10.5t-20.5 39.5l-153.5 396q-4 10.5-8 15.5t-6.5 5l-2-0.5t-3-59.5l-4-252q-1-51 7-67.25t55.5-21.75l16-2.5q16-2 25-9.5t9-21q0-16.5-11.5-24.5t-44-8q-18 0-54.5 2t-55 2q-17.5 0-53-2t-53.5-2q-32 0-43.5 8t-11.5 24.5q0 13.5 8.75 21t24.75 9.5l16.5 2.5q47.5 5.5 55.25 21.75t10.25 57.75l16.5 256q9 145 9 142.25t0 46.25q0 35.5-10.5 44.75t-38.5 13.75l-19.5 3q-26 4-33.5 11.25t-7.5 21.75q0 17 11.25 24.75t36.75 7.75q28.5 0 85.25-2t83.75-2q23.5 0 71.5 2t75 2q12 0 16.5-3t8-12.5l123-315q3-7.5 6.25-7.25t6.25 7.25l117.5 279.5q13 30 20.5 40.5t22.5 10.5q24.5 0 69.5-2t67-2q26 0 79.75 2t79.75 2q30.5 0 43.5-8.25t13-25.25q0-15-9.25-22.75t-29.75-10.25l-17.5-2q-32-4-45.25-14.5t-12.25-40l16.5-439q2-50 8.75-65.75t49.75-23.25l11-2.5q20.5-3.5 28.25-10.75t7.75-19.75q0-16.5-11.5-24.5t-43.5-8q-30.5 0-90 2t-89.5 2q-30.5 0-92.25-2t-93.25-2q-32 0-43.5 8t-11.5 24.5q0 13.5 9 21t24.5 9.5l16.5 2.5q49.5 6 56.75 25.25t5.75 63.75z" />
</font>
</defs>
</svg>
