<svg xmlns="http://www.w3.org/2000/svg" xmlns:xlink="http://www.w3.org/1999/xlink" viewBox="-5 5 250 73" stroke="#000" stroke-linecap="round" stroke-linejoin="round" fill="#fff" fill-rule="evenodd">
	<g fill="#e2bf57"><use xlink:href="#B" stroke="none"/>
		<use xlink:href="#B" stroke="#7a6428" stroke-linejoin="miter"/>
		<use xlink:href="#C" stroke="none"/>
		<use xlink:href="#C" stroke="#7a6428" stroke-linejoin="miter"/>
	</g>
	<g stroke="none">
		<path d="M166.2878 58.4412h77.1085v7.0683h-77.1085z"/>
		<path d="M166.2878 62.9392h74.5382v6.4257h-74.5382zm0-7.0682h74.5382v6.4257h-74.5382z"/>
		<path id="erasmus" d="M189.1083 45.472l-.036 1.1676-.3428.0397c-.3245.038-.3432.0124-.3432-.4732s-.0197-.5133-.374-.5133-.3742.0282-.3742.5048c0 .4545-.0312.505-.3117.505h-.312v3.7863h-.4194c-.3725 0-.4368.048-.509.3787-.0735.3725-.0944.3787-.883.3787h-.8008v-.8835h-1.6174l-.0368-.852-.037-.8518h-.873l-.0715.8834c-.06.73-.0753.604-.0935-.7258l-.022-1.6092h-1.1656c-.641 0-1.76-.037-2.4888-.0818l-1.3232-.0822-.037-.706-.0368-.707h-1.1226l-.0678 4.733h-.8602l-.0698-3.2184-.8106-.079v3.2975h-.4366c-.4157 0-.4367.021-.4367.4416 0 .3872-.0386.442-.3116.442-.3028 0-.3118-.0253-.3118-.8835v-.8843h-3.1107l-.07-3.2184h-4.2406l-.07 3.2184h-1.2398v2.398h2.7438v2.7768h-2.4945v1.0097h1.7464v1.64h-6.86v3.6602h6.86v2.6504h-6.86v3.6602h6.86v1.6407h-1.7464v1.0096h2.4946v2.777h-2.744v2.398h1.24l.07 3.2184h4.2407l.0698-3.2184h3.1107v-.8834c0-.8582.009-.8836.3118-.8836.273 0 .3117.0548.3117.4418 0 .4206.0208.4418.4365.4418h.4367v3.2975l.4053-.0395.4045-.0397.07-3.2182h.8602l.0678 4.7328h1.1225l.0368-.706.037-.707 1.3232-.082 2.489-.082h1.1656l.022-1.609c.0182-1.3298.0346-1.4558.0936-.7258l.0715.8837h.873l.037-.852.0368-.8518h1.6v-.8837h.8008c.7885 0 .802.006.883.3787.072.3308.1363.3786.509.3786h.4268v3.7863h.3117c.2806 0 .312.0505.312.505 0 .4767.0207.5048.374.5048s.374-.0272.374-.5133.0187-.511.343-.4732l.343.0397.0717 2.3348h1.6077l.067-6.2474.343-.0397c.3-.035.343-.0944.343-.4735v-.433h.6235c.4713 0 .6236.0463.6236.1893 0 .1367.1385.1892.499.1892h.499v6.8154h.9978v-4.29h2.9848l.0353 1.2936c.034 1.233.0487 1.2954.3162 1.334.2758.0396.2806.0175.2806-1.2938v-1.3338h1.1226v-2.5243h.998v4.0387h3.4924v-4.0387h.6234v5.8056h.7485v-5.8057h.749v5.4272h.4367c.4157 0 .4364.021.4364.4418v.4416h1.6215V77.56c0-2.0427.0168-2.2088.2245-2.2088.3925 0 .524-.2753.524-1.098 0-.4372.036-.795.0797-.795.2552 0 .4116.5284.415 1.402l.004.9602.7668.0735 1.18.0812h.4132l.036 1.0104c.0202.5654.0912 1.0107.1618 1.0107s.1406-.4453.161-1.0107l.0362-1.0104h2.11v2.9028h.6237v-2.8953h1.1226v-1.073c0-.8694.0353-1.0736.187-1.0736.1413 0 .187.147.187.631v.631h.9978c.9866 0 .998.0035.998.322 0 .4648 1.284.4286 1.3495-.0383.0255-.1825.126-.2838.2806-.2838.226 0 .241.1046.241 1.704v1.704h.873l.0135-1.6092.0936-2.3666.08-.7572.9043-.037.9043-.0372v3.0554l.4677-.0393.468-.039.0352-1.488c.055-2.3275.2765-1.6818.2765.806v2.143l2.1827-.073.0684-4.228h3.105l.0698 3.2184.9973.0375c1.65.0618 1.5595.1596 1.5595-1.6805v-1.5748h1.8708v1.0737c0 1.0602.0037 1.0728.3118 1.0728s.3118.0125.3118 1.0727v1.0736H236.4l.034-2.1772.0342-2.1772 1.4343-.0757v3.8h.7485v-4.796h2.245V70.053h5.1137v-.752l-2.588-.037c-2.554-.0363-2.5443-.0372.7484-.0656l3.3365-.0288v-1.0097l-3.3365-.0218-2.5258-.0947.8108-.0735.0735-1.5776h1.4976l-.0752-3.6622 6.548.0005v-1.7668l-3.8352-.022-3.2392-.0702.5964-.0475-.07-2.9516-1.4212-.0754-.0376-.5935-.038-.5934-.8107-.0736c-.4458-.0402.6908-.0828 2.5258-.0946l3.3365-.022v-1.0097l-3.3365-.0288c-3.2927-.0284-3.3026-.0293-.7485-.0656l2.588-.037v-.752h-5.1137v-2.6506h-2.245v-4.795h-.7485v3.8l-1.4342-.0757-.0682-4.354h-1.1167v1.0727c0 1.06-.0037 1.0727-.3118 1.0727s-.3118.0125-.3118 1.0727v1.0737h-1.8708v-1.576c0-1.84.0906-1.7425-1.5595-1.6805l-.9973.0375-.07 3.2183h-3.1048l-.0684-4.228-2.1828-.073v2.143c0 2.4878-.2214 3.1335-.2765.8063l-.035-1.488-.468-.039-.4677-.0392v3.0553l-.9043-.037-.9043-.0372-.0798-.7565c-.044-.4165-.0862-1.4815-.0935-2.3665l-.0136-1.6093h-.8732v1.704c0 1.5995-.0147 1.704-.2408 1.704-.1547 0-.2552-.1015-.2806-.2838-.0655-.4668-1.3495-.503-1.3495-.0383 0 .3187-.0112.322-.998.322h-.9977v.631c0 .4768-.0458.631-.1872.631-.1517 0-.187-.2034-.187-1.0736v-1.073h-1.1225V45.693h-.6236v2.9028h-2.1l-.0363-1.0104c-.047-1.3152-.275-1.3152-.322 0l-.036 1.0104h-.4133c-.228 0-.7584.0365-1.18.081l-.7668.0812-.004.96c-.0035.8736-.16 1.402-.415 1.402-.0438 0-.0797-.3578-.0797-.795 0-.8228-.1314-1.098-.524-1.098-.2077 0-.2244-.166-.2244-2.2086v-2.2088h-1.6216v.4418c0 .4206-.0206.4416-.4364.4416h-.4368v5.427h-.7482v-5.8057h-.7485V51.12h-.6234v-4.0387h-3.4924V51.12h-.998v-2.5242h-1.1226V47.262c0-1.3114-.005-1.3334-.2806-1.2937-.2675.0384-.2822.1-.3162 1.334l-.0353 1.2935h-2.9848v-4.291h-.998V51.12h-.5c-.3677 0-.499.0526-.499.1893 0 .143-.1524.1893-.6236.1893h-.6234v-.433c0-.38-.0433-.4383-.3432-.4735l-.343-.0397-.067-6.2476h-1.6077l-.0358 1.1674m16.9892 6.7206c0 .3118-.0125.3155-1.06.3155s-1.06-.0037-1.06-.3155.0123-.3156 1.06-.3156 1.06.0037 1.06.3156m-23.8226.1982c0 .3294-.042.3813-.2806.347-.4412-.0635-.478-.7347-.0395-.7347.2742 0 .32.0555.32.3874m-7.733 4.9767v1.199h-5.3632v2.7713l4.9266.0684v2.272l-4.9266.0684v2.8974h5.488v2.2717h-8.1075V56.1686h7.9826v1.2m65.4813 2.7765v1.5776h2.9672l.0488.5183c.027.2853.0266.711-.0005.9467l-.0494.428h-2.966v3.1554H238.16l-.035-1.5462-.0352-1.546-1.5277-.0356-1.528-.0353v-1.8776l1.528-.0356 1.5277-.0353.07-3.0922h1.8633v1.5776m-57.9666-.754c.1864.0742.2184.2607.2184 1.278v1.191l-.4678-.1003c-.583-.125-2.1393-.1314-2.4322-.0097-.2005.0832-.2183.3778-.2183 3.6286v3.5376h-2.6192V60.112l.5925-.2546c.3258-.14.901-.3162 1.2784-.393l.9354-.1964c.342-.0797 2.4433.015 2.7136.122m7.0744.252c.4925.272.7874.5486 1.0602.9967l.378.6208.038 3.749-.1438 3.8196c-.4582.178-2.8692.3677-3.8836.3046-2.521-.1553-3.6814-1.0587-3.6814-2.8663 0-2.01 1.5296-3.0056 4.6463-3.026l.5925-.004v-.5444c0-1.2846-1.8156-1.7492-3.7108-.9497l-.7795.3287V61.016c0-1.043.0042-1.057.3717-1.2502 1.3372-.6997 3.9527-.7633 5.1124-.1246m8.8906-.0986l.5925.27v1.0935c0 .8276-.038 1.0764-.156 1.0238-2.344-1.0446-3.7106-.9746-3.7106.19 0 .4647.3406.678 1.6465 1.03 2.1723.5868 2.7813 1.2452 2.7813 3.0077 0 1.3843-.3402 1.9686-1.493 2.5652-1.0247.53-3.2962.5607-4.4937.0607l-.7485-.3123-.0358-1.1718-.036-1.1715.6023.309c1.916.9822 3.7725.8918 3.7725-.1842 0-.6097-.1684-.7025-2.2764-1.2553-2.9196-.766-2.9928-4.548-.1082-5.6346.7156-.2697 2.9184-.1623 3.663.1784m9.244.0212l.6067.3004.8275-.3022c1.1105-.4056 3.6818-.4446 4.3825-.0666 1.4818.8 1.5443 1.045 1.597 5.6018l.0378 3.8176h-2.5083l-.0018-3.2498c-.0025-4.35-.3518-4.8575-2.8046-4.0662l-.374.1207.0797 7.1953h-2.512l-.0002-3.1867c-.0003-4.3903-.2853-4.8097-2.837-4.1758l-.2807.07v7.2928h-2.4945v-8.94l.6064-.204c1.9755-.664 4.5622-.7582 5.6754-.2065m25.1493-.0787l.8105.2794.0714 2.2962-.7545-.3784c-1.1083-.5558-2.4658-.636-2.9236-.1726-.667.6747-.219 1.2328 1.29 1.608 1.8922.4704 2.6187 1.062 2.8824 2.3477.5778 2.816-2.417 4.5632-5.8042 3.3863-.927-.3223-.9353-.3365-.9353-1.583v-1.1104l.7526.3806c1.9835 1.0028 4.1603.6146 3.4858-.6218-.19-.35-.2786-.3874-2.2573-.965-1.4818-.4327-2.108-1.243-2.1032-2.721.0083-2.467 2.5717-3.75 5.4853-2.7454m-13.2 3.1507c.053 4.3606.2564 4.707 2.6076 4.4376l.738-.0844v-7.6675h2.4976l-.0326 4.7013-.033 4.7014-.7482.1686c-1.1948.2688-4.5944.2616-5.3672-.0116-1.9015-.6723-2.106-1.2297-2.156-5.868l-.0396-3.6917h2.5003l.0405 3.313m-56.772-.347v.4556l.5925-.0386c.5667-.0368.5925-.055.5925-.417s-.0258-.3805-.5925-.4172l-.5925-.0384v.4556m23.762 2.7776c-1.6117.5806-.996 2.1096.8815 2.1892l1.0503.0444V64.877l-.7173.0056c-.3946.003-.94.086-1.2145.1846m-3.9304 7.13c0 .3197-.0486.3786-.3118.3786-.3056 0-.4562-.443-.2287-.6733.2348-.2375.5405-.071.5405.2947m23.8226.1893c0 .3118-.0125.3155-1.06.3155s-1.06-.0037-1.06-.3155.0123-.3155 1.06-.3155 1.06.0037 1.06.3155" fill="#004494"/>
	</g>
	<defs >
		<path id="B" d="M13.2618 51.3728l-1.0344.282-.5642.094.188.188c.282.188.094.4702-.5642.6583H11.1c-.8463.376-1.5986.9403-2.2568 1.9747-.568 1.1354-.8274 2.4-.7523 3.6674.076 1.325.4625 2.6134 1.1284 3.7614.6582 1.2224 1.4105 1.8807 2.351 2.0687 1.5045.188 2.82 0 3.9494-.7523 1.1284-.6582 1.6927-1.5045 1.5046-2.633-.0724-.3964-.2702-.759-.5642-1.0344-.221-.2342-.5792-.274-.8463-.094-.282.188-.4702.4702-.6583.9404-.376.9404-.9403 1.3165-1.6926 1.3165-.3762 0-.7523-.094-.9403-.282l-.188-1.1284-.094-1.1285c-.094-.094-.376 0-.8463.094-.6582.188-.9403.9403-.6582 1.8807 0 .7523 0 1.1284-.282 1.0344-.3762-.282-.5642-.9404-.5642-1.8807s.5642-1.8807 1.5986-2.54c1.8807-1.4105 3.7614-1.4105 5.642 0 .9403.7523 1.4105 1.5986 1.1284 2.54a8.464 8.464 0 0 1-.7523 2.2568l-.188.4702.7523-.188c.6583-.282.9403-.6582.9403-1.1284 0-.5642.3762-1.0344.9404-1.4105.4702-.282.6583-.3762.7523-.282l-.188.9403c-.5642 1.7867-2.2568 3.1032-4.9838 4.0435l-1.1285.3762.8464.094c2.3508 0 3.7613-.282 4.2315-.9404.188-.376 1.1285-.9403 2.727-1.6926 1.6926-.8463 3.3852-1.2224 4.9838-1.1284 1.3844-.0072 2.723.4948 3.7614 1.4105.376.282.6582.7523.7522 1.2225.188.5642.2822 1.0344.188 1.5045 0 .3762-.282.5642-.5642.5642-.4702 0-.6582-.282-.6582-.9403 0-1.4105-.4702-1.9748-1.5046-1.9748-.5642 0-.9403-.094-.9403-.282 0-.282-.188-.376-.8463-.47h-.5642c0 .188 0 .47.376.9403.7522 1.0344.9403 1.8807.282 2.351-.5642.5642-1.4105.376-2.54-.376-1.2224-.9404-2.82-.9404-4.5136.094-.5642.4702-1.1284.6582-1.5986.7523h-3.5733c-2.257-.188-3.9495-.3762-4.8898-.6583S8.56 65.008 8.278 64.2556c-.188-.8463-.5642-1.4105-.8463-1.6926-.376-.3762-.5642-1.6927-.5642-3.9495 0-2.351.188-3.5733.6583-3.7614.282-.188.376-.376.376-.7523 0-.188.4702-.6582 1.5046-1.4105 1.3164-.9403 1.7866-1.5045 1.4105-1.5986h-.4702c-.4702.188-.7523.094-.9403 0-.282-.282-.6583-.376-1.3165-.376-.5642 0-1.6926-.3762-3.2912-1.2225s-2.445-1.4105-2.445-1.6926c0-.4702-.282-.9403-.9404-1.6926-.6582-.8463-.9403-2.915-.7523-6.3944.094-3.4793.4702-5.454.9404-5.8302l1.5045-1.4105c.4702-.6582.9404-.9403 1.3165-.8463.3762.188.3762.6583.188 1.5046-.282.9403-.4702 1.5045-.8463 1.5986-.282 0-.6583.376-1.1284.9403s-.7523.9404-.7523 1.2225c0 .188.376.282 1.2224.282h.9404c.188.188.282.47.282 1.0344 0 .7522-.376 1.5985-1.1284 2.633-.7523.9404-1.1284 2.1628-1.3165 4.0435 0 .7523 0 1.1284.282 1.1284.282-.188.6582-.8463 1.1284-1.8806.5642-1.3165 1.1284-1.8807 1.6926-1.9748l.4702.094c-.282.094-.188.47.282 1.1284.3762.6582.7523 1.8807.9404 3.3852.188 1.0344.4702 1.7867.6582 2.1628.188.282.6583.6583 1.4105.9404 1.0344.5642 1.6927.6582 1.8807.47.282-.188.6583-.094 1.3165.282l.9403.094c-9.086-10.135-8.7988-25.5675.6583-35.357l-4.4196-.8463c-1.5986-.094-2.351 0-2.351.282l-.376 1.3165c-.188.47 0 .9403.564 1.3165.4702.47 1.0345.5642 1.6927.376.282 0 .376 0 .376.188 0 .376-.376.9403-1.2224 1.5986l-.4702.188c-1.2224.5642-2.0688.282-2.82-.9403-.188-.7523-.5642-1.0344-.9404-.9404-.282 0-.4702.4702-.4702 1.2225 0 .9403.3762 1.6926 1.1285 2.1628.5642.282.9403.7523 1.1284 1.4105.282.5642.282 1.1284.094 1.5986-.188.5642-.4702.7523-.9403.6582-.7523 0-1.2225-.282-1.5046-.5642s-.376-.188-.282.188v.6582a2.821 2.821 0 0 0 1.3165 2.1628c.6582.4702.9403 1.3165.9403 2.351 0 .5642-.282.7523-.5642.7523-.5642-.188-1.2224-.7523-1.9747-1.5986-.6582-.6582-.9404-1.3165-1.1284-2.0688-.094-.7522-.188-2.3508-.094-4.9838 0-3.7614.282-5.9242.7523-6.3944.6583-.9403 1.8807-1.5045 3.4793-1.8807 1.5986-.282 2.915-.282 3.9495.188.6582.376.9403.376.9403.282 0-.282-.4702-.5642-1.1284-.9403-.8463-.4702-1.2224-.7523-1.2224-.9404 0-.282-.5643-.6582-1.7867-1.0344-1.2225-.47-1.9747-.5642-2.445-.47-.6583.188-1.2225.282-1.8807.282-.3762 0-.6583-.094-.8463-.3762L.8492 8.869l.094-1.6926c.094-.188.376-.188.9403 0 .188.188.4702.282.8463.376.376.188.6582.188.8463.188s.3762 0 .3762-.188L2.2597 5.672c-.4828-.4708-.8945-1.0093-1.2224-1.5986-.188-.282-.188-.7523 0-1.3165.282-.7522.5642-1.3165 1.0344-1.5986s.9403-.282 1.5045 0c.4702.188.6583 1.1285.6583 3.0092l.188 3.197c.094.094.282 0 .5642-.47.8464-1.5046 1.3165-2.821 1.4106-4.1376v-.282c0-.5642.188-.9403.564-1.3165.2822-.282.3762.188.4702 1.3165l.094 2.445c0 2.445.282 3.8555.7522 4.3256.188.188.3762 0 .4702-.376l.188-1.7867c0-.9403.188-1.6926.4702-2.1628.282-.5642.8463-1.2224 1.7866-1.9747.9404-.9403 1.6926-1.4105 2.0688-1.5986s1.3165-.282 2.821-.376c1.8806 0 2.82 0 2.82.188s.4702.4702 1.3165.8464c.7522.376 1.3165.5642 1.6926.5642.4702 0 .9404-.188 1.1284-.5642s.8463-.7523 1.8807-.9404c.9404-.188 1.7867-.188 2.257.094s.7522.9404.6582 1.6927v1.0344c.188.094.5642 0 1.1284-.2822.8463-.47 1.5046-.9403 2.0688-1.5045C31.9747.876 32.915.5 33.3853.782l-.094.376-.5642.5642c-.6582.6583-.9403.9404-.9403 1.2225s-.3762.7523-1.0344 1.4105C30 5.0137 29.3418 5.4838 28.8716 5.672c-.5642.188-1.2225.282-1.8807.188-1.5433-.3614-3.0087-.9985-4.3256-1.8807a9.309 9.309 0 0 0-4.8898-1.5046c-.4702 0-.7523 0-.8463.188l.9403.9403c.7523.5643 1.1284 1.4106 1.2225 2.445s-.094 1.8807-.7523 2.539l-.3762.4702-.376.282-.188-.094-.094-.376c-.188-.4702 0-.8463.376-1.2225.3762-.282.3762-.6582 0-1.1284-.324-.47-.783-.8307-1.3165-1.0344-.282-.094-.376-.376-.282-.9403 0-.282 0-.4702-.188-.5642l-1.6927-.094c-1.4105 0-2.3508.282-2.915.9403-.3762.4702-.5643.7523-.4702.8463l.5642.094c.4702 0 .9404-.094 1.4105-.47s.6583-.3762.6583 0 .376.7523 1.0344 1.2224l.7523.7523-.9404.4702c-.8463.188-1.4106.6582-1.6926 1.2224-.3345.7468-.5563 1.54-.6583 2.351 0 .376.188.8463.7523 1.3165.8463.7523 1.5045 1.2224 2.0688 1.5045a29.151 29.151 0 0 1 18.4308-7.4287c6.742.2814 13.1824 2.871 18.2427 7.3347a13.622 13.622 0 0 0 1.3165.2821c.188.094.7523-.282 1.8807-1.0344 1.1385-1.01 1.9832-2.3105 2.445-3.7614.7523-1.9747.8463-3.197.3762-3.5733-.3762-.282-.7523-.7523-1.2225-1.4105-.376-.376-.9403-.6582-1.5986-.7523a2.821 2.821 0 0 0-1.8807.3762c-.5642.282-.9403.7522-1.1284 1.4105-.188.5642-.188.7523 0 .7523l.376-.188c.7523-.6583 1.3165-.6583 1.5986 0s.188 1.4105-.47 2.2568c-.3762.4702-1.1285.6583-2.0688.5642-1.0344-.094-1.5046-.094-1.5046.094s.4702.5642 1.4106.9403c.8463.4702 1.2224.7523 1.1284.9404-.188.188-.9404 0-2.351-.7523-.6353-.2986-1.2094-.7132-1.6926-1.2225-.282-.282-.3762-.8463-.3762-1.5045 0-.9404.2822-1.8807.7523-2.445s1.4105-1.2225 2.821-1.7867c1.1284-.5642 1.5985-.9403 1.2224-.9403-.5642 0-1.5986.188-2.82.6582-1.3165.376-1.9748.6582-1.9748.8463s-.282.282-.9403.282c-.4702 0-.9403.282-1.5986.7523-.6582.5642-1.4105.9403-2.2568 1.0344-.7523.188-1.5986.282-2.54.188-.8463-.188-1.2224-.3762-1.2224-.5643 0-.282-.3762-.47-.9404-.5642-.6582-.094-.9403-.376-.9403-.7522 0-.282-.376-.7523-1.2225-1.4106-1.2224-.9403-1.5045-1.5045-.9403-1.8807h.5642c.4702 0 .9403.282 1.2225 1.1285.282.7522.9403 1.4105 1.9747 1.7866 1.3165.4702 1.9747.5642 2.0687.188 0-.094-.188-.3762-.6582-.6583h-.188c-.5642-.47-.9403-.9403-.9403-1.5045 0-.6583.376-.9404 1.0344-1.1284h.5642A17.273 17.273 0 0 1 41.6603.5c.4702 0 1.0344.188 1.8807.5642.6583.376 1.0344.6582 1.0344.9404 0 .188.188.376.5642.47h1.5986c.6582-.188.9403-.376.9403-.6582 0-.3762 2.0688-.6583 6.1123-.6583h2.82l1.1285 2.0688c.8463 1.4105 1.2224 2.915 1.2224 4.6077 0 1.5986-.376 2.821-1.1284 3.5733-1.1343 1.253-2.2318 2.5386-3.2912 3.8555.282.094.9403-.188 2.1628-1.1285 1.2224-.8463 2.0687-1.5986 2.633-2.3508 1.5045-1.8807 1.7866-4.2316.6582-6.9586C58.6806 2.0046 58.9627.5 60.5613.5c.7523 0 1.1284.188 1.1284.4702V2.851l.188 1.4105.8463-1.5986c.376-.9404.9404-1.5046 1.3165-1.6926C64.5108.688 65.357.5 66.3915.5c.9403 0 1.4105.376 1.5986.9403.282.7523.188 1.8807 0 3.7614-.2822 1.6927-.5642 2.633-.9404 2.727h-.376v-.2822c.094 0 .188-.094.094-.282 0-.188 0-.376-.188-.5642-.2822-.282-.4702-.188-.4702.4702v.7523c0 1.2224-.4702 2.0687-1.3165 2.539l-1.1284.7523-.094-1.2225c0-1.0343-.282-1.6926-.7522-1.6926-.2822 0-.5643.3762-.8464 1.0344a8.37 8.37 0 0 1-2.1627 3.1972c-1.4106 1.5045-2.0688 2.2568-1.7867 2.445 0 0 .188 0 .4702-.282.282-.094 1.1283-.282 2.539-.3762 2.445-.094 4.3256.7523 5.642 2.54 1.2225 1.7867 1.9747 4.7017 2.2568 8.5572l.094 2.633c0 .9404-.094 1.5046-.282 1.8807-1.1247 1.4504-2.8667 2.2866-4.7018 2.257-1.3165-.094-2.0688-.282-2.2568-.7523l.094-.3762h.9404c1.1284.282 2.0687 0 3.009-.5642s1.4105-1.2224 1.4105-2.0687c.0336-1.0986.0963-2.196.188-3.2913-.2822 0-.5643.5643-.9404 1.5986-.5642 1.4106-1.5045 2.1628-2.82 2.1628-.6583 0-.8463-.376-.4702-1.2224l.6582-.9404c.188-.282.282-.47.094-.47l-.9404.188-1.0344.282c-.188 0-.282-.282-.282-.47 0-.3762.4702-.9404 1.3165-1.5046.9404-.6582 1.5046-.9403 1.7867-.7523.282 0 .5642-.5642.8463-1.8807.282-1.4105.376-2.3508.282-2.82 0-.5642-.188-.7523-.5642-.7523-.4702 0-.5642.188-.376.6583.282.5642.282.8463-.094.9403-.376 0-.6582.4702-.9403 1.3165l-.5643.9403c-.282.188-.6582.188-1.3164.188-.9404 0-1.6927-.282-2.0688-.9403a18.785 18.785 0 0 0-1.0344-1.5046c-.282-.282-.094-.4702.5642-.4702s.9404 0 .9404.282c0 .3762.282.4702.9403.188l.5642-.5642c.188-.5642.4702-.9403.7523-1.2225l.094-.376-.3762.188-.4702.282-.188-.094v-.47c0-.3762-.5642-.9404-1.5986-1.3165-.9404-.5642-1.8807-.7523-2.445-.5642-.6583 0-.9404 0-.9404-.3762l-.094-.282-.9404.3762c-.7522.47-1.4105.5642-2.0687.376 4.3204 4.4663 6.7464 10.4302 6.7705 16.6442 0 6.5824-1.5986 12.2245-4.7958 16.9262 2.351.9404 3.6674 1.4106 3.7614 1.6927l.6582.7522.6583.9404.376.282c.3762 0 .5642.094.5642.4702 0 .282.282.376.6583.376s.5642-.094.5642-.376c0-.3762.282-.4702.6582-.4702.4702 0 .7523.094.9404.4702.6582.6582 1.3165.47 2.1628-.5642.376-.3762.47-.7523.47-.9404s-.282-.4702-.7522-.9403c-.5642-.4702-.9404-.9404-.9404-1.2225 0-.376.188-.376.3762-.188.188.282.7523.6583 1.5986 1.1285.9403.47 1.4105 1.1284 1.5045 1.9747 0 .8463-.376 1.6926-1.2225 2.539-.4866.4534-.957.924-1.4105 1.4105l-.47.3762c-.3762.4702-.7523.6582-1.1285.6582-.282 0-.47-.094-.47-.47 0-.4702-.5642-1.1285-1.5986-1.8807-.5642-.3762-.9404-.4702-.9404-.282a26.894 26.894 0 0 0 3.7614 7.2406c.094.094.188.094.3762 0l.376-.376c.5642-.5642.9403-.7523 1.2225-.5642.282.282.4702.7523.4702 1.6926 0 1.1284-.3762 1.8807-1.0345 2.351l-.9403.6582-1.1284-.6582c-.6583-.376-1.1284-.9404-1.5046-1.5046l-.376-.9403-1.2225.6582c-1.2224.7523-1.8806.9404-2.2568.4702-.094-.094 0-.282.094-.4702.2822-.376.4702-1.0344.7523-1.8807.282-.9403.6582-1.5045 1.2225-1.5045.47-.094.7522-.5642.7522-1.2225s-.282-1.5045-.9403-2.445c-.4317-.6578-.809-1.3497-1.1284-2.0687l-.376-.7523c-.6583-1.3165-1.2225-2.0688-1.7867-2.351-.188-.188-.282 0-.282.188 0 .9403.47 1.8807 1.1284 3.197.6582 1.2225.9404 2.163.9404 2.821 0 .8463-.2822 2.1628-.9404 3.9495-.282 1.0343-.6583 1.8807-1.0344 2.3508s-.9403.9404-1.7866 1.4106l-2.257.9403-4.4196.094c-3.1972 0-4.7018-.094-4.7018-.282s.4702-.282 1.5986-.282c1.2685-.0005 2.532-.1584 3.7614-.47 0-.094-.188-.188-.6582-.188-.5642-.094-1.1285-.5642-1.6927-1.3165-.376-.6583-1.2224-1.1284-2.445-1.4105L43.54 62.469l.282 1.1284c.188.7523 0 1.3165-.4702 1.7867l-.7523.6583-1.1284-.7523c-.7522-.4702-1.1284-.9404-1.1284-1.2225 0-.376-.282-.5642-.9403-.5642-.5642 0-.9404 0-1.2225.3762-.376.5642-.47.9403-.282 1.3164.094.2822.5642.4702 1.4105.6583 1.0344.282 1.5986.4702 1.5986.6582s-.5642.282-1.6926.282c-1.0344 0-1.8807 0-2.445-.282-.5642-.188-.7523-.9403-.376-2.1628s.9403-1.8807 1.6926-2.2568l4.1375-1.5046a5.642 5.642 0 0 1 1.5986.1881c.5642.188.7523.376.7523.5642s.5642.4702 1.5045.8463c1.0344.282 1.5986.5642 1.5986.9404 0 .282.188.47.6583.47.376 0 .4702-.188.188-.5642-.7522-.8463-.9403-1.8807-.564-3.4793.282-1.5045.9403-2.3508 1.8806-2.539 1.8808-.282 3.4793.188 4.7018 1.4105.5642.7523.9403 1.4106.9403 2.1628 0 .6583-.188 1.1285-.6582 1.3165-.282 0-.3762 0-.3762-.282l.094-.8463c.188-.5642.282-.9403.094-1.2225 0-.282-.376-.5642-.9403-.7522-1.4106-.7523-2.351-.9404-2.821-.3762v.5642c.3762.5642.4702 1.1285.4702 1.6927 0 .47.188.7523.5642.7523s.5642.188.5642.5642c0 .47-.4702.5642-1.4105.47s-1.4105 0-1.5046.094c0 .188.188.6582.8464 1.4105.47.5642 1.1283.9403 1.8806 1.2224.6583.188 1.1285.188 1.3165-.094s.4702-.5642.9404-.7523c1.2898-.6075 2.3937-1.549 3.1972-2.727.6582-.9403.9403-2.351.9403-4.2315a8.462 8.462 0 0 0-.9403-3.7614 8.933 8.933 0 0 0-2.633-3.1032 24.073 24.073 0 0 1-9.6856 7.7109 26.8 26.8 0 0 1-22.7564 0 28.68 28.68 0 0 1-9.4035-6.8646zm17.3964-3.009c.4702-.376.9404-.4702 1.4106-.094.47.282.9403.282 1.5045 0 .3762-.282.6583-.3762.8463-.3762l.7523.3762c.3762.282.6582.376.8463.376a2.82 2.82 0 0 0 .9404-.3761l1.1284-.282c.188 0 .4702.282.7523.6582.376.4702.5642.7523.5642.9404s-.188.376-.5642.6582c-.6583.376-1.4106.6583-2.351.6583-.6583 0-1.1284 0-1.3165.282-.282.094-.376.376-.094.5642l1.2224.5642c1.0344.188 1.5986.5642 1.5986 1.1284 0 .6582-.376 1.2224-1.0343 1.8807-.6583.4702-1.3165.8463-2.0688.8463-1.5986 0-1.9748-1.2224-1.2225-3.7614.4702-1.3165.5642-2.0688.282-2.1628h-.188l-.094.4702c0 .282-.376.5642-.9403.5642-.7523.094-1.4106 0-1.9748-.376-.47-.188-.7523-.5643-.7523-1.1285s.2822-1.0344.7523-1.4105zm7.3347-3.5733c0-.3762.094-.5642.2822-.5642.188.376.188.7523 0 1.0344-.188 0-.2822-.188-.2822-.4702zm-.8463-3.5733c.4702.6582.3762 1.4105 0 2.539-.5642 1.2225-.9403 1.8807-1.3165 1.7867-.282 0-.47-.4702-.47-1.3165 0-.9404-.094-1.5046-.4702-1.4105-.376 0-.6582.9403-.7523 2.445 0 1.1284-.188 1.5986-.282 1.5045l-.094-.188-.7523-2.727c-.188-.47-.4702-.7522-.7523-.6582-.376 0-.5642.282-.5642.7523 0 .6582-.282.8463-.9403.5642l-.9404-.9404c-.47-.8463-.47-1.3164 0-1.4105.3762 0 .4702-.282.2822-.6582-.1882-.188-.094-.4702 0-.7523l.7522-.9404.5642-.9403-.094-.6582h-.5642c-.188.188-.3762.188-.5642.094-.188 0-.3762-.282-.5642-.5642l-.3762-1.1284-.094-.5642c-.188 0-.4702.376-.7523.8463l-.7523 1.2224-.282-1.4105-.282-.8463-.094 1.4105-.282 1.5986c-.188.188-.5642.282-1.2225.188-2.0687-.094-3.103-.5642-2.82-1.2225 0-.4702.47-.8463 1.4105-1.3165 1.5986-.6582 1.8807-1.1284.8463-1.4105h-.188c-.564 0-1.5045.188-2.82.7523-1.1284.6582-1.8807 1.2224-2.0687 1.8807-.094.376.282 1.3165 1.1283 2.915l.2822.5642a7.89 7.89 0 0 0 .5642 1.1284l.094.188v.47l-.094.188-.094.282c-.188.6583-.5642 1.2225-.9403 1.6926-.4702.5642-.9403.8463-1.3165.8463-.5642 0-.6583-.282-.188-.7522 0 0 0-.188.188-.282l.4702-.4702c.359-.4197.5587-.9524.5642-1.5046 0-.188-.094-.47-.282-.6582l-.5642-.5642a7.531 7.531 0 0 0-.9404-.3762l-.9403-.376c-1.1285-.4702-1.6926-1.2225-1.6926-2.1628 0-.4702.094-.9404.376-1.4105l.6582-1.1284.3762-.3762c.188 0 .376.6583.5642 1.6926.094 1.0344.282 1.5986.4702 1.6927l.47-1.3165.188-.6583c.188-.9403.376-1.5045.5642-1.7866.282-.188.7523-.3762 1.5046-.4702 1.1284 0 2.1628-.282 3.197-.6582l1.5046-.6583-1.4105-.5642c-.7523-.376-1.2225-.8463-1.3165-1.3165-.094-.5642.094-.9403.7523-1.3165s1.5045-.282 2.445.188c.5642.376.9403.7523.7523 1.2225-.188.5642 0 .9403.6582 1.3165.7523.282 1.2224.47 1.5046.376.188-.094.282-.376.094-.9404 0-.282.188-.8463.7523-1.5045.6582-.6583.9403-1.0344.9403-1.2225 0-.5642-.376-.9403-.9403-1.5045-.7523-.4702-.9404-1.3165-.7523-2.633.282-1.3165.5642-2.0688.9403-2.2568.282-.2822.5643-.188.6583.47.094.4702.47.7523 1.0344.8463.5642 0 1.0344-.188 1.3165-.7522.188-.3762.188-.9404.188-1.6927l-.188-2.445-.188-1.1284c-.188-1.8807-.6583-2.82-1.3165-3.009-.4702 0-.7523.094-.7523.4702 0 .5642-.188.5642-.6582 0-.376-.4702-.5643-1.1284-.7523-1.7867v-1.1284c0-.188.3762-.188.9403-.094h.9404v-.8464l-.8463-1.7866c-.188-.376-.188-.5642-.094-.6583l1.2225.188c1.1284.188 1.7866.188 1.8807 0 .188 0 .188.094.188.3762l-.094 1.2224c-.282 1.0344-.188 1.5986.282 1.5986.4702-.188.6583-.376.6583-.6582 0-.3762.282-.4702.9403-.4702.5642 0 .9403 0 .9403.282s-.376.7523-1.1283 1.4105c-.6583.6583-1.1285.9404-1.4106.9404-.094.188-.188.376-.094.5642l.094 1.5045a32.898 32.898 0 0 1 0 4.8898v2.821c0 .47 0 .6582.282.5642.188 0 .3762-.282.4702-.6583l.282-.6582.188-.4702h.094l.4702.094.4702.094c.4702.188.6582.4702.7522.9403.0476.6284.016 1.2603-.094 1.8807-.282 1.7867-.7523 2.821-1.3165 3.3853-.6582.6582-.9403.9403-.9403 1.2224l.5642-.188 1.3164-.8463c.3762-.2822.5643-.5642.5643-.6583 0-.188.188-.376.6582-.5642.3762-.094.3762.094 0 .6583-.376.376-.5642.9403-.5642 1.5985v.7523l.7523-.7523 1.5045-.5642 1.6927-.282c.47 0 .7523.094.9403.282 0 .188.188.282.8463.282.9404 0 1.1285.188.4702.7523-.094.188-.4702.282-.8463.4702-.9404.4702-1.2225.9403-.9404 1.3165v.47c0 .094-.188.188-.282.094l-.094.282c0 .282.8463.5642 2.257.7523 1.6926.376 1.8806 1.2224.6582 2.539-.5857.6595-1.3845 1.0922-2.2568 1.2225a4.702 4.702 0 0 1-2.633-.1881c-.6583-.188-1.0344-.7523-1.3165-1.5046-.188-.376-.376-.5642-.7523-.47s-.9403.376-1.5986.9403a3.761 3.761 0 0 1-.5642.2821 1.88 1.88 0 0 0-.6582.3762c-.094.094-.188.282-.094.376.188.5642.5642 1.1284 1.3165 1.5986s1.2225.9403 1.4105 1.1284zm-3.7613-7.617c.47 0 .7522 0 .9403.282.376.2822.4702.5643.4702.9404 0 .5642-.3762.9404-1.0344.9404-.376 0-.7523-.188-1.1284-.3762s-.5642-.376-.5642-.6582c0-.7523.47-1.1285 1.3165-1.1285zm-2.821 1.1285c0 .9403.282 1.6926.7523 2.0687.4702.282 1.3165.4702 2.539.4702.5642 0 1.2225-.282 1.9747-.9403.8463-.5642 1.2225-1.2225 1.2225-2.0688 0-.7523-.282-1.4105-.7523-1.7867s-1.3165-.5642-2.633-.5642c-.564 0-1.2224.282-1.8806.9404-.7523.7522-1.1285 1.3165-1.1285 1.8807zM16.46 20.0592c0-.188.282-.188.9403-.094.8464.188 1.5046.6582 2.0688 1.4105a4.702 4.702 0 0 1 .9404 2.8211c0 .9403-.2822 1.8807-.5642 2.915l-.4702 2.0688c0 .6582.282 1.3165.9403 2.2568.5642.8464 1.1284 1.4106 1.4105 1.5986 1.0344.4702 1.5046.8463 1.5046 1.0344 0 .7523-1.1284.282-3.5733-1.4105l-1.5986-.9403c-.282 0-.3762.094-.3762.282 0 .8463 0 1.2224-.188 1.2224s-.5642 0-1.0344-.282c-.4702-.188-.8463-.4702-.9404-.7523-.188-.376-.282-.9403-.282-1.7866 0-1.2225.564-2.633 1.6926-4.1376 1.1284-1.5986 1.6926-2.633 1.6926-3.2912 0-.9403-.4702-1.5986-1.3165-2.1628-.5642-.282-.9404-.5642-.9404-.7523zm30.3732-.9403c0-.282.188-.4702.282-.5642.188-.094.282-.188.3762-.094.188 0 0 .8464-.4702 2.351-.376.9404-.5642 1.6926-.5642 2.0688s.282.7523.7523 1.2224c.6582.5642 1.1284 1.1284 1.2224 1.5986.188.6583.282.6583.3762 0 0-.5642-.094-.9403-.5643-1.4105-.47-.376-.5642-.9404-.188-1.7867l.47-1.1284.4702 1.2225c.282.9403.4702 2.2568.3762 3.9494 0 1.6927-.282 2.821-.5642 3.6674-.4702.8463-1.1285 1.4105-1.8807 1.6926-.7523.188-1.1284.5642-1.1284.9404 0 .4702-.2822.6582-.9404.6582-.5642 0-.9404-.094-.9404-.282s.2822-.4702.8463-.7523c2.0688-1.1284 3.0092-1.9747 3.0092-2.82 0-.7523-.3762-1.7867-1.1284-3.1032-.5898-.936-.9447-2.0005-1.0344-3.103 0-.9404.376-2.445 1.2224-4.3256zM1.2253 51.561c.282-.188.5643-.188.6583-.188l1.8807.6583 2.0688.7522 1.1283-.7522c1.4106-.7523 2.257-.9404 2.633-.7523.188.188-.094.6582-1.1284 1.2224h-.188c-1.9747 1.0344-3.009 3.8555-3.197 8.4632 0 2.0687-.282 3.3852-.7523 4.0435-.376.7523-1.1284 1.0344-2.2568 1.0344-.7523 0-1.1284 0-1.3165-.188v-1.5986c.094-1.1284.282-1.8807.6582-2.0688.282-.094.188-.7522-.376-1.7866-.9404-1.5986-.6583-2.821.9403-3.3853.9404-.188 1.3165-.5642 1.2225-.9403 0-.188-.282-.282-.8463-.282s-.9404-.188-1.2225-.6583c-.188-.4702-.282-1.1284-.282-2.0687s.188-1.4106.376-1.5046zM62.066 35.857l-.188-.4702.9404.5642c.6582.5642 1.3164.7523 2.0687.7523.6657.0318 1.2987.2983 1.7867.7523.5642.5642 1.1284.8463 1.5045.8463.9404 0 1.2225 1.0344.5643 3.1972-.2822.9403-.7523 2.0687-1.4106 3.1972-.735 1.5555-1.7557 2.96-3.009 4.1375-.9404.6582-2.2568 1.0344-4.1375 1.2224-.7523.094-1.3165.282-1.5046.4702-.094.094-.5642 0-1.1284-.282-.8463-.376-.8463-.5642 0-.6582l.9404-.094c.7522 0 1.0343-.188.9403-.47l.094-.2822.5642-.282c.5643 0 .7523-.282.6583-.6582-.2272-.6716-.3848-1.365-.4702-2.0688v-1.4105l.4702.188c.6582.376.9403.5642 1.2224.4702s.3762-.5643.4702-1.2225v-1.2224l.4702 1.1284c.47.9403.6582 1.8807.6582 2.539v1.3165l.9404-.9403c.5642-.7523.9403-1.5046.8463-2.257 0-.8463-.4702-1.5045-1.1284-2.1628-.9404-.7523-1.3165-1.4105-1.3165-2.1628 0-.4702.094-.7523.282-.8463h1.3165l1.2224.094s0-.188-.376-.5642l-1.8807-1.4105c-.6582-.4702-1.1284-.9403-1.4105-1.5045zM65.451 3.415c.3762-.6583.3762-.9404 0-.9404-1.3165 0-2.0688.7523-2.351 2.1628-.188.6583-.188 1.1284 0 1.3165 0 .094.282.188.7523 0l1.5986-.188c.282 0 .3762 0 .4702-.282v-.5642a.752.752 0 0 0-.4702-.4701c-.47 0-.47-.3762 0-.9404zM9.0302 9.9035l-1.1284-.5642c-.5642-.282-1.0344-.3762-1.5045-.3762-.3762 0-.6583 0-.7523.188 0 .282.188.4702.5642.6582.7522.282 1.8807 1.1285 3.1972 2.445 1.5045 1.4106 2.445 2.1628 2.82 2.1628.5642 0 .5642-.282 0-.9403L11.1 12.5364c-.7523-.376-1.0344-.9403-1.0344-1.5045 0-.282 0-.5642-.188-.7523l-.282-.188c-.282.094-.47 0-.6582-.188zm18.0547 32.724c-.282.6582-.188 1.3165.282 1.8807 1.0344 1.8807 1.3165 3.009.8463 3.7614-.282.47-.9403.47-1.6926 0-.5642-.4702-.9403-.4702-.9403-.188 0 .4702.47 1.1284 1.2224 2.0688s1.4105 1.5986 1.9748 1.8807c1.2224.5642 1.3165.9403.47 1.1284h-.188c-.7522.188-3.197-.9404-7.3347-3.3853-.282-.094-.9403-.188-1.8806 0a17.867 17.867 0 0 0 15.1395 8.1811c7.1467 0 12.2246-3.009 15.3277-9.0274-1.0344 0-2.0688.282-3.1972.7523l-3.009 1.6926c-.9403.5642-1.5046.9404-1.8807 1.0344-.9403.376-1.8807.4702-2.3508.188-.2822-.094-.4702-.282-.4702-.3762 0-.188 0-.282.188-.376s.4702-.094.7523 0c.282 0 .9404-.188 1.7867-.9403a4.702 4.702 0 0 0 1.5046-2.633c.282-1.2225.188-2.1628-.188-2.821-.282-.47-.5642-.6582-.5642-.376 0 .188-.2822.282-.7523.094h-.4702c0 .188 0 .282.188.4702.282.4702.094.9404-.3762 1.6926l-.8463 1.1284-.47-1.1284c-.4534-1.0407-.7085-2.157-.7523-3.2912-.188-1.5045-.5642-2.539-1.1284-3.103-.6583-.6583-1.0344-1.2225-1.0344-1.5046 0-.376-.282-.7523-.9404-.9403-.5642-.3762-.7522-.5643-.4702-.6583.4702-.282 1.0345 0 1.6927.7523.8463.9403 2.539 2.1628 5.266 3.5733.5642.188.9404.5642 1.0344.9404l.094.47a18.954 18.954 0 0 1 .4702 1.3165c.5643 1.7867.5643 3.1032 0 4.1376-.282.47-.282.7522.188.7522.3762 0 .6582-.188.9403-.5642l.4702-.282c.617-.1942 1.245-.3512 1.8807-.4702.6582-.188.9404-.5642.9404-.9403 0-.5642-.094-.6582-.4702-.376 0 0-.188 0-.282-.188a3.762 3.762 0 0 1-.4702-.8463l-.5642-1.3165a8.087 8.087 0 0 1 0-4.9839c.4702-1.4105.6582-2.3508.6582-2.727-.028-.7038-.1545-1.4002-.376-2.0687-.282-.9404-.188-1.5046.282-1.5046.3762 0 .7523.188.9403.5642.2822.3762.2822.7523 0 .9404-.188.094-.188.188-.094.188h.3762c.47-.188.9403.188 1.2224 1.1285.6582 1.7866.7523 3.5733.282 5.266-.188.5642-.376.9404-.6582 1.2225-.3762.282-.7523 0-1.1285-.9404-.188-.376-.188-.9403-.188-1.3165-.094-.7523-.282-1.0344-.5642-.9403-.3762.094-.4702 1.0344-.282 2.633.188 1.6926.5642 2.633 1.0343 3.009.6583.376.9404.9403.9404 1.5986 0 .5642.188.9403.5642.9403l.6582.188c1.6927-3.8554 2.54-8.7453 2.54-14.4814 0-8.087-2.1628-14.3873-6.5824-18.807l-1.3165-.5643c-.5643-.376-1.2225-.5642-2.0688-.7522-.8463-.282-1.5046-.3762-2.0687-.3762-.4702 0-.7523 0-.9404.282 0 .094-.282.282-.9404.3762-.7522 0-1.4105.376-1.8807.7522s-.47.4702-.188.4702h1.5986c1.3165-.094 2.1628 0 2.539.3762.188.282.7523.7522 1.5986 1.3164.4702.3762.8463.7523.9403 1.1285v2.633c-.282 1.9748-.5642 3.1032-1.0343 3.3853-.4702.188-.7523.5642-.7523.9403 0 .282-.188.6583-.6583 1.2225-.376.5642-.9403.9403-1.3164 1.3165-.4702.376-.7523.4702-.9404.376-.188-.282 0-.5642.5642-.6582.5642-.188.8463-1.1284.8463-2.633 0-.9404-.094-1.5986-.282-1.9747-.188-.4702-.5642-.9404-1.1284-1.4106-1.1284-.8463-1.5986-1.5985-1.3165-2.3508s1.1285-1.1284 2.54-1.1284c.7523 0 1.0343-.188 1.0343-.4702s-.47-.6583-1.1284-1.0344c-.8463-.4702-1.2224-.6582-1.2224-.376s-.3762.376-.9404.376-1.1284.188-1.7866.6582l-.9404.6583v-.8463c0-.5642.4702-1.3165 1.4106-2.257 1.5045-1.4105 3.3852-1.8807 5.736-1.5986.9404 0 1.6927.188 2.0688.2822-3.2912-2.54-7.2407-3.7614-11.7543-3.7614-6.2063 0-11.096 1.9747-14.7635 6.0182l1.2225-.188 1.3165-.6582c1.503-.7057 3.08-1.2418 4.7017-1.5986.376 0 1.0344.376 1.8807 1.0344.9403.6582 1.4105 1.2224 1.4105 1.5986s-.188.6582-.6582.8463c-.4702.094-.9404 0-1.4105-.282-.6583-.4702-1.5986-.188-2.821.9403-.376.3762-.5642.6583-.376 1.0344.094.376.47.4702.9403.376.5642-.188.9404 0 1.4105.3762.4702.47.5643 1.1284.5643 1.8807v5.83c.094.6583.6582 1.5046 1.5985 2.54l1.7867 2.0687c-.094 0-.376 0-.9403-.282-.9404-.376-1.3165-.6582-1.3165-.9403l-1.4106-1.3165c-1.1284-.7523-2.1628-1.8807-3.103-3.4793s-1.5986-3.1972-1.9748-4.7017c-.188-1.0344.2822-2.0688 1.3165-3.1972.9404-.9404 1.6927-1.5986 2.1628-1.8807.5643-.282 1.2225-.282 1.8808-.282.6582.094 1.0343 0 1.1284-.188 0-.188-.188-.4702-.7523-.6582-.9404-.5642-2.539-.282-4.7958.7523a17.479 17.479 0 0 0-2.1628.9403l-.5642.188-.5642.094h-1.4105c-2.821 3.5733-4.2316 7.899-4.2316 13.0708.2383 7.096 2.4174 13.991 6.3003 19.9354l1.4106-.376c.7522.094 1.2224.188 1.2224.376 0 .094.7523.5642 2.257 1.3165 1.3164.6583 1.8806.9404 1.6926.6583-1.4106-1.8807-2.257-3.1972-2.445-3.7614-.188-.4702-.188-1.4106.188-2.54a8.557 8.557 0 0 1 2.2569-3.2912c1.1284-1.1284 1.8806-1.7867 2.445-2.0688.7522-.282 1.2224-.376 1.4105-.282.188.188 0 .282-.282.4702-.188 0-.5642.4702-1.3165 1.4105l-1.1284 1.7867z"/>
		<path id="C" d="M79.1803 56.5448c0 6.3003-1.4106 6.5824-4.1376 6.7705-.6583 0-1.3165 0-1.3165 1.2224 0 .6583.188 1.3165 1.5986 1.3165 2.54 0 5.078-.47 7.711-.47s5.266.47 7.899.47c1.4105 0 1.4105-.7522 1.4105-1.3165 0-1.1284-.5642-1.1284-1.2224-1.2224-3.3853-.188-5.078-.4702-5.078-6.7705V43.38c0-.5642 0-1.3165.6582-1.3165.4702 0 1.1284.3762 2.1628.8463 1.3165.5642 3.3853 1.2225 5.642 1.2225 7.2407 0 12.4126-6.3004 12.4126-15.0456 0-3.5733-1.2225-14.1052-14.6694-14.1052l-4.0435.094-5.36.282c-2.54 0-5.078-.282-7.711-.282-1.3165 0-1.4105.5642-1.4105 1.2225 0 1.2224.282 1.1284 2.1628 1.3165 2.915.47 3.2913 2.445 3.2913 6.6764v32.254zm6.8645-32.348c0-2.82.188-3.7614.4702-4.4196.6582-1.8807 2.0687-2.1628 4.2315-2.1628 6.4884 0 9.4035 5.266 9.4035 11.284 0 7.5228-3.7614 11.8484-8.6512 11.8484-1.5986 0-3.3852-.47-4.5137-1.3165-.47-.282-.9403-.7522-.9403-2.2568V24.1968zm30.4673 32.348c0 4.4196-.188 6.3943-4.1376 6.7705-.7523 0-1.2224 0-1.2224 1.2224 0 .9404.5642 1.3165 1.4105 1.3165 3.2912 0 6.4884-.47 9.6856-.47s3.9494.282 10.626.376l4.0435.094c5.172 0 4.8898.3762 5.078-1.4105 0-.188.282-4.5137.6582-6.5824l.3762-2.54c.188-1.3165.376-2.633-.6583-2.633-.9403 0-1.2224 1.0343-1.5985 2.0687-.7523 2.351-1.7867 4.984-3.7615 6.5825-1.5517 1.1386-3.4357 1.7336-5.36 1.6926h-3.009c-3.4792 0-5.266-1.6926-5.266-8.087V42.0634c0-2.3508.7523-2.2568 1.7867-2.2568h2.915c4.8898 0 5.454 1.3165 6.3944 5.078.4702 1.5045.5642 3.4793 1.7867 3.4793 1.1284 0 .9403-1.6927.8463-2.915-.282-3.7614-.4702-6.3004-.188-9.5916l.3762-4.3256c0-.282-.188-1.5045-.9404-1.5045-.5642 0-.9404.47-1.4105 2.3508s-1.0344 4.7018-5.266 4.7018h-4.5136c-1.7867 0-1.7867-1.2225-1.7867-2.727v-13.353c0-2.1628 0-3.103 4.7958-3.103 2.2568 0 6.0182-.094 8.18 1.9747 1.3165 1.2225 2.1628 3.3853 2.727 5.078.282.8463.4702 1.7866 1.2225 1.7866 1.0343 0 .9403-1.5985.9403-2.0687v-8.275c0-1.5986-.188-1.3165-1.7866-1.2224-1.9748.188-8.369.188-9.9678.188h-9.1213l-7.6168-.282c-.9404 0-1.5986 0-1.5986 1.3165 0 1.1284.6582 1.2225 1.1284 1.2225 4.0435.188 4.2316 2.445 4.2316 6.6764v32.254zm44.9486-39.6827c-.9404-1.5046-.9404-1.7867-2.351-1.7867h-9.9677c-.6582 0-1.4105.188-1.4105 1.2225 0 1.1284.4702 1.2224 1.3165 1.3165 1.4105.094 3.3852.282 3.9495 2.82.282 1.1284.282 3.009.282 3.8554v32.254c0 .9403-.094 2.82-.282 3.8554-.5643 2.633-2.633 2.821-4.0435 2.915-.7523 0-1.3165.188-1.3165 1.2224 0 1.2225.7523 1.3165 1.4105 1.3165 2.0687 0 3.9495-.47 6.0182-.47 1.8808 0 3.8554.47 5.7362.47.8463 0 1.4104-.188 1.4104-1.3165s-.6582-1.1284-1.3164-1.2224c-1.6926 0-3.7614 0-4.2316-3.9495-.47-4.0435-.282-6.7705-.282-10.626l-.188-26.3298 25.1072 41.7515c1.3165 2.1628 1.5046 2.633 2.445 2.633 1.6926 0 1.5045-1.4105 1.5045-2.351v-37.99c0-1.5045 0-5.266.5642-6.5824.3762-1.1284 1.3165-2.1628 2.445-2.2568l1.5046-.094c.9403-.094.9403-.6582.9403-1.3165 0-.5642 0-1.2224-1.3165-1.2224-1.8806 0-3.7614.4702-5.736.4702-1.8807 0-3.7614-.4702-5.548-.4702-.9404 0-1.3165.282-1.3165 1.2224 0 1.0344.5642 1.2225.9403 1.3165l1.5046.094c1.3165.188 2.1628 1.1284 2.633 2.2568.376 1.1284.47 2.82.47 6.5824V51.373L161.4607 16.768z"/>
	</defs>
</svg>